<svg width="48" height="121" viewBox="0 0 48 121" fill="none" xmlns="http://www.w3.org/2000/svg">
<g clip-path="url(#clip0_119_31)">
<path d="M45.61 75.61C45.66 76.15 45.61 76.69 45.49 77.22C45.19 78.84 44.05 80.18 42.49 80.72L42.58 80.5L46.97 85.25L47.03 85.28L47 85.34L46.98 114.61C46.45 116.37 45.38 117.91 43.93 119.03C42.38 120.18 40.51 120.82 38.57 120.86C36.53 121.04 34.49 120.51 32.79 119.38C31.08 118.08 29.94 116.17 29.61 114.04L30.43 113.99C30.36 115.73 29.74 117.4 28.67 118.77C27.47 120.16 25.7 120.93 23.87 120.89C22.96 120.92 22.05 120.81 21.17 120.57C20.26 120.28 19.43 119.78 18.76 119.11C17.48 117.68 16.75 115.83 16.7 113.91L17.61 113.97C16.99 118.03 13.42 120.99 9.31001 120.82C7.29001 120.9 5.29001 120.37 3.58001 119.29C1.86001 118.15 0.590011 116.46 -0.019989 114.49L0.010011 114.43C0.060011 105.09 0.100011 95.3 0.130011 85.2V84.99L0.270011 84.84C1.65001 83.36 3.16001 81.72 4.66001 80.11L4.91001 80.96C3.79001 80.57 2.84001 79.79 2.25001 78.76C1.14001 76.65 1.15001 74.13 2.30001 72.03C2.90001 70.95 3.84001 70.09 4.99001 69.61L5.15001 70.63C3.96001 70.6 2.82001 70.08 2.02001 69.2C1.26001 68.27 0.880011 67.1 0.930011 65.9C0.830011 63.49 2.01001 61.2 4.04001 59.89L4.20001 60.88C3.93001 60.84 3.67001 60.77 3.41001 60.67C2.26001 60.29 1.31001 59.47 0.750011 58.39C0.250011 57.31 0.090011 56.11 0.290011 54.94C0.490011 53.76 1.10001 52.69 2.01001 51.92C2.89001 51.18 3.94001 50.65 5.06001 50.39L5.16001 51.43C3.93001 51.4 2.74001 50.97 1.77001 50.21C0.820011 49.38 0.270011 48.18 0.280011 46.92C0.230011 45.68 0.700011 44.47 1.57001 43.58C2.41001 42.75 3.44001 42.13 4.58001 41.79L4.35001 42.66L0.490011 38.76L0.340011 38.6V38.39C0.360011 35.4 0.380011 32.44 0.390011 29.51V25.18C0.290011 23.6 0.810011 22.05 1.84001 20.85C6.19001 16.92 10.4 13.38 14.51 9.77997L14.65 9.65997H14.83L33.32 9.82997H33.49L33.62 9.93997C36 12.02 38.3 14.08 40.55 16.1L43.88 19.07L45.52 20.54C46.11 21.05 46.58 21.67 46.92 22.37C47.25 23.05 47.45 23.79 47.5 24.55L47.47 26.71C47.46 28.1 47.4 29.46 47.44 30.83L47.39 38.7V38.85L47.28 38.96L43.36 42.81L43.21 42.21C44.39 42.58 45.45 43.27 46.27 44.19C47.07 45.12 47.43 46.34 47.29 47.56C47.19 48.73 46.59 49.81 45.64 50.51C44.73 51.12 43.66 51.46 42.56 51.47L42.63 50.87C43.91 51.18 45.08 51.85 45.98 52.82C46.8 53.73 47.26 54.91 47.25 56.14C47.27 57.3 46.88 58.42 46.16 59.33C45.45 60.15 44.48 60.69 43.42 60.86L43.5 60.41C44.67 61.15 45.54 62.29 45.95 63.61C46.31 64.73 46.42 65.92 46.27 67.09C46.15 68.13 45.62 69.08 44.8 69.72C44.1 70.23 43.26 70.51 42.4 70.52L42.45 70.26C44.05 70.92 45.2 72.34 45.53 74.04C45.65 74.56 45.68 75.1 45.63 75.63C45.63 75.63 45.63 75.11 45.39 74.08C45.03 72.45 43.88 71.09 42.33 70.47L41.75 70.23L42.38 70.2C43.18 70.16 43.94 69.88 44.58 69.4C45.3 68.8 45.76 67.93 45.86 67C46.25 64.61 45.23 62.2 43.25 60.81L42.71 60.47L43.32 60.35C44.26 60.19 45.11 59.7 45.73 58.98C46.36 58.16 46.69 57.15 46.66 56.12C46.68 55.01 46.28 53.94 45.53 53.13C44.71 52.27 43.65 51.66 42.49 51.39L40.45 50.87L42.56 50.78C43.52 50.75 44.46 50.45 45.26 49.91C46.05 49.31 46.55 48.4 46.62 47.41C46.74 46.38 46.42 45.34 45.73 44.56C44.99 43.75 44.05 43.15 43.01 42.83L42.44 42.64L42.86 42.22L46.76 38.35L46.65 38.61L46.69 30.75C46.69 29.4 46.69 28.03 46.7 26.63C46.71 25.23 46.86 23.83 46.2 22.66C45.91 22.05 45.5 21.51 44.99 21.07L43.35 19.62L39.95 16.68L33.01 10.51L33.31 10.63L14.81 10.57L15.13 10.45C11.07 14.02 6.74001 17.71 2.57001 21.45C1.70001 22.47 1.28001 23.8 1.39001 25.13C1.38001 26.58 1.38001 28.03 1.39001 29.46L1.35001 38.35L1.20001 37.98L5.07001 41.88L5.67001 42.49L4.84001 42.75C2.98001 43.33 1.15001 44.85 1.31001 46.84C1.29001 47.8 1.70001 48.72 2.42001 49.36C3.21001 49.96 4.16001 50.3 5.15001 50.33L8.81001 50.51L5.25001 51.37C3.41001 51.81 1.58001 53.16 1.31001 55.06C0.850011 56.98 1.87001 58.95 3.72001 59.66C3.91001 59.73 4.10001 59.79 4.30001 59.83L5.78001 60.07L4.46001 60.82C3.63001 61.34 2.96001 62.09 2.56001 62.98C2.15001 63.9 1.94001 64.89 1.94001 65.9C1.89001 66.84 2.18001 67.76 2.77001 68.5C3.38001 69.15 4.22001 69.54 5.11001 69.58L7.77001 69.73L5.24001 70.59C1.34001 71.96 1.43001 78.75 5.05001 79.8L5.86001 80.03L5.30001 80.65L0.890011 85.38L1.03001 85.04C0.970011 95.16 0.920011 104.95 0.870011 114.26L0.850011 114.14C1.38001 115.9 2.51001 117.43 4.04001 118.46C5.59001 119.43 7.39001 119.91 9.21001 119.85C10.99 119.89 12.73 119.31 14.12 118.2C15.42 117.07 16.3 115.52 16.6 113.82L17.29 110.08L17.55 113.93C17.59 115.62 18.22 117.24 19.34 118.51C19.92 119.07 20.61 119.5 21.38 119.76C22.17 119.97 22.99 120.07 23.81 120.04C25.38 120.1 26.9 119.46 27.95 118.3C28.9 117.08 29.45 115.59 29.53 114.05L29.78 110.5L30.35 113.99C30.66 115.9 31.69 117.63 33.23 118.81C34.78 119.85 36.64 120.33 38.5 120.18C40.28 120.15 42.02 119.58 43.46 118.53C44.78 117.5 45.75 116.09 46.24 114.49L46.21 114.56C46.34 102.34 46.44 92.38 46.55 85.33L46.6 85.46L42.36 80.66L42.22 80.5L42.43 80.43C43.91 79.92 45.02 78.69 45.36 77.16C45.57 76.12 45.56 75.59 45.57 75.57L45.61 75.61Z" fill="#263238"/>
<path d="M43.12 42.55C43.12 42.85 34.24 43.04 23.28 42.98C12.32 42.92 3.44 42.63 3.44 42.34C3.44 42.05 12.32 41.85 23.28 41.91C34.24 41.97 43.12 42.26 43.12 42.55Z" fill="#263238"/>
<path d="M46.71 38.66C46.71 38.95 36.45 39.15 23.77 39.06C11.09 38.97 0.860016 38.71 0.860016 38.41C0.860016 38.11 11.13 37.93 23.81 38C36.49 38.07 46.74 38.34 46.72 38.66H46.71Z" fill="#263238"/>
<path d="M43.53 51.43C43.53 51.72 34.71 51.92 23.84 51.84C12.97 51.76 4.15001 51.49 4.16001 51.17C4.17001 50.85 12.98 50.68 23.85 50.76C34.73 50.84 43.54 51.11 43.53 51.43Z" fill="#263238"/>
<path d="M43.48 60.35C43.48 60.64 34.66 60.83 23.79 60.76C12.92 60.69 4.09999 60.41 4.10999 60.09C4.11999 59.77 12.93 59.6 23.8 59.68C34.68 59.76 43.46 60.05 43.48 60.35Z" fill="#263238"/>
<path d="M43.43 70.18C43.43 70.47 34.56 70.64 23.74 70.59C12.92 70.54 4.05001 70.24 4.06001 69.92C4.07001 69.6 12.88 69.43 23.75 69.51C34.62 69.59 43.42 69.88 43.43 70.18Z" fill="#263238"/>
<path d="M43.38 80.02C43.38 80.31 34.51 80.48 23.69 80.43C12.87 80.38 4.00002 80.08 4.01002 79.76C4.02002 79.44 12.83 79.27 23.7 79.35C34.57 79.43 43.37 79.72 43.38 80.02Z" fill="#263238"/>
<path d="M46.85 85.58C46.85 85.88 36.5 86.06 23.74 86C10.98 85.94 0.630005 85.64 0.630005 85.34C0.630005 85.04 10.98 84.86 23.74 84.92C36.5 84.98 46.8 85.26 46.85 85.58Z" fill="#263238"/>
<path d="M13.4181 0.881016L13.3745 9.2109C13.372 9.70243 13.7683 10.103 14.2599 10.1056L33.9096 10.2084C34.4011 10.211 34.8017 9.81464 34.8042 9.32311L34.8479 0.993223C34.8504 0.501696 34.4541 0.101149 33.9625 0.0985758L14.3128 -0.00431089C13.8213 -0.00688454 13.4207 0.38949 13.4181 0.881016Z" fill="#455A64"/>
<path d="M16.73 10.07C16.43 10.07 16.19 7.87998 16.17 5.16998C16.15 2.45998 16.38 0.269983 16.68 0.259983C16.98 0.249983 17.22 2.44998 17.24 5.15998C17.26 7.86998 16.99 10.05 16.73 10.07Z" fill="#263238"/>
<path d="M20.33 9.80998C20.03 9.80998 19.79 7.61998 19.77 4.90998C19.75 2.19998 19.99 -1.73129e-05 20.28 0.00998269C20.57 0.0199827 20.82 2.19998 20.84 4.90998C20.86 7.61998 20.62 9.81998 20.33 9.81998V9.80998Z" fill="#263238"/>
<path d="M23.99 10.02C23.7 10.02 23.45 7.82999 23.44 5.10999C23.43 2.38999 23.65 0.209985 23.95 0.199985C24.25 0.189985 24.49 2.38999 24.5 5.10999C24.51 7.82999 24.33 10.03 23.99 10.02Z" fill="#263238"/>
<path d="M27.95 9.86C27.65 9.86 27.41 7.67 27.39 4.96C27.37 2.25 27.61 0.0599976 27.91 0.0599976C28.21 0.0599976 28.45 2.25 28.48 4.96C28.51 7.67 28.25 9.91 27.96 9.86H27.95Z" fill="#263238"/>
<path d="M31.59 9.85999C31.29 9.85999 31.05 7.66999 31.03 4.95999C31.01 2.24999 31.25 0.0499878 31.54 0.0499878C31.83 0.0499878 32.08 2.23999 32.1 4.94999C32.12 7.65999 31.89 9.85999 31.59 9.85999Z" fill="#263238"/>
</g>
<defs>
<clipPath id="clip0_119_31">
<rect width="47.51" height="120.9" fill="white"/>
</clipPath>
</defs>
</svg>
