<svg width="376" height="500" viewBox="0 0 376 500" fill="none" xmlns="http://www.w3.org/2000/svg" xmlns:xlink="http://www.w3.org/1999/xlink">
<mask id="mask0_112_736" style="mask-type:luminance" maskUnits="userSpaceOnUse" x="0" y="0" width="376" height="500">
<path fill-rule="evenodd" clip-rule="evenodd" d="M346.28 439.25C288.22 503.17 188.03 501.37 158.69 499.25C154.89 498.99 152.8 498.74 152.8 498.74H152.75C148.75 498.45 64.26 491.45 22.61 426.74C-6.16998 382 -6.86998 321.5 20.52 246.94C21.233 244.986 22.5931 243.335 24.3743 242.261C26.1554 241.187 28.2504 240.755 30.3111 241.037C32.3718 241.318 34.2742 242.297 35.702 243.809C37.1298 245.321 37.9972 247.277 38.16 249.35C39.93 270.53 47.59 294.64 55.22 295.18C56.64 295.27 58.55 294.6 60.75 293.23C70.44 287.15 66.15 261.31 62 236.31C56.43 202.73 42.42 170.17 68.44 136.4C101.59 93.4 129.83 90.61 130.95 90.33C132.699 89.8839 134.54 89.9648 136.243 90.5627C137.946 91.1605 139.434 92.2486 140.52 93.69C141.596 95.1454 142.222 96.884 142.322 98.6912C142.421 100.498 141.99 102.295 141.08 103.86C130 122.66 121.77 144.12 123 150.53C125.048 150.485 127.075 150.103 129 149.4C151 142.32 177.81 107 187.5 72.29C191.39 58.29 195.68 32.37 180.8 15.16C179.37 13.5063 178.581 11.3949 178.574 9.2088C178.568 7.0227 179.345 4.90671 180.765 3.24468C182.185 1.58264 184.154 0.48465 186.314 0.149879C188.475 -0.184892 190.684 0.265731 192.54 1.42001C196.61 4.02001 291.81 65.86 282.69 155.69C280.12 180.91 281.75 191.79 283.07 196.19C286.65 192.19 291.89 182.58 292.63 172.19C292.757 170.286 293.479 168.471 294.693 166.999C295.908 165.527 297.554 164.474 299.399 163.988C301.244 163.502 303.195 163.608 304.977 164.29C306.759 164.972 308.281 166.196 309.33 167.79C314.2 175.17 427.51 349.79 346.28 439.24V439.25ZM255.39 320.77C236.08 346.56 228.45 335.7 228.45 335.7C213.8 305.6 219.02 252.86 221.13 244.93C223.24 237 192.76 258.22 192.76 258.22C194.69 230.81 153.28 202.22 153.28 202.22C153.28 202.22 165.88 244.79 128.71 324.01C75.4 437.64 179.17 451.49 179.17 451.49C295.36 451.31 255.39 320.74 255.39 320.74V320.77Z" fill="white"/>
</mask>
</svg>
