<svg xmlns="http://www.w3.org/2000/svg" viewBox="0 0 500 500"><g id="freepik--Shadow--inject-280"><ellipse id="freepik--path--inject-280" cx="250" cy="412.39" rx="193.89" ry="11.32" style="fill:#f5f5f5"></ellipse></g><g id="freepik--Glass--inject-280"><path d="M329,175.22H172.68s-4.66,76.34,0,101.22c5.09,27.19,14.49,76.12,20.4,103.14,1.28,5.83,0,23.87,0,23.87h0a8.09,8.09,0,0,0,8.09,8.08h99.27a8.08,8.08,0,0,0,8.08-8.08h0s-1.28-18,0-23.87c5.91-27,15.31-75.95,20.4-103.14C333.64,251.56,329,175.22,329,175.22Z" style="fill:#407BFF"></path><path d="M325.71,178.68H176c-.81,14.8-3.85,75.84.14,97.12,5.93,31.71,14.83,77.72,20.38,103,1.25,5.75.34,20.83.1,24.3v.31a4.62,4.62,0,0,0,4.62,4.61h99.27a4.62,4.62,0,0,0,4.62-4.61v-.35c-.24-3.54-1.14-18.54.11-24.26,5.54-25.32,14.44-71.33,20.38-103C329.57,254.52,326.53,193.48,325.71,178.68Z" style="fill:#fff;opacity:0.5"></path><path d="M329,175.22h0a8.09,8.09,0,0,0-8.08-8.09H180.79a8.09,8.09,0,0,0-8.09,8.09h0s-4.66,76.34,0,101.22c5.09,27.19,14.49,76.12,20.4,103.14,1.28,5.83,0,23.87,0,23.87h0a8.09,8.09,0,0,0,8.09,8.08h99.27a8.08,8.08,0,0,0,8.08-8.08h0s-1.28-18,0-23.87c5.91-27,15.31-75.95,20.4-103.14C333.64,251.56,329,175.22,329,175.22Z" style="fill:#fff;opacity:0.4"></path><path d="M382.63,226.54c-8.68-11.09-21.44-17-35-16.15l-17,1.05c.2,6.67.36,13.76.43,20.79l17.88-1.09c9.09-.57,14.78,4.91,17.37,8.21A27.94,27.94,0,0,1,370.56,265l-12.67,40.48c-3.74,12-14.28,19.16-25.06,17.09l-12.2-2.34c-1.32,6.79-2.67,13.66-4,20.39L328.91,343a39.52,39.52,0,0,0,7.47.71c18.31,0,35.31-12.73,41.35-32L390.4,271.2A48.74,48.74,0,0,0,382.63,226.54Z" style="fill:#407BFF"></path><path d="M382.63,226.54c-8.68-11.09-21.44-17-35-16.15l-17,1.05c.2,6.67.36,13.76.43,20.79l17.88-1.09c9.09-.57,14.78,4.91,17.37,8.21A27.94,27.94,0,0,1,370.56,265l-12.67,40.48c-3.74,12-14.28,19.16-25.06,17.09l-12.2-2.34c-1.32,6.79-2.67,13.66-4,20.39L328.91,343a39.52,39.52,0,0,0,7.47.71c18.31,0,35.31-12.73,41.35-32L390.4,271.2A48.74,48.74,0,0,0,382.63,226.54Z" style="fill:#fff;opacity:0.7000000000000001"></path><path d="M371.6,235.44c-3.36-4.28-10.74-11.34-22.68-10.64l-9.74.34c-.09-4.83-.21-9.62-.35-14.21l-8.24.51c.14,4.52.25,9.24.34,14,0,2.26.07,4.53.09,6.79l17.88-1.09c9.09-.57,14.78,4.91,17.37,8.21A27.94,27.94,0,0,1,370.56,265l-12.67,40.48c-3.74,12-14.28,19.16-25.06,17.09l-4.24-.81h0l-8-1.53c-1.32,6.79-2.67,13.66-4,20.39l7.95,1.53c.92-4.61,1.84-9.29,2.76-14l4.8.67a25.82,25.82,0,0,0,4.77.44c12.15,0,23.21-8.58,27.38-21.91L377,266.89A34.28,34.28,0,0,0,371.6,235.44Z" style="fill:#407BFF"></path><path d="M371.6,235.44c-3.36-4.28-10.74-11.34-22.68-10.64l-9.74.34c-.09-4.83-.21-9.62-.35-14.21l-8.24.51c.14,4.52.25,9.24.34,14,0,2.26.07,4.53.09,6.79l17.88-1.09c9.09-.57,14.78,4.91,17.37,8.21A27.94,27.94,0,0,1,370.56,265l-12.67,40.48c-3.74,12-14.28,19.16-25.06,17.09l-4.24-.81h0l-8-1.53c-1.32,6.79-2.67,13.66-4,20.39l7.95,1.53c.92-4.61,1.84-9.29,2.76-14l4.8.67a25.82,25.82,0,0,0,4.77.44c12.15,0,23.21-8.58,27.38-21.91L377,266.89A34.28,34.28,0,0,0,371.6,235.44Z" style="fill:#fff;opacity:0.4"></path><path d="M180.79,170.6a4.62,4.62,0,1,0,0,9.23H320.88a4.62,4.62,0,1,0,0-9.23Z" style="fill:#407BFF"></path><path d="M180.79,170.6a4.62,4.62,0,1,0,0,9.23H320.88a4.62,4.62,0,1,0,0-9.23Z" style="fill:#fff;opacity:0.7000000000000001"></path><path d="M327.09,210.46a4.68,4.68,0,0,1-4.71,4.48H179.29a4.68,4.68,0,0,1-4.71-4.53c-.73,23.35-1,52.11,1.51,65.39,5.93,31.71,14.83,77.72,20.38,103,1.25,5.75.34,20.83.1,24.3v.31a4.62,4.62,0,0,0,4.62,4.61h99.27a4.62,4.62,0,0,0,4.62-4.61v-.35c-.24-3.54-1.14-18.54.11-24.26,5.54-25.32,14.44-71.33,20.38-103C328.07,262.53,327.82,233.8,327.09,210.46Z" style="fill:#407BFF"></path><path d="M320.88,167.13H180.79a8.09,8.09,0,1,0,0,16.17H320.88a8.09,8.09,0,0,0,0-16.17Zm0,12.7H180.79a4.62,4.62,0,1,1,0-9.23H320.88a4.62,4.62,0,1,1,0,9.23Z" style="fill:#407BFF"></path><path d="M320.88,167.13H180.79a8.09,8.09,0,1,0,0,16.17H320.88a8.09,8.09,0,0,0,0-16.17Zm0,12.7H180.79a4.62,4.62,0,1,1,0-9.23H320.88a4.62,4.62,0,1,1,0,9.23Z" style="fill:#fff;opacity:0.4"></path><path d="M179.29,205.7a4.62,4.62,0,1,0,0,9.24H322.38a4.62,4.62,0,1,0,0-9.24Z" style="fill:#fff;opacity:0.7000000000000001"></path><path d="M179.29,205.7a4.62,4.62,0,1,0,0,9.24H322.38a4.62,4.62,0,1,0,0-9.24Z" style="fill:#407BFF"></path><path d="M179.29,205.7a4.62,4.62,0,1,0,0,9.24H322.38a4.62,4.62,0,1,0,0-9.24Z" style="fill:#fff;opacity:0.2"></path><path d="M201.2,398.83a4.62,4.62,0,1,0,0,9.23h99.27a4.62,4.62,0,1,0,0-9.23Z" style="fill:#407BFF"></path><path d="M201.2,398.83a4.62,4.62,0,1,0,0,9.23h99.27a4.62,4.62,0,1,0,0-9.23Z" style="fill:#fff;opacity:0.2"></path><path d="M235.31,250.27c-.63,1-1.23,2-1.78,3.09-10.72,20.56-3.67,45.43,15.75,55.55s43.85,1.65,54.56-18.91c.56-1.06,1.05-2.14,1.51-3.23Z" style="fill:#407BFF"></path><path d="M235.31,250.27c-.63,1-1.23,2-1.78,3.09-10.72,20.56-3.67,45.43,15.75,55.55s43.85,1.65,54.56-18.91c.56-1.06,1.05-2.14,1.51-3.23Z" style="fill:#fff;opacity:0.30000000000000004"></path><path d="M235.2,250.21c-.2.36-.4.71-.59,1.07a39.64,39.64,0,0,0,70.31,36.65c.19-.37.36-.73.54-1.1Z" style="fill:#407BFF"></path><path d="M236.62,251c-.19.33-.38.67-.56,1a38,38,0,0,0,67.48,35.17c.18-.35.34-.69.51-1Z" style="fill:#fff;opacity:0.8"></path><path d="M264,268.12,240.64,256a2.17,2.17,0,0,0-3,1.14,34.32,34.32,0,0,0-1.68,19.11,2.16,2.16,0,0,0,2.77,1.64l25.12-7.91A1,1,0,0,0,264,268.12Z" style="fill:#407BFF"></path><path d="M264.69,272.64l-25.13,7.91a2.16,2.16,0,0,0-1.33,2.93,34.37,34.37,0,0,0,12.33,14.7,2.15,2.15,0,0,0,3.12-.79L265.85,274A1,1,0,0,0,264.69,272.64Z" style="fill:#407BFF"></path><path d="M272.9,274.65l7.9,25.13a2.17,2.17,0,0,0,2.94,1.33,34.37,34.37,0,0,0,14.7-12.33,2.16,2.16,0,0,0-.79-3.12l-23.36-12.17A1,1,0,0,0,272.9,274.65Z" style="fill:#407BFF"></path><path d="M268.37,275.35,256.2,298.71a2.17,2.17,0,0,0,1.14,3,34.33,34.33,0,0,0,19.11,1.68,2.17,2.17,0,0,0,1.65-2.77l-7.91-25.12A1,1,0,0,0,268.37,275.35Z" style="fill:#407BFF"></path><g style="opacity:0.30000000000000004"><path d="M264,268.12,240.64,256a2.17,2.17,0,0,0-3,1.14,34.32,34.32,0,0,0-1.68,19.11,2.16,2.16,0,0,0,2.77,1.64l25.12-7.91A1,1,0,0,0,264,268.12Z" style="fill:#fff"></path><path d="M264.69,272.64l-25.13,7.91a2.16,2.16,0,0,0-1.33,2.93,34.37,34.37,0,0,0,12.33,14.7,2.15,2.15,0,0,0,3.12-.79L265.85,274A1,1,0,0,0,264.69,272.64Z" style="fill:#fff"></path><path d="M272.9,274.65l7.9,25.13a2.17,2.17,0,0,0,2.94,1.33,34.37,34.37,0,0,0,14.7-12.33,2.16,2.16,0,0,0-.79-3.12l-23.36-12.17A1,1,0,0,0,272.9,274.65Z" style="fill:#fff"></path><path d="M268.37,275.35,256.2,298.71a2.17,2.17,0,0,0,1.14,3,34.33,34.33,0,0,0,19.11,1.68,2.17,2.17,0,0,0,1.65-2.77l-7.91-25.12A1,1,0,0,0,268.37,275.35Z" style="fill:#fff"></path></g><path d="M288.75,285.36c.78.77,1.11,1.69.75,2.06s-1.3.06-2.08-.71-1.11-1.7-.74-2.07S288,284.59,288.75,285.36Z" style="fill:#407BFF"></path><path d="M288.75,285.36c.78.77,1.11,1.69.75,2.06s-1.3.06-2.08-.71-1.11-1.7-.74-2.07S288,284.59,288.75,285.36Z" style="fill:#fff;opacity:0.6000000000000001"></path><path d="M280.45,283.23c.72.82,1,1.77.6,2.11s-1.3,0-2-.85-1-1.77-.6-2.12S279.73,282.41,280.45,283.23Z" style="fill:#407BFF"></path><path d="M280.45,283.23c.72.82,1,1.77.6,2.11s-1.3,0-2-.85-1-1.77-.6-2.12S279.73,282.41,280.45,283.23Z" style="fill:#fff;opacity:0.6000000000000001"></path><path d="M245.4,269.23c1.08.13,1.92.66,1.86,1.18s-1,.83-2.08.71-1.92-.65-1.86-1.17S244.31,269.11,245.4,269.23Z" style="fill:#407BFF"></path><path d="M245.4,269.23c1.08.13,1.92.66,1.86,1.18s-1,.83-2.08.71-1.92-.65-1.86-1.17S244.31,269.11,245.4,269.23Z" style="fill:#fff;opacity:0.6000000000000001"></path><path d="M266.71,290.26c.26-1.07.87-1.84,1.38-1.71s.72,1.08.47,2.14-.87,1.83-1.38,1.71S266.46,291.32,266.71,290.26Z" style="fill:#407BFF"></path><path d="M266.71,290.26c.26-1.07.87-1.84,1.38-1.71s.72,1.08.47,2.14-.87,1.83-1.38,1.71S266.46,291.32,266.71,290.26Z" style="fill:#fff;opacity:0.6000000000000001"></path><path d="M272.14,247c-.26-1.14-.56-2.29-.92-3.44-7-22.12-29.54-34.72-50.42-28.14s-32.17,29.83-25.21,51.95c.36,1.15.77,2.26,1.21,3.35Z" style="fill:#407BFF"></path><path d="M272.14,247c-.26-1.14-.56-2.29-.92-3.44-7-22.12-29.54-34.72-50.42-28.14s-32.17,29.83-25.21,51.95c.36,1.15.77,2.26,1.21,3.35Z" style="fill:#fff;opacity:0.30000000000000004"></path><path d="M272.26,246.92c-.11-.39-.21-.79-.34-1.18a39.64,39.64,0,0,0-75.63,23.81c.12.39.26.77.4,1.16Z" style="fill:#407BFF"></path><path d="M270.74,247.4c-.11-.37-.2-.74-.32-1.11a38,38,0,1,0-72.58,22.85c.11.37.24.73.37,1.09Z" style="fill:#fff;opacity:0.8"></path><path d="M239.24,254.62l25.12-7.91a2.17,2.17,0,0,0,1.33-2.94,34.32,34.32,0,0,0-12.33-14.7,2.16,2.16,0,0,0-3.12.79l-12.17,23.36A1,1,0,0,0,239.24,254.62Z" style="fill:#407BFF"></path><path d="M235.55,251.91l12.17-23.36a2.15,2.15,0,0,0-1.13-3,34.35,34.35,0,0,0-19.11-1.68,2.17,2.17,0,0,0-1.65,2.77l7.91,25.12A1,1,0,0,0,235.55,251.91Z" style="fill:#407BFF"></path><path d="M228.32,256.29,205,244.12a2.15,2.15,0,0,0-3,1.13,34.35,34.35,0,0,0-1.68,19.11A2.17,2.17,0,0,0,203,266l25.12-7.91A1,1,0,0,0,228.32,256.29Z" style="fill:#407BFF"></path><path d="M231,252.6l-7.91-25.12a2.17,2.17,0,0,0-2.94-1.33,34.44,34.44,0,0,0-14.7,12.33,2.17,2.17,0,0,0,.8,3.12l23.36,12.17A1,1,0,0,0,231,252.6Z" style="fill:#407BFF"></path><g style="opacity:0.30000000000000004"><path d="M239.24,254.62l25.12-7.91a2.17,2.17,0,0,0,1.33-2.94,34.32,34.32,0,0,0-12.33-14.7,2.16,2.16,0,0,0-3.12.79l-12.17,23.36A1,1,0,0,0,239.24,254.62Z" style="fill:#fff"></path><path d="M235.55,251.91l12.17-23.36a2.15,2.15,0,0,0-1.13-3,34.35,34.35,0,0,0-19.11-1.68,2.17,2.17,0,0,0-1.65,2.77l7.91,25.12A1,1,0,0,0,235.55,251.91Z" style="fill:#fff"></path><path d="M228.32,256.29,205,244.12a2.15,2.15,0,0,0-3,1.13,34.35,34.35,0,0,0-1.68,19.11A2.17,2.17,0,0,0,203,266l25.12-7.91A1,1,0,0,0,228.32,256.29Z" style="fill:#fff"></path><path d="M231,252.6l-7.91-25.12a2.17,2.17,0,0,0-2.94-1.33,34.44,34.44,0,0,0-14.7,12.33,2.17,2.17,0,0,0,.8,3.12l23.36,12.17A1,1,0,0,0,231,252.6Z" style="fill:#fff"></path></g><ellipse cx="209.54" cy="258.99" rx="1.98" ry="0.95" transform="translate(-1.45 1.18) rotate(-0.32)" style="fill:#407BFF"></ellipse><ellipse cx="209.54" cy="258.99" rx="1.98" ry="0.95" transform="translate(-1.45 1.18) rotate(-0.32)" style="fill:#fff;opacity:0.6000000000000001"></ellipse><path d="M216.92,255.57c-1.1-.07-2-.55-1.92-1.07s.94-.89,2-.83,2,.55,1.92,1.07S218,255.63,216.92,255.57Z" style="fill:#407BFF"></path><path d="M216.92,255.57c-1.1-.07-2-.55-1.92-1.07s.94-.89,2-.83,2,.55,1.92,1.07S218,255.63,216.92,255.57Z" style="fill:#fff;opacity:0.6000000000000001"></path><path d="M251.6,240.68c-.86.68-1.82.89-2.14.48s.1-1.29,1-2,1.82-.9,2.15-.48S252.46,240,251.6,240.68Z" style="fill:#407BFF"></path><path d="M251.6,240.68c-.86.68-1.82.89-2.14.48s.1-1.29,1-2,1.82-.9,2.15-.48S252.46,240,251.6,240.68Z" style="fill:#fff;opacity:0.6000000000000001"></path><path d="M221.66,240.89c.58.93.68,1.91.24,2.18s-1.28-.26-1.85-1.19-.68-1.91-.23-2.18S221.09,240,221.66,240.89Z" style="fill:#407BFF"></path><path d="M221.66,240.89c.58.93.68,1.91.24,2.18s-1.28-.26-1.85-1.19-.68-1.91-.23-2.18S221.09,240,221.66,240.89Z" style="fill:#fff;opacity:0.6000000000000001"></path><ellipse cx="256.66" cy="345.99" rx="44.25" ry="46.86" transform="translate(-160.54 238.62) rotate(-39)" style="fill:#407BFF"></ellipse><ellipse cx="256.66" cy="345.99" rx="44.25" ry="46.86" transform="translate(-160.54 238.62) rotate(-39)" style="fill:#fff;opacity:0.30000000000000004"></ellipse><circle cx="255.02" cy="343.96" r="44.25" transform="translate(-1 0.74) rotate(-0.17)" style="fill:#407BFF"></circle><circle cx="254.96" cy="343.9" r="42.47" transform="translate(-68.42 63.37) rotate(-12.51)" style="fill:#407BFF"></circle><circle cx="254.96" cy="343.9" r="42.47" transform="translate(-68.42 63.37) rotate(-12.51)" style="fill:#fff;opacity:0.8"></circle><path d="M227.56,316.84a38.33,38.33,0,0,0-10.22,18.82,2.42,2.42,0,0,0,2.11,2.91l29.24,3.07a1.09,1.09,0,0,0,1-1.78L231.15,317A2.41,2.41,0,0,0,227.56,316.84Z" style="fill:#407BFF"></path><path d="M248.35,344.8l-29.24-3.08a2.42,2.42,0,0,0-2.66,2.42,38.37,38.37,0,0,0,6.08,20.53,2.42,2.42,0,0,0,3.55.58l22.85-18.51A1.09,1.09,0,0,0,248.35,344.8Z" style="fill:#407BFF"></path><path d="M250.93,349.21l-22.85,18.5a2.41,2.41,0,0,0-.17,3.6,38.41,38.41,0,0,0,18.81,10.21,2.41,2.41,0,0,0,2.92-2.1l3.07-29.24A1.09,1.09,0,0,0,250.93,349.21Z" style="fill:#407BFF"></path><path d="M233.62,315l18.5,22.84a1.1,1.1,0,0,0,1.95-.57l3.07-29.24a2.41,2.41,0,0,0-2.41-2.66,38.31,38.31,0,0,0-20.53,6.07A2.42,2.42,0,0,0,233.62,315Z" style="fill:#407BFF"></path><path d="M255.86,350.51l-3.07,29.24a2.41,2.41,0,0,0,2.41,2.66,38.32,38.32,0,0,0,20.53-6.08,2.41,2.41,0,0,0,.58-3.55l-18.5-22.85A1.1,1.1,0,0,0,255.86,350.51Z" style="fill:#407BFF"></path><path d="M259,338.59l22.85-18.5a2.42,2.42,0,0,0,.17-3.6,38.32,38.32,0,0,0-18.82-10.21,2.41,2.41,0,0,0-2.91,2.1l-3.07,29.24A1.1,1.1,0,0,0,259,338.59Z" style="fill:#407BFF"></path><path d="M261.58,343l29.24,3.07a2.41,2.41,0,0,0,2.66-2.41,38.37,38.37,0,0,0-6.08-20.53,2.41,2.41,0,0,0-3.55-.58L261,341.05A1.1,1.1,0,0,0,261.58,343Z" style="fill:#407BFF"></path><path d="M260.28,347.94l18.5,22.84a2.4,2.4,0,0,0,3.59.17,38.26,38.26,0,0,0,10.22-18.81,2.42,2.42,0,0,0-2.11-2.91l-29.24-3.08A1.1,1.1,0,0,0,260.28,347.94Z" style="fill:#407BFF"></path><g style="opacity:0.30000000000000004"><path d="M227.56,316.84a38.33,38.33,0,0,0-10.22,18.82,2.42,2.42,0,0,0,2.11,2.91l29.24,3.07a1.09,1.09,0,0,0,1-1.78L231.15,317A2.41,2.41,0,0,0,227.56,316.84Z" style="fill:#fff"></path><path d="M248.35,344.8l-29.24-3.08a2.42,2.42,0,0,0-2.66,2.42,38.37,38.37,0,0,0,6.08,20.53,2.42,2.42,0,0,0,3.55.58l22.85-18.51A1.09,1.09,0,0,0,248.35,344.8Z" style="fill:#fff"></path><path d="M250.93,349.21l-22.85,18.5a2.41,2.41,0,0,0-.17,3.6,38.41,38.41,0,0,0,18.81,10.21,2.41,2.41,0,0,0,2.92-2.1l3.07-29.24A1.09,1.09,0,0,0,250.93,349.21Z" style="fill:#fff"></path><path d="M233.62,315l18.5,22.84a1.1,1.1,0,0,0,1.95-.57l3.07-29.24a2.41,2.41,0,0,0-2.41-2.66,38.31,38.31,0,0,0-20.53,6.07A2.42,2.42,0,0,0,233.62,315Z" style="fill:#fff"></path><path d="M255.86,350.51l-3.07,29.24a2.41,2.41,0,0,0,2.41,2.66,38.32,38.32,0,0,0,20.53-6.08,2.41,2.41,0,0,0,.58-3.55l-18.5-22.85A1.1,1.1,0,0,0,255.86,350.51Z" style="fill:#fff"></path><path d="M259,338.59l22.85-18.5a2.42,2.42,0,0,0,.17-3.6,38.32,38.32,0,0,0-18.82-10.21,2.41,2.41,0,0,0-2.91,2.1l-3.07,29.24A1.1,1.1,0,0,0,259,338.59Z" style="fill:#fff"></path><path d="M261.58,343l29.24,3.07a2.41,2.41,0,0,0,2.66-2.41,38.37,38.37,0,0,0-6.08-20.53,2.41,2.41,0,0,0-3.55-.58L261,341.05A1.1,1.1,0,0,0,261.58,343Z" style="fill:#fff"></path><path d="M260.28,347.94l18.5,22.84a2.4,2.4,0,0,0,3.59.17,38.26,38.26,0,0,0,10.22-18.81,2.42,2.42,0,0,0-2.11-2.91l-29.24-3.08A1.1,1.1,0,0,0,260.28,347.94Z" style="fill:#fff"></path></g><path d="M236.62,333c1.07.59,1.71,1.48,1.43,2s-1.38.45-2.45-.14-1.71-1.48-1.43-2S235.55,332.4,236.62,333Z" style="fill:#407BFF"></path><path d="M236.62,333c1.07.59,1.71,1.48,1.43,2s-1.38.45-2.45-.14-1.71-1.48-1.43-2S235.55,332.4,236.62,333Z" style="fill:#fff;opacity:0.6000000000000001"></path><path d="M235.57,346.84c1.21-.12,2.24.26,2.3.84s-.89,1.15-2.1,1.26-2.25-.26-2.31-.84S234.35,347,235.57,346.84Z" style="fill:#407BFF"></path><path d="M235.57,346.84c1.21-.12,2.24.26,2.3.84s-.89,1.15-2.1,1.26-2.25-.26-2.31-.84S234.35,347,235.57,346.84Z" style="fill:#fff;opacity:0.6000000000000001"></path><path d="M229.41,354.46c1.16-.37,2.25-.23,2.43.33s-.62,1.31-1.78,1.69-2.25.23-2.43-.33S228.24,354.84,229.41,354.46Z" style="fill:#407BFF"></path><path d="M229.41,354.46c1.16-.37,2.25-.23,2.43.33s-.62,1.31-1.78,1.69-2.25.23-2.43-.33S228.24,354.84,229.41,354.46Z" style="fill:#fff;opacity:0.6000000000000001"></path><path d="M279.58,331.52c1.14-.45,2.23-.38,2.45.16s-.52,1.35-1.66,1.81-2.23.38-2.45-.16S278.45,332,279.58,331.52Z" style="fill:#407BFF"></path><path d="M279.58,331.52c1.14-.45,2.23-.38,2.45.16s-.52,1.35-1.66,1.81-2.23.38-2.45-.16S278.45,332,279.58,331.52Z" style="fill:#fff;opacity:0.6000000000000001"></path><path d="M273.72,339.08c1.16-.38,2.25-.23,2.43.32s-.62,1.31-1.78,1.69-2.25.23-2.43-.32S272.55,339.46,273.72,339.08Z" style="fill:#407BFF"></path><path d="M273.72,339.08c1.16-.38,2.25-.23,2.43.32s-.62,1.31-1.78,1.69-2.25.23-2.43-.32S272.55,339.46,273.72,339.08Z" style="fill:#fff;opacity:0.6000000000000001"></path><path d="M243.8,368.74c.61-1.05,1.52-1.67,2-1.38s.41,1.39-.2,2.45-1.52,1.67-2,1.38S243.19,369.8,243.8,368.74Z" style="fill:#407BFF"></path><path d="M243.8,368.74c.61-1.05,1.52-1.67,2-1.38s.41,1.39-.2,2.45-1.52,1.67-2,1.38S243.19,369.8,243.8,368.74Z" style="fill:#fff;opacity:0.6000000000000001"></path><path d="M260.37,362.13c-.42-1.15-.31-2.24.23-2.44s1.34.56,1.76,1.71.32,2.24-.23,2.44S260.79,363.27,260.37,362.13Z" style="fill:#407BFF"></path><path d="M260.37,362.13c-.42-1.15-.31-2.24.23-2.44s1.34.56,1.76,1.71.32,2.24-.23,2.44S260.79,363.27,260.37,362.13Z" style="fill:#fff;opacity:0.6000000000000001"></path><path d="M224.55,397.77c-.26-3.19-4.27-6.13-8.92-6.46s-8.15,2-7.82,5q-10.37-94.72-25-188.87s1.79-3.81,11.53-6.94S205.25,205,205.25,205q12.25,95.55,20.29,191.52Z" style="fill:#263238"></path><g style="opacity:0.1"><path d="M224.55,397.77c-.26-3.19-4.27-6.13-8.92-6.46s-8.15,2-7.82,5q-10.37-94.72-25-188.87s1.79-3.81,11.53-6.94S205.25,205,205.25,205q12.25,95.55,20.29,191.52Z" style="fill:#fff"></path></g><path d="M197.07,211.83c-5.32,1.58-10,.57-10.42-2.33-.31-2,2.51-4.73,6.29-5.94s7.12-.44,7.4,1.68c.17,1.24-1.5,2.78-3.71,3.45s-4.15.24-4.33-1l2.37-.74c.07.5.87.68,1.78.4S198,206.46,198,206c-.19-1.38-2.36-1.87-4.84-1.09s-4.32,2.53-4.12,3.88c.33,2.2,3.86,3,7.88,1.77s7.05-4,6.75-6.27c-.41-3.15-5.34-4.32-11-2.5s-9.78,5.81-9.31,8.82l-2.36.77c-.59-3.69,4.54-8.64,11.48-10.9s13-.8,13.53,3.11C206.41,206.57,202.39,210.25,197.07,211.83Z" style="fill:#263238"></path><g style="opacity:0.5"><path d="M197.07,211.83c-5.32,1.58-10,.57-10.42-2.33-.31-2,2.51-4.73,6.29-5.94s7.12-.44,7.4,1.68c.17,1.24-1.5,2.78-3.71,3.45s-4.15.24-4.33-1l2.37-.74c.07.5.87.68,1.78.4S198,206.46,198,206c-.19-1.38-2.36-1.87-4.84-1.09s-4.32,2.53-4.12,3.88c.33,2.2,3.86,3,7.88,1.77s7.05-4,6.75-6.27c-.41-3.15-5.34-4.32-11-2.5s-9.78,5.81-9.31,8.82l-2.36.77c-.59-3.69,4.54-8.64,11.48-10.9s13-.8,13.53,3.11C206.41,206.57,202.39,210.25,197.07,211.83Z" style="fill:#fff"></path></g><path d="M183.37,210.57l-2.36.77Q195.55,303.47,206,396.19l1.94.13Q197.71,303.15,183.37,210.57Z" style="fill:#263238"></path><g style="opacity:0.30000000000000004"><path d="M183.37,210.57l-2.36.77Q195.55,303.47,206,396.19l1.94.13Q197.71,303.15,183.37,210.57Z" style="fill:#fff"></path></g><path d="M226.4,397.94c.25,3-3.08,5.05-7.41,4.61s-8.1-3.12-8.41-6q-9.89-93.78-23.93-187c.44,2.9,5.1,3.91,10.42,2.33s9.34-5.26,9-8.28Q218.4,300.54,226.4,397.94Z" style="fill:#263238"></path><path d="M226.4,397.94c.25,3-3.08,5.05-7.41,4.61s-8.1-3.12-8.41-6q-9.89-93.78-23.93-187c.44,2.9,5.1,3.91,10.42,2.33s9.34-5.26,9-8.28Q218.4,300.54,226.4,397.94Z" style="fill:#fff;opacity:0.30000000000000004"></path><path d="M226.4,397.94q-8-97.41-20.38-194.39c.34,2.64-2.68,5.77-7,7.57.29,8.2.43,12.27.71,20.4l2.1-1.22q8.77,71.68,15.35,143.57l2.18-.9q.65,14.8,1.25,29.63C224.13,402.44,226.62,400.56,226.4,397.94Z" style="fill:#263238"></path><path d="M226.4,397.94q-8-97.41-20.38-194.39c.34,2.64-2.68,5.77-7,7.57.29,8.2.43,12.27.71,20.4l2.1-1.22q8.77,71.68,15.35,143.57l2.18-.9q.65,14.8,1.25,29.63C224.13,402.44,226.62,400.56,226.4,397.94Z" style="fill:#fff;opacity:0.2"></path><ellipse cx="304.77" cy="233.14" rx="13.84" ry="13.37" style="fill:#407BFF"></ellipse><ellipse cx="304.77" cy="233.14" rx="13.84" ry="13.37" style="opacity:0.30000000000000004"></ellipse><path d="M311.31,223.58c-.16,1-1.41,1.43-2.85,1.21s-2.53-.94-2.38-2,1.41-1.42,2.85-1.2S311.47,222.54,311.31,223.58Z" style="fill:#fff;opacity:0.7000000000000001"></path><path d="M313.58,225.19a.91.91,0,1,1-.75-1A.84.84,0,0,1,313.58,225.19Z" style="fill:#fff;opacity:0.7000000000000001"></path><path d="M312.17,221.52a11.26,11.26,0,0,1,4,9.1c0,7.77-5.65,11.9-12.62,11.9-6.58,0-12-3.69-12.55-10.66,0,.42-.06.84-.06,1.28,0,8.74,6.2,13.38,13.84,13.38s13.85-4.64,13.85-13.38C318.62,227.52,316,223.6,312.17,221.52Z" style="opacity:0.2"></path><path d="M302.76,223.5c.12.69-.72.85-1.75,1s-1.88.29-2-.4.63-1.39,1.66-1.56S302.64,222.81,302.76,223.5Z" style="fill:#263238"></path><path d="M302.76,223.5c.12.69-.72.85-1.75,1s-1.88.29-2-.4.63-1.39,1.66-1.56S302.64,222.81,302.76,223.5Z" style="fill:#fff;opacity:0.30000000000000004"></path><ellipse cx="280.28" cy="277.93" rx="13.37" ry="13.84" transform="translate(-114.43 279.59) rotate(-45)" style="fill:#407BFF"></ellipse><ellipse cx="280.28" cy="277.93" rx="13.37" ry="13.84" transform="translate(-114.43 279.59) rotate(-45)" style="opacity:0.30000000000000004"></ellipse><path d="M291.66,275.79c-.85.63-2,0-2.87-1.16s-1.13-2.46-.28-3.09,2,0,2.87,1.17S292.5,275.16,291.66,275.79Z" style="fill:#fff;opacity:0.7000000000000001"></path><path d="M292.13,278.53a.91.91,0,1,1,.2-1.26A.85.85,0,0,1,292.13,278.53Z" style="fill:#fff;opacity:0.7000000000000001"></path><path d="M293.72,274.94a11.24,11.24,0,0,1-3.61,9.25c-5.5,5.5-12.41,4.42-17.33-.5-4.66-4.66-5.87-11.08-1.35-16.41-.32.27-.63.55-.94.86-6.18,6.18-5.08,13.84.33,19.25s13.07,6.51,19.24.33C294,283.74,295,279.15,293.72,274.94Z" style="opacity:0.2"></path><path d="M285.67,269.68c-.4.57-1.11.1-2-.51s-1.53-1.12-1.13-1.69,1.43-.54,2.29.07S286.08,269.11,285.67,269.68Z" style="fill:#263238"></path><path d="M285.67,269.68c-.4.57-1.11.1-2-.51s-1.53-1.12-1.13-1.69,1.43-.54,2.29.07S286.08,269.11,285.67,269.68Z" style="fill:#fff;opacity:0.30000000000000004"></path><ellipse cx="246.59" cy="386.38" rx="13.84" ry="13.37" style="fill:#407BFF"></ellipse><ellipse cx="246.59" cy="386.38" rx="13.84" ry="13.37" style="opacity:0.30000000000000004"></ellipse><path d="M253.13,376.82c-.16,1-1.41,1.42-2.86,1.2s-2.53-.94-2.37-2,1.41-1.42,2.85-1.2S253.28,375.77,253.13,376.82Z" style="fill:#fff;opacity:0.7000000000000001"></path><path d="M255.4,378.42a.91.91,0,0,1-1.8-.31.91.91,0,0,1,1.8.31Z" style="fill:#fff;opacity:0.7000000000000001"></path><path d="M254,374.75a11.27,11.27,0,0,1,4,9.1c0,7.77-5.64,11.9-12.61,11.9-6.58,0-12-3.69-12.56-10.65,0,.42-.05.84-.05,1.28,0,8.73,6.19,13.37,13.84,13.37s13.85-4.64,13.85-13.37C260.44,380.75,257.86,376.84,254,374.75Z" style="opacity:0.2"></path><path d="M244.58,376.73c.11.69-.72.86-1.76,1s-1.87.29-2-.4.63-1.39,1.66-1.56S244.46,376,244.58,376.73Z" style="fill:#263238"></path><path d="M244.58,376.73c.11.69-.72.86-1.76,1s-1.87.29-2-.4.63-1.39,1.66-1.56S244.46,376,244.58,376.73Z" style="fill:#fff;opacity:0.30000000000000004"></path><ellipse cx="281.16" cy="217.31" rx="11.37" ry="11.77" transform="translate(-71.31 262.46) rotate(-45)" style="fill:#407BFF"></ellipse><ellipse cx="281.16" cy="217.31" rx="11.37" ry="11.77" transform="translate(-71.31 262.46) rotate(-45)" style="opacity:0.30000000000000004"></ellipse><path d="M290.84,215.49c-.72.54-1.7,0-2.44-1s-1-2.09-.24-2.62,1.71,0,2.44,1S291.56,215,290.84,215.49Z" style="fill:#fff;opacity:0.7000000000000001"></path><path d="M291.24,217.82a.78.78,0,1,1,.17-1.07A.73.73,0,0,1,291.24,217.82Z" style="fill:#fff;opacity:0.7000000000000001"></path><path d="M292.59,214.77a9.56,9.56,0,0,1-3.07,7.86c-4.67,4.67-10.54,3.76-14.73-.43-4-3.95-5-9.41-1.15-13.95-.27.24-.53.47-.8.74-5.25,5.25-4.31,11.76.28,16.36s11.11,5.53,16.36.28C292.86,222.25,293.67,218.35,292.59,214.77Z" style="opacity:0.2"></path><path d="M285.75,210.3c-.35.49-.95.08-1.67-.43s-1.31-1-1-1.44,1.21-.46,1.94.06S286.09,209.82,285.75,210.3Z" style="fill:#263238"></path><path d="M285.75,210.3c-.35.49-.95.08-1.67-.43s-1.31-1-1-1.44,1.21-.46,1.94.06S286.09,209.82,285.75,210.3Z" style="fill:#fff;opacity:0.30000000000000004"></path><polygon points="240.2 221.55 240.12 228.42 243.19 230.88 248.33 229.34 249.76 223.89 245.56 219.87 240.2 221.55" style="fill:#263238"></polygon><polygon points="240.2 221.55 240.12 228.42 243.19 230.88 248.33 229.34 249.76 223.89 245.56 219.87 240.2 221.55" style="fill:#fff;opacity:0.30000000000000004"></polygon><path d="M250.77,215.89c-1.32,4.66-4.08,8-6.17,7.35s-2.7-4.84-1.37-9.5,6.17-7.35,6.17-7.35S252.1,211.24,250.77,215.89Z" style="fill:#263238"></path><path d="M250.77,215.89c-1.32,4.66-4.08,8-6.17,7.35s-2.7-4.84-1.37-9.5,6.17-7.35,6.17-7.35S252.1,211.24,250.77,215.89Z" style="fill:#fff;opacity:0.30000000000000004"></path><path d="M249.33,215.48c-1.32,4.66-3.26,7.49-4.55,7.12s-1.43-3.79-.11-8.45a11.36,11.36,0,0,1,4.37-6.48A11.32,11.32,0,0,1,249.33,215.48Z" style="opacity:0.2"></path><path d="M248.83,216.9c-.57,2-2,3.33-3.27,3s-1.78-2.25-1.21-4.25,2-3.33,3.27-3S249.4,214.9,248.83,216.9Z" style="fill:#263238"></path><path d="M248.83,216.9c-.57,2-2,3.33-3.27,3s-1.78-2.25-1.21-4.25,2-3.33,3.27-3S249.4,214.9,248.83,216.9Z" style="fill:#fff;opacity:0.5"></path><path d="M248.34,213.1a6.37,6.37,0,0,1-.24,2.49c-.57,2-1.82,3.39-2.8,3.11-.79-.23-1.15-1.45-1-2.95-.51,1.95,0,3.78,1.24,4.12s2.7-1,3.27-3A4.15,4.15,0,0,0,248.34,213.1Z" style="fill:#263238"></path><path d="M248.34,213.1a6.37,6.37,0,0,1-.24,2.49c-.57,2-1.82,3.39-2.8,3.11-.79-.23-1.15-1.45-1-2.95-.51,1.95,0,3.78,1.24,4.12s2.7-1,3.27-3A4.15,4.15,0,0,0,248.34,213.1Z" style="fill:#fff;opacity:0.30000000000000004"></path><path d="M238.37,234.57c1.23-4.31,3.78-7.35,5.71-6.8s2.5,4.48,1.27,8.78-5.71,6.81-5.71,6.81S237.14,238.87,238.37,234.57Z" style="fill:#263238"></path><path d="M238.37,234.57c1.23-4.31,3.78-7.35,5.71-6.8s2.5,4.48,1.27,8.78-5.71,6.81-5.71,6.81S237.14,238.87,238.37,234.57Z" style="fill:#fff;opacity:0.30000000000000004"></path><path d="M239.71,235c1.22-4.31,3-6.93,4.2-6.59s1.33,3.51.1,7.81a10.46,10.46,0,0,1-4,6A10.46,10.46,0,0,1,239.71,235Z" style="opacity:0.2"></path><path d="M240.17,233.64c.52-1.85,1.88-3.08,3-2.76s1.65,2.09,1.12,3.94-1.88,3.07-3,2.75S239.64,235.48,240.17,233.64Z" style="fill:#263238"></path><path d="M240.17,233.64c.52-1.85,1.88-3.08,3-2.76s1.65,2.09,1.12,3.94-1.88,3.07-3,2.75S239.64,235.48,240.17,233.64Z" style="fill:#fff;opacity:0.5"></path><path d="M240.62,237.14a5.88,5.88,0,0,1,.22-2.29c.53-1.85,1.69-3.14,2.6-2.88.72.21,1.06,1.34.9,2.72.47-1.8,0-3.49-1.15-3.81s-2.5.91-3,2.76A3.79,3.79,0,0,0,240.62,237.14Z" style="fill:#263238"></path><path d="M240.62,237.14a5.88,5.88,0,0,1,.22-2.29c.53-1.85,1.69-3.14,2.6-2.88.72.21,1.06,1.34.9,2.72.47-1.8,0-3.49-1.15-3.81s-2.5.91-3,2.76A3.79,3.79,0,0,0,240.62,237.14Z" style="fill:#fff;opacity:0.30000000000000004"></path><path d="M255.82,226.41c-4.69,1.18-8.93.44-9.46-1.66s2.85-4.77,7.55-5.94,9.45,1.66,9.45,1.66S260.51,225.24,255.82,226.41Z" style="fill:#263238"></path><path d="M255.82,226.41c-4.69,1.18-8.93.44-9.46-1.66s2.85-4.77,7.55-5.94,9.45,1.66,9.45,1.66S260.51,225.24,255.82,226.41Z" style="fill:#fff;opacity:0.30000000000000004"></path><path d="M255.45,225c-4.69,1.18-8.11.92-8.44-.38s2.57-3.14,7.26-4.32a11.33,11.33,0,0,1,7.8.54A11.33,11.33,0,0,1,255.45,225Z" style="opacity:0.2"></path><path d="M254,225.24c-2,.5-3.9-.1-4.22-1.35s1.07-2.67,3.08-3.17,3.9.09,4.21,1.34S256,224.73,254,225.24Z" style="fill:#263238"></path><path d="M254,225.24c-2,.5-3.9-.1-4.22-1.35s1.07-2.67,3.08-3.17,3.9.09,4.21,1.34S256,224.73,254,225.24Z" style="fill:#fff;opacity:0.5"></path><path d="M257,222.91a6.28,6.28,0,0,1-2.27,1c-2,.5-3.85.11-4.1-.88-.2-.79.68-1.72,2.06-2.32-1.94.54-3.25,1.92-3,3.14s2.2,1.85,4.22,1.35A4.16,4.16,0,0,0,257,222.91Z" style="fill:#263238"></path><path d="M257,222.91a6.28,6.28,0,0,1-2.27,1c-2,.5-3.85.11-4.1-.88-.2-.79.68-1.72,2.06-2.32-1.94.54-3.25,1.92-3,3.14s2.2,1.85,4.22,1.35A4.16,4.16,0,0,0,257,222.91Z" style="fill:#fff;opacity:0.30000000000000004"></path><path d="M234.11,224.91c4.34-1.09,8.26-.39,8.75,1.55s-2.64,4.4-7,5.49-8.75-1.54-8.75-1.54S229.77,226,234.11,224.91Z" style="fill:#263238"></path><path d="M234.11,224.91c4.34-1.09,8.26-.39,8.75,1.55s-2.64,4.4-7,5.49-8.75-1.54-8.75-1.54S229.77,226,234.11,224.91Z" style="fill:#fff;opacity:0.30000000000000004"></path><path d="M234.45,226.26c4.34-1.09,7.51-.85,7.81.35s-2.38,2.91-6.72,4a10.48,10.48,0,0,1-7.21-.5A10.49,10.49,0,0,1,234.45,226.26Z" style="opacity:0.2"></path><path d="M235.82,226c1.86-.47,3.6.08,3.89,1.24s-1,2.47-2.84,2.94-3.61-.09-3.9-1.25S234,226.47,235.82,226Z" style="fill:#263238"></path><path d="M235.82,226c1.86-.47,3.6.08,3.89,1.24s-1,2.47-2.84,2.94-3.61-.09-3.9-1.25S234,226.47,235.82,226Z" style="fill:#fff;opacity:0.5"></path><path d="M233,228.15a6.1,6.1,0,0,1,2.1-1c1.87-.46,3.56-.1,3.79.81.18.73-.62,1.6-1.9,2.15,1.79-.49,3-1.77,2.72-2.9s-2-1.71-3.89-1.24A3.83,3.83,0,0,0,233,228.15Z" style="fill:#263238"></path><path d="M233,228.15a6.1,6.1,0,0,1,2.1-1c1.87-.46,3.56-.1,3.79.81.18.73-.62,1.6-1.9,2.15,1.79-.49,3-1.77,2.72-2.9s-2-1.71-3.89-1.24A3.83,3.83,0,0,0,233,228.15Z" style="fill:#fff;opacity:0.30000000000000004"></path><path d="M233.72,220.51c3.37,3.47,7.36,5.07,8.92,3.56s.09-5.55-3.28-9-8.92-3.57-8.92-3.57S230.36,217,233.72,220.51Z" style="fill:#263238"></path><path d="M233.72,220.51c3.37,3.47,7.36,5.07,8.92,3.56s.09-5.55-3.28-9-8.92-3.57-8.92-3.57S230.36,217,233.72,220.51Z" style="fill:#fff;opacity:0.30000000000000004"></path><path d="M234.8,219.46c3.37,3.48,6.42,5.06,7.38,4.13s-.53-4-3.9-7.5a11.31,11.31,0,0,0-6.91-3.65A11.31,11.31,0,0,0,234.8,219.46Z" style="opacity:0.2"></path><path d="M235.91,220.48c1.45,1.49,3.37,2,4.29,1.07s.5-2.83-.94-4.32-3.37-2-4.29-1.08S234.47,219,235.91,220.48Z" style="fill:#263238"></path><path d="M235.91,220.48c1.45,1.49,3.37,2,4.29,1.07s.5-2.83-.94-4.32-3.37-2-4.29-1.08S234.47,219,235.91,220.48Z" style="fill:#fff;opacity:0.5"></path><path d="M234.55,216.9a6.41,6.41,0,0,0,1.39,2.08c1.44,1.49,3.2,2.12,3.94,1.41.58-.57.33-1.82-.53-3.06,1.37,1.48,1.75,3.35.85,4.22s-2.84.42-4.29-1.07A4.14,4.14,0,0,1,234.55,216.9Z" style="fill:#263238"></path><path d="M234.55,216.9a6.41,6.41,0,0,0,1.39,2.08c1.44,1.49,3.2,2.12,3.94,1.41.58-.57.33-1.82-.53-3.06,1.37,1.48,1.75,3.35.85,4.22s-2.84.42-4.29-1.07A4.14,4.14,0,0,1,234.55,216.9Z" style="fill:#fff;opacity:0.30000000000000004"></path><path d="M254.32,230.3c-3.12-3.21-6.81-4.69-8.25-3.29s-.08,5.13,3,8.34,8.24,3.3,8.24,3.3S257.43,233.52,254.32,230.3Z" style="fill:#263238"></path><path d="M254.32,230.3c-3.12-3.21-6.81-4.69-8.25-3.29s-.08,5.13,3,8.34,8.24,3.3,8.24,3.3S257.43,233.52,254.32,230.3Z" style="fill:#fff;opacity:0.30000000000000004"></path><path d="M253.32,231.27c-3.11-3.21-5.93-4.68-6.82-3.82s.49,3.72,3.6,6.94a10.5,10.5,0,0,0,6.39,3.37A10.42,10.42,0,0,0,253.32,231.27Z" style="opacity:0.2"></path><path d="M252.3,230.33c-1.34-1.37-3.12-1.82-4-1s-.47,2.61.87,4,3.11,1.83,4,1S253.63,231.71,252.3,230.33Z" style="fill:#263238"></path><path d="M252.3,230.33c-1.34-1.37-3.12-1.82-4-1s-.47,2.61.87,4,3.11,1.83,4,1S253.63,231.71,252.3,230.33Z" style="fill:#fff;opacity:0.5"></path><path d="M253.55,233.64a5.65,5.65,0,0,0-1.28-1.92c-1.33-1.38-3-2-3.64-1.31s-.31,1.68.49,2.83c-1.27-1.36-1.63-3.09-.79-3.9s2.63-.38,4,1A3.84,3.84,0,0,1,253.55,233.64Z" style="fill:#263238"></path><path d="M253.55,233.64a5.65,5.65,0,0,0-1.28-1.92c-1.33-1.38-3-2-3.64-1.31s-.31,1.68.49,2.83c-1.27-1.36-1.63-3.09-.79-3.9s2.63-.38,4,1A3.84,3.84,0,0,1,253.55,233.64Z" style="fill:#fff;opacity:0.30000000000000004"></path><polygon points="273.68 307.39 273.6 314.26 276.67 316.72 281.81 315.18 283.24 309.73 279.04 305.71 273.68 307.39" style="fill:#263238"></polygon><polygon points="273.68 307.39 273.6 314.26 276.67 316.72 281.81 315.18 283.24 309.73 279.04 305.71 273.68 307.39" style="fill:#fff;opacity:0.30000000000000004"></polygon><path d="M284.25,301.73c-1.33,4.65-4.09,7.95-6.17,7.35s-2.7-4.84-1.38-9.5,6.18-7.35,6.18-7.35S285.58,297.07,284.25,301.73Z" style="fill:#263238"></path><path d="M284.25,301.73c-1.33,4.65-4.09,7.95-6.17,7.35s-2.7-4.84-1.38-9.5,6.18-7.35,6.18-7.35S285.58,297.07,284.25,301.73Z" style="fill:#fff;opacity:0.30000000000000004"></path><path d="M282.81,301.32c-1.33,4.65-3.26,7.49-4.55,7.12s-1.44-3.79-.11-8.45a11.32,11.32,0,0,1,4.36-6.48A11.35,11.35,0,0,1,282.81,301.32Z" style="opacity:0.2"></path><path d="M282.31,302.74c-.57,2-2,3.32-3.27,3s-1.78-2.25-1.21-4.25,2-3.33,3.27-3S282.88,300.74,282.31,302.74Z" style="fill:#263238"></path><path d="M282.31,302.74c-.57,2-2,3.32-3.27,3s-1.78-2.25-1.21-4.25,2-3.33,3.27-3S282.88,300.74,282.31,302.74Z" style="fill:#fff;opacity:0.5"></path><path d="M281.82,298.94a6.37,6.37,0,0,1-.24,2.49c-.57,2-1.83,3.38-2.81,3.1-.78-.22-1.15-1.44-1-2.94-.51,2,0,3.78,1.25,4.12s2.7-1,3.27-3A4.15,4.15,0,0,0,281.82,298.94Z" style="fill:#263238"></path><path d="M281.82,298.94a6.37,6.37,0,0,1-.24,2.49c-.57,2-1.83,3.38-2.81,3.1-.78-.22-1.15-1.44-1-2.94-.51,2,0,3.78,1.25,4.12s2.7-1,3.27-3A4.15,4.15,0,0,0,281.82,298.94Z" style="fill:#fff;opacity:0.30000000000000004"></path><path d="M271.85,320.4c1.22-4.3,3.78-7.35,5.71-6.8s2.49,4.49,1.26,8.79-5.7,6.8-5.7,6.8S270.62,324.71,271.85,320.4Z" style="fill:#263238"></path><path d="M271.85,320.4c1.22-4.3,3.78-7.35,5.71-6.8s2.49,4.49,1.26,8.79-5.7,6.8-5.7,6.8S270.62,324.71,271.85,320.4Z" style="fill:#fff;opacity:0.30000000000000004"></path><path d="M273.18,320.78c1.23-4.3,3-6.92,4.21-6.58s1.33,3.51.1,7.81a10.5,10.5,0,0,1-4,6A10.49,10.49,0,0,1,273.18,320.78Z" style="opacity:0.2"></path><path d="M273.64,319.47c.53-1.84,1.88-3.07,3-2.75s1.64,2.09,1.12,3.93-1.88,3.08-3,2.76S273.12,321.32,273.64,319.47Z" style="fill:#263238"></path><path d="M273.64,319.47c.53-1.84,1.88-3.07,3-2.75s1.64,2.09,1.12,3.93-1.88,3.08-3,2.76S273.12,321.32,273.64,319.47Z" style="fill:#fff;opacity:0.5"></path><path d="M274.1,323a5.76,5.76,0,0,1,.22-2.3c.52-1.84,1.68-3.13,2.59-2.87.73.21,1.07,1.34.91,2.72.47-1.8,0-3.49-1.15-3.81s-2.5.91-3,2.75A3.83,3.83,0,0,0,274.1,323Z" style="fill:#263238"></path><path d="M274.1,323a5.76,5.76,0,0,1,.22-2.3c.52-1.84,1.68-3.13,2.59-2.87.73.21,1.07,1.34.91,2.72.47-1.8,0-3.49-1.15-3.81s-2.5.91-3,2.75A3.83,3.83,0,0,0,274.1,323Z" style="fill:#fff;opacity:0.30000000000000004"></path><path d="M289.3,312.25c-4.7,1.18-8.93.43-9.46-1.67s2.85-4.76,7.54-5.94,9.46,1.67,9.46,1.67S294,311.07,289.3,312.25Z" style="fill:#263238"></path><path d="M289.3,312.25c-4.7,1.18-8.93.43-9.46-1.67s2.85-4.76,7.54-5.94,9.46,1.67,9.46,1.67S294,311.07,289.3,312.25Z" style="fill:#fff;opacity:0.30000000000000004"></path><path d="M288.93,310.8c-4.69,1.18-8.12.92-8.44-.38s2.57-3.14,7.26-4.32a11.31,11.31,0,0,1,7.79.54A11.33,11.33,0,0,1,288.93,310.8Z" style="opacity:0.2"></path><path d="M287.45,311.07c-2,.51-3.9-.09-4.21-1.34s1.06-2.67,3.08-3.18,3.9.1,4.21,1.35S289.47,310.57,287.45,311.07Z" style="fill:#263238"></path><path d="M287.45,311.07c-2,.51-3.9-.09-4.21-1.34s1.06-2.67,3.08-3.18,3.9.1,4.21,1.35S289.47,310.57,287.45,311.07Z" style="fill:#fff;opacity:0.5"></path><path d="M290.49,308.75a6.28,6.28,0,0,1-2.27,1c-2,.5-3.84.11-4.09-.88-.2-.79.67-1.72,2.06-2.32-1.94.53-3.26,1.92-2.95,3.14s2.2,1.85,4.21,1.34A4.11,4.11,0,0,0,290.49,308.75Z" style="fill:#263238"></path><path d="M290.49,308.75a6.28,6.28,0,0,1-2.27,1c-2,.5-3.84.11-4.09-.88-.2-.79.67-1.72,2.06-2.32-1.94.53-3.26,1.92-2.95,3.14s2.2,1.85,4.21,1.34A4.11,4.11,0,0,0,290.49,308.75Z" style="fill:#fff;opacity:0.30000000000000004"></path><path d="M267.59,310.75c4.34-1.09,8.25-.4,8.74,1.55s-2.63,4.4-7,5.49-8.75-1.54-8.75-1.54S263.25,311.84,267.59,310.75Z" style="fill:#263238"></path><path d="M267.59,310.75c4.34-1.09,8.25-.4,8.74,1.55s-2.63,4.4-7,5.49-8.75-1.54-8.75-1.54S263.25,311.84,267.59,310.75Z" style="fill:#fff;opacity:0.30000000000000004"></path><path d="M267.93,312.1c4.34-1.09,7.5-.85,7.8.35s-2.37,2.9-6.71,4a10.48,10.48,0,0,1-7.21-.5A10.44,10.44,0,0,1,267.93,312.1Z" style="opacity:0.2"></path><path d="M269.29,311.84c1.86-.46,3.61.09,3.9,1.25s-1,2.47-2.85,2.93-3.6-.09-3.89-1.24S267.43,312.31,269.29,311.84Z" style="fill:#263238"></path><path d="M269.29,311.84c1.86-.46,3.61.09,3.9,1.25s-1,2.47-2.85,2.93-3.6-.09-3.89-1.24S267.43,312.31,269.29,311.84Z" style="fill:#fff;opacity:0.5"></path><path d="M266.48,314a5.92,5.92,0,0,1,2.1-1c1.86-.46,3.56-.1,3.79.81.18.73-.63,1.59-1.91,2.15,1.8-.49,3-1.77,2.73-2.9s-2-1.71-3.9-1.25A3.84,3.84,0,0,0,266.48,314Z" style="fill:#263238"></path><path d="M266.48,314a5.92,5.92,0,0,1,2.1-1c1.86-.46,3.56-.1,3.79.81.18.73-.63,1.59-1.91,2.15,1.8-.49,3-1.77,2.73-2.9s-2-1.71-3.9-1.25A3.84,3.84,0,0,0,266.48,314Z" style="fill:#fff;opacity:0.30000000000000004"></path><path d="M267.2,306.34c3.37,3.48,7.36,5.08,8.92,3.57s.08-5.55-3.29-9-8.91-3.56-8.91-3.56S263.83,302.87,267.2,306.34Z" style="fill:#263238"></path><path d="M267.2,306.34c3.37,3.48,7.36,5.08,8.92,3.57s.08-5.55-3.29-9-8.91-3.56-8.91-3.56S263.83,302.87,267.2,306.34Z" style="fill:#fff;opacity:0.30000000000000004"></path><path d="M268.28,305.3c3.37,3.48,6.41,5.06,7.37,4.13s-.52-4-3.89-7.5a11.31,11.31,0,0,0-6.91-3.65A11.33,11.33,0,0,0,268.28,305.3Z" style="opacity:0.2"></path><path d="M269.39,306.31c1.44,1.49,3.36,2,4.29,1.08s.5-2.83-.95-4.32-3.36-2-4.28-1.08S267.94,304.82,269.39,306.31Z" style="fill:#263238"></path><path d="M269.39,306.31c1.44,1.49,3.36,2,4.29,1.08s.5-2.83-.95-4.32-3.36-2-4.28-1.08S267.94,304.82,269.39,306.31Z" style="fill:#fff;opacity:0.5"></path><path d="M268,302.74a6.37,6.37,0,0,0,1.38,2.08c1.45,1.49,3.21,2.12,3.94,1.41s.34-1.82-.52-3.06c1.36,1.48,1.75,3.34.85,4.22s-2.85.41-4.29-1.08A4.11,4.11,0,0,1,268,302.74Z" style="fill:#263238"></path><path d="M268,302.74a6.37,6.37,0,0,0,1.38,2.08c1.45,1.49,3.21,2.12,3.94,1.41s.34-1.82-.52-3.06c1.36,1.48,1.75,3.34.85,4.22s-2.85.41-4.29-1.08A4.11,4.11,0,0,1,268,302.74Z" style="fill:#fff;opacity:0.30000000000000004"></path><path d="M287.79,316.14c-3.11-3.21-6.8-4.69-8.24-3.29s-.08,5.13,3,8.34,8.25,3.3,8.25,3.3S290.91,319.36,287.79,316.14Z" style="fill:#263238"></path><path d="M287.79,316.14c-3.11-3.21-6.8-4.69-8.24-3.29s-.08,5.13,3,8.34,8.25,3.3,8.25,3.3S290.91,319.36,287.79,316.14Z" style="fill:#fff;opacity:0.30000000000000004"></path><path d="M286.8,317.11c-3.12-3.22-5.93-4.68-6.82-3.82s.48,3.72,3.6,6.94A10.5,10.5,0,0,0,290,323.6,10.49,10.49,0,0,0,286.8,317.11Z" style="opacity:0.2"></path><path d="M285.77,316.17c-1.34-1.38-3.11-1.82-4-1s-.46,2.61.88,4,3.11,1.83,4,1S287.11,317.55,285.77,316.17Z" style="fill:#263238"></path><path d="M285.77,316.17c-1.34-1.38-3.11-1.82-4-1s-.46,2.61.88,4,3.11,1.83,4,1S287.11,317.55,285.77,316.17Z" style="fill:#fff;opacity:0.5"></path><path d="M287,319.48a6,6,0,0,0-1.28-1.92c-1.34-1.38-3-2-3.65-1.31s-.3,1.68.49,2.83c-1.26-1.37-1.62-3.09-.79-3.9s2.63-.39,4,1A3.81,3.81,0,0,1,287,319.48Z" style="fill:#263238"></path><path d="M287,319.48a6,6,0,0,0-1.28-1.92c-1.34-1.38-3-2-3.65-1.31s-.3,1.68.49,2.83c-1.26-1.37-1.62-3.09-.79-3.9s2.63-.39,4,1A3.81,3.81,0,0,1,287,319.48Z" style="fill:#fff;opacity:0.30000000000000004"></path><path d="M227.3,226.38c0,2.15-2,3.89-4.53,3.89s-4.52-1.74-4.52-3.89,4.52-4.4,4.52-4.4S227.3,224.22,227.3,226.38Z" style="fill:#263238"></path><path d="M227.3,226.38c0,2.15-2,3.89-4.53,3.89s-4.52-1.74-4.52-3.89,4.52-4.4,4.52-4.4S227.3,224.22,227.3,226.38Z" style="fill:#fff;opacity:0.2"></path><path d="M222.77,230.27a4.39,4.39,0,0,0,4.47-3.26,7.11,7.11,0,0,0-3.05,1.91s-1-1.81-1.73-1.81S221,228.5,221,228.5a6.51,6.51,0,0,0-2.68-1.31A4.42,4.42,0,0,0,222.77,230.27Z" style="opacity:0.2"></path><path d="M224.73,231.62s4.36-3,3.56-3.92-4.15,2.22-4.15,2.22-.73-2.24-1.6-2.22-1.3,2-1.3,2-3.16-2.81-3.85-2,3.56,3.92,3.56,3.92l.52,11a1.79,1.79,0,0,0,1.78,1.69h.35a1.77,1.77,0,0,0,1.77-1.83Z" style="fill:#263238"></path><path d="M224.73,231.62s4.36-3,3.56-3.92-4.15,2.22-4.15,2.22-.73-2.24-1.6-2.22-1.3,2-1.3,2-3.16-2.81-3.85-2,3.56,3.92,3.56,3.92l.52,11a1.79,1.79,0,0,0,1.78,1.69h.35a1.77,1.77,0,0,0,1.77-1.83Z" style="fill:#fff;opacity:0.4"></path><path d="M228.29,227.7a.68.68,0,0,0-.7-.12c-.31.84-1.25,2.19-4,3.63l-.29,4.77.79-.79-.22,6.24.65-.72s1.08,3.16-1.62,3.56a2.21,2.21,0,0,0,.37,0h.35a1.77,1.77,0,0,0,1.77-1.83l-.64-10.86S229.09,228.58,228.29,227.7Z" style="opacity:0.2"></path><path d="M217.39,227.7a.34.34,0,0,0-.09.19c1-.34,3.61,2.4,3.61,2.4l.33-.61S218.08,226.87,217.39,227.7Z" style="opacity:0.2"></path><path d="M304.17,271.55c-1.52-1.52-1.32-4.19.45-5.95s4.43-2,5.95-.45-.08,6.31-.08,6.31S305.7,273.07,304.17,271.55Z" style="fill:#263238"></path><path d="M304.17,271.55c-1.52-1.52-1.32-4.19.45-5.95s4.43-2,5.95-.45-.08,6.31-.08,6.31S305.7,273.07,304.17,271.55Z" style="fill:#fff;opacity:0.2"></path><path d="M304.62,265.6a4.37,4.37,0,0,0-.85,5.46,7.14,7.14,0,0,0,.81-3.51s2,.61,2.5.07,0-2,0-2a6.29,6.29,0,0,0,2.81-1A4.4,4.4,0,0,0,304.62,265.6Z" style="opacity:0.2"></path><path d="M302.28,266s-.93,5.23.26,5.29,1.37-4.51,1.37-4.51,2.09,1.07,2.69.44-.47-2.32-.47-2.32,4.21-.24,4.12-1.32c-.11-1.23-5.29-.26-5.29-.26l-8.15-7.4a1.77,1.77,0,0,0-2.45.06l-.25.24a1.79,1.79,0,0,0,0,2.56Z" style="fill:#263238"></path><path d="M302.28,266s-.93,5.23.26,5.29,1.37-4.51,1.37-4.51,2.09,1.07,2.69.44-.47-2.32-.47-2.32,4.21-.24,4.12-1.32c-.11-1.23-5.29-.26-5.29-.26l-8.15-7.4a1.77,1.77,0,0,0-2.45.06l-.25.24a1.79,1.79,0,0,0,0,2.56Z" style="fill:#fff;opacity:0.4"></path><path d="M302.54,271.32c.22,0,.41-.15.57-.42-.37-.81-.65-2.42.29-5.4l-3.17-3.58V263L296,258.47l.06,1s-3-1.47-1.37-3.67a2.17,2.17,0,0,0-.29.24l-.25.24a1.79,1.79,0,0,0,0,2.56l8.13,7.22S301.35,271.26,302.54,271.32Z" style="opacity:0.2"></path><path d="M310.25,263.61a.43.43,0,0,0-.07-.2c-.49,1-4.25.85-4.25.85l.2.67S310.34,264.69,310.25,263.61Z" style="opacity:0.2"></path><path d="M295,375.79c-1.52,1.52-4.19,1.33-6-.44s-2-4.43-.44-6,6.31.09,6.31.09S296.55,374.27,295,375.79Z" style="fill:#263238"></path><path d="M295,375.79c-1.52,1.52-4.19,1.33-6-.44s-2-4.43-.44-6,6.31.09,6.31.09S296.55,374.27,295,375.79Z" style="fill:#fff;opacity:0.2"></path><path d="M289.07,375.35a4.38,4.38,0,0,0,5.47.84,7.19,7.19,0,0,0-3.51-.8s.6-2,.06-2.5-2,0-2,0a6.46,6.46,0,0,0-1-2.82A4.44,4.44,0,0,0,289.07,375.35Z" style="opacity:0.2"></path><path d="M289.51,377.68s5.22.93,5.29-.25-4.51-1.37-4.51-1.37,1.06-2.1.44-2.7-2.32.48-2.32.48-.25-4.21-1.32-4.12c-1.23.1-.26,5.29-.26,5.29l-7.4,8.15a1.77,1.77,0,0,0,.05,2.45l.25.25a1.78,1.78,0,0,0,2.55-.05Z" style="fill:#263238"></path><path d="M289.51,377.68s5.22.93,5.29-.25-4.51-1.37-4.51-1.37,1.06-2.1.44-2.7-2.32.48-2.32.48-.25-4.21-1.32-4.12c-1.23.1-.26,5.29-.26,5.29l-7.4,8.15a1.77,1.77,0,0,0,.05,2.45l.25.25a1.78,1.78,0,0,0,2.55-.05Z" style="fill:#fff;opacity:0.4"></path><path d="M294.8,377.43c0-.23-.15-.42-.42-.58-.81.38-2.43.66-5.41-.28l-3.57,3.17h1.11L281.94,384l1-.05s-1.46,3-3.66,1.37a2.09,2.09,0,0,0,.23.29l.25.25a1.78,1.78,0,0,0,2.55-.05l7.23-8.13S294.73,378.61,294.8,377.43Z" style="opacity:0.2"></path><path d="M287.09,369.72a.43.43,0,0,0-.2.07c1,.49.85,4.25.85,4.25l.67-.2S288.16,369.63,287.09,369.72Z" style="opacity:0.2"></path><path d="M243,274.41c1.52,1.52,1.32,4.19-.44,5.95s-4.44,2-6,.45.09-6.31.09-6.31S241.43,272.89,243,274.41Z" style="fill:#263238"></path><path d="M243,274.41c1.52,1.52,1.32,4.19-.44,5.95s-4.44,2-6,.45.09-6.31.09-6.31S241.43,272.89,243,274.41Z" style="fill:#fff;opacity:0.2"></path><path d="M242.51,280.36a4.37,4.37,0,0,0,.84-5.46,7,7,0,0,0-.8,3.51s-2-.61-2.5-.06,0,2,0,2a6.46,6.46,0,0,0-2.81,1A4.43,4.43,0,0,0,242.51,280.36Z" style="opacity:0.2"></path><path d="M244.84,279.93s.93-5.22-.25-5.29-1.37,4.51-1.37,4.51-2.1-1.06-2.7-.44S241,281,241,281s-4.22.25-4.12,1.32c.1,1.23,5.29.26,5.29.26l8.15,7.4a1.76,1.76,0,0,0,2.44-.05l.25-.25a1.78,1.78,0,0,0,0-2.55Z" style="fill:#263238"></path><path d="M244.84,279.93s.93-5.22-.25-5.29-1.37,4.51-1.37,4.51-2.1-1.06-2.7-.44S241,281,241,281s-4.22.25-4.12,1.32c.1,1.23,5.29.26,5.29.26l8.15,7.4a1.76,1.76,0,0,0,2.44-.05l.25-.25a1.78,1.78,0,0,0,0-2.55Z" style="fill:#fff;opacity:0.4"></path><path d="M244.59,274.64c-.23,0-.42.15-.58.42.37.81.66,2.43-.28,5.41L246.9,284v-1.11l4.26,4.57,0-1s3,1.46,1.37,3.66a1.56,1.56,0,0,0,.28-.23l.25-.25a1.78,1.78,0,0,0,0-2.55l-8.13-7.23S245.77,274.71,244.59,274.64Z" style="opacity:0.2"></path><path d="M236.88,282.35a.35.35,0,0,0,.07.2c.49-1,4.25-.85,4.25-.85L241,281S236.78,281.28,236.88,282.35Z" style="opacity:0.2"></path></g><g id="freepik--Cinnamon--inject-280"><path d="M123.67,202.13c-.81-1.16.06-3.5,2-5.19s4.1-2.09,4.86-.95q-23.16-35.33-44.28-71.89s-1.89-.67-7,1.57-3.43,5.2-3.43,5.2q22.57,36.24,47.1,71.18Z" style="fill:#263238"></path><g style="opacity:0.1"><path d="M123.67,202.13c-.81-1.16.06-3.5,2-5.19s4.1-2.09,4.86-.95q-23.16-35.33-44.28-71.89s-1.89-.67-7,1.57-3.43,5.2-3.43,5.2q22.57,36.24,47.1,71.18Z" style="fill:#fff"></path></g><path d="M81.31,130.4c2.76-1.27,4.48-3.19,3.83-4.31-.47-.79-2.47-.74-4.46.14s-3.2,2.25-2.71,3.06c.29.47,1.46.43,2.61-.1s1.87-1.32,1.59-1.79l-1.24.55c.11.2-.18.53-.65.74s-1,.23-1.07,0c-.32-.53.47-1.43,1.77-2s2.61-.61,2.91-.09c.5.85-.8,2.3-2.89,3.25s-4.21,1.05-4.75.19c-.74-1.2,1.06-3.26,4-4.55s5.93-1.36,6.61-.19l1.24-.54c-.82-1.44-4.48-1.36-8.14.22s-5.87,4.14-5,5.62C75.73,131.79,78.55,131.67,81.31,130.4Z" style="fill:#263238"></path><g style="opacity:0.5"><path d="M81.31,130.4c2.76-1.27,4.48-3.19,3.83-4.31-.47-.79-2.47-.74-4.46.14s-3.2,2.25-2.71,3.06c.29.47,1.46.43,2.61-.1s1.87-1.32,1.59-1.79l-1.24.55c.11.2-.18.53-.65.74s-1,.23-1.07,0c-.32-.53.47-1.43,1.77-2s2.61-.61,2.91-.09c.5.85-.8,2.3-2.89,3.25s-4.21,1.05-4.75.19c-.74-1.2,1.06-3.26,4-4.55s5.93-1.36,6.61-.19l1.24-.54c-.82-1.44-4.48-1.36-8.14.22s-5.87,4.14-5,5.62C75.73,131.79,78.55,131.67,81.31,130.4Z" style="fill:#fff"></path></g><path d="M86.87,125.34l1.24-.54q20.6,35.85,43.15,70.51l-.8.7Q107.67,161.29,86.87,125.34Z" style="fill:#263238"></path><g style="opacity:0.30000000000000004"><path d="M86.87,125.34l1.24-.54q20.6,35.85,43.15,70.51l-.8.7Q107.67,161.29,86.87,125.34Z" style="fill:#fff"></path></g><path d="M122.92,202.81c.77,1.1,2.81.66,4.55-1s2.6-3.78,1.88-4.87q-23.1-34.83-44.21-70.89c.65,1.12-1.07,3-3.83,4.31s-5.58,1.39-6.29.24Q98,167.41,122.92,202.81Z" style="fill:#263238"></path><path d="M122.92,202.81c.77,1.1,2.81.66,4.55-1s2.6-3.78,1.88-4.87q-23.1-34.83-44.21-70.89c.65,1.12-1.07,3-3.83,4.31s-5.58,1.39-6.29.24Q98,167.41,122.92,202.81Z" style="fill:#fff;opacity:0.30000000000000004"></path><path d="M122.92,202.81Q98,167.4,75,130.64c.62,1,2.84,1,5.23.19l5.64,7.09-1.27.3q17.13,27,35.25,53.4l-1.2.44q4,5.19,8.1,10.37C125.22,203.56,123.59,203.77,122.92,202.81Z" style="fill:#263238"></path><path d="M122.92,202.81Q98,167.4,75,130.64c.62,1,2.84,1,5.23.19l5.64,7.09-1.27.3q17.13,27,35.25,53.4l-1.2.44q4,5.19,8.1,10.37C125.22,203.56,123.59,203.77,122.92,202.81Z" style="fill:#fff;opacity:0.2"></path><path d="M109.09,205.55c.1-1.42,2.25-2.69,4.8-2.8s4.5.94,4.37,2.3q4.14-42,10.66-83.76s-1-1.71-6.44-3.18-5.94,1.9-5.94,1.9q-5.17,42.37-8,85Z" style="fill:#263238"></path><g style="opacity:0.1"><path d="M109.09,205.55c.1-1.42,2.25-2.69,4.8-2.8s4.5.94,4.37,2.3q4.14-42,10.66-83.76s-1-1.71-6.44-3.18-5.94,1.9-5.94,1.9q-5.17,42.37-8,85Z" style="fill:#fff"></path></g><path d="M121.14,123.11c3,.75,5.49.34,5.69-1,.13-.9-1.46-2.12-3.56-2.69s-3.91-.25-4,.68c-.07.55.87,1.25,2.09,1.57s2.28.14,2.36-.4l-1.31-.35c0,.22-.47.3-1,.17s-.89-.42-.86-.65c.09-.61,1.27-.81,2.64-.44s2.41,1.16,2.32,1.76c-.14,1-2.06,1.29-4.29.72s-3.94-1.83-3.81-2.84c.18-1.4,2.86-1.88,6-1s5.46,2.66,5.26,4l1.3.37c.27-1.64-2.63-3.88-6.48-4.94s-7.16-.47-7.38,1.27C115.93,120.7,118.2,122.37,121.14,123.11Z" style="fill:#263238"></path><g style="opacity:0.5"><path d="M121.14,123.11c3,.75,5.49.34,5.69-1,.13-.9-1.46-2.12-3.56-2.69s-3.91-.25-4,.68c-.07.55.87,1.25,2.09,1.57s2.28.14,2.36-.4l-1.31-.35c0,.22-.47.3-1,.17s-.89-.42-.86-.65c.09-.61,1.27-.81,2.64-.44s2.41,1.16,2.32,1.76c-.14,1-2.06,1.29-4.29.72s-3.94-1.83-3.81-2.84c.18-1.4,2.86-1.88,6-1s5.46,2.66,5.26,4l1.3.37c.27-1.64-2.63-3.88-6.48-4.94s-7.16-.47-7.38,1.27C115.93,120.7,118.2,122.37,121.14,123.11Z" style="fill:#fff"></path></g><path d="M128.65,122.66l1.3.37q-6.46,40.83-10.67,82l-1.06,0Q122.29,163.7,128.65,122.66Z" style="fill:#263238"></path><g style="opacity:0.30000000000000004"><path d="M128.65,122.66l1.3.37q-6.46,40.83-10.67,82l-1.06,0Q122.29,163.7,128.65,122.66Z" style="fill:#fff"></path></g><path d="M108.08,205.61c-.08,1.34,1.78,2.27,4.15,2.11s4.4-1.32,4.51-2.62q3.9-41.61,10.09-82.94c-.2,1.29-2.74,1.7-5.69,1s-5.21-2.41-5-3.75Q110.89,162.37,108.08,205.61Z" style="fill:#263238"></path><path d="M108.08,205.61c-.08,1.34,1.78,2.27,4.15,2.11s4.4-1.32,4.51-2.62q3.9-41.61,10.09-82.94c-.2,1.29-2.74,1.7-5.69,1s-5.21-2.41-5-3.75Q110.89,162.37,108.08,205.61Z" style="fill:#fff;opacity:0.4"></path><path d="M108.08,205.61q2.81-43.24,8-86.25c-.14,1.17,1.57,2.59,4,3.42,0,3.64,0,5.45-.05,9.06l-1.18-.56q-3.65,31.8-6.08,63.7l-1.21-.42q-.1,6.58-.2,13.16C109.4,207.63,108,206.77,108.08,205.61Z" style="fill:#263238"></path><path d="M108.08,205.61q2.81-43.24,8-86.25c-.14,1.17,1.57,2.59,4,3.42,0,3.64,0,5.45-.05,9.06l-1.18-.56q-3.65,31.8-6.08,63.7l-1.21-.42q-.1,6.58-.2,13.16C109.4,207.63,108,206.77,108.08,205.61Z" style="fill:#fff;opacity:0.30000000000000004"></path></g><g id="freepik--Orange--inject-280"><path d="M75.82,340.28c0,24.07,16.88,33.57,37.71,33.57s37.7-9.5,37.7-33.57-16.88-34.83-37.7-34.83S75.82,316.21,75.82,340.28Z" style="fill:#407BFF"></path><path d="M75.82,340.28c0,24.07,16.88,33.57,37.71,33.57s37.7-9.5,37.7-33.57-16.88-34.83-37.7-34.83S75.82,316.21,75.82,340.28Z" style="fill:#fff;opacity:0.4"></path><path d="M125.57,340.28c0-21.94-4.75-32.82-17.46-34.57,1.77-.17,3.58-.26,5.42-.26,20.82,0,37.7,10.76,37.7,34.83s-16.88,33.57-37.7,33.57c-1.84,0-3.65-.07-5.42-.23C120.82,372.06,125.57,362.22,125.57,340.28Z" style="fill:#407BFF"></path><path d="M125.57,340.28c0-21.94-4.75-32.82-17.46-34.57,1.77-.17,3.58-.26,5.42-.26,20.82,0,37.7,10.76,37.7,34.83s-16.88,33.57-37.7,33.57c-1.84,0-3.65-.07-5.42-.23C120.82,372.06,125.57,362.22,125.57,340.28Z" style="fill:#fff;opacity:0.30000000000000004"></path><path d="M91.51,320.61c1.74,3.46,4.85,3.6,7.84,2.1s4.73-4.09,3-7.55-4.94-3.78-7.93-2.28S89.77,317.15,91.51,320.61Z" style="fill:#fff;opacity:0.2"></path><path d="M85.46,326.71c1.09,1.21,2.37.92,3.42,0s1.46-2.19.36-3.4a2.56,2.56,0,0,0-3.78,3.43Z" style="fill:#fff;opacity:0.2"></path><path d="M75.86,338.82c.67,21.31,19.16,28.58,30.21,28.58,1.41,0,4.09-.37,6-.37s5.59.37,7,.37c11.26,0,29.25-7.53,29.25-29.77,0-22-15.83-31.92-35.51-32.16l.72,0c20.82,0,37.7,10.76,37.7,34.83s-16.88,33.57-37.7,33.57-37.71-9.5-37.71-33.57C75.82,339.79,75.84,339.31,75.86,338.82Z" style="fill:#407BFF"></path><path d="M75.86,338.82c.67,21.31,19.16,28.58,30.21,28.58,1.41,0,4.09-.37,6-.37s5.59.37,7,.37c11.26,0,29.25-7.53,29.25-29.77,0-22-15.83-31.92-35.51-32.16l.72,0c20.82,0,37.7,10.76,37.7,34.83s-16.88,33.57-37.7,33.57-37.71-9.5-37.71-33.57C75.82,339.79,75.84,339.31,75.86,338.82Z" style="fill:#fff;opacity:0.2"></path><path d="M110,353.42c-.35-.18-1.29.53-1.28.93s.82,1.61,1.28,1.45S110.53,353.69,110,353.42Z" style="fill:#fff;opacity:0.2"></path><path d="M107.94,361.7c-.53.08-1,1.61-.7,2.05s2.18,1.15,2.57.61S108.75,361.59,107.94,361.7Z" style="fill:#fff;opacity:0.2"></path><path d="M101.14,355.67c-.31-.27-1.43.19-1.54.59s.4,1.83.9,1.79S101.59,356.09,101.14,355.67Z" style="fill:#fff;opacity:0.2"></path><path d="M103.38,360.92c-.27-.24-1.28.17-1.37.53s.35,1.65.8,1.61S103.8,361.29,103.38,360.92Z" style="fill:#fff;opacity:0.2"></path><path d="M95.19,354.68c-.27-.25-1.29.17-1.38.53s.36,1.65.8,1.61S95.6,355.05,95.19,354.68Z" style="fill:#fff;opacity:0.2"></path><path d="M98,358.87c-.48-.05-1.25,1.18-1.07,1.63s1.65,1.49,2.11,1.11S98.74,359,98,358.87Z" style="fill:#fff;opacity:0.2"></path><path d="M115.79,307.22l5.6-3s7.64-13.84,26.92-3.53c0,0-1.49,9.64-14.25,8.29s-12.54-4.63-18.83.13v-1A1.09,1.09,0,0,1,115.79,307.22Z" style="fill:#407BFF"></path><path d="M131.19,302.21c-7,3.37-9.8,2.05-9.8,2.05s7.64-13.84,26.92-3.53C148.31,300.73,138.19,298.83,131.19,302.21Z" style="fill:#fff;opacity:0.2"></path><path d="M116.23,307.15l4.67,1.33a17.53,17.53,0,0,1-3,1.71,15,15,0,0,1-5.67,0,15.67,15.67,0,0,1-2.66-1.52l3-1.52s1.86-2.77,1.83-3.84-1.13-2.84-2-4.2a1.42,1.42,0,0,1,.83-2.15h0a1.42,1.42,0,0,1,1.68.83,30.38,30.38,0,0,1,1.85,5.63A20.55,20.55,0,0,1,116.23,307.15Z" style="fill:#263238"></path><path d="M116.23,307.15l4.67,1.33a17.53,17.53,0,0,1-3,1.71,15,15,0,0,1-5.67,0,15.67,15.67,0,0,1-2.66-1.52l3-1.52s1.86-2.77,1.83-3.84-1.13-2.84-2-4.2a1.42,1.42,0,0,1,.83-2.15h0a1.42,1.42,0,0,1,1.68.83,30.38,30.38,0,0,1,1.85,5.63A20.55,20.55,0,0,1,116.23,307.15Z" style="fill:#fff;opacity:0.4"></path><path d="M109.09,343.63c-.07.89-.1,1.8-.09,2.71.22,17.68,13.93,31.84,30.62,31.63s30-14.7,29.82-32.38c0-.91-.06-1.82-.15-2.71Z" style="fill:#407BFF"></path><path d="M109.09,343.63c-.07.89-.1,1.8-.09,2.71.22,17.68,13.93,31.84,30.62,31.63s30-14.7,29.82-32.38c0-.91-.06-1.82-.15-2.71Z" style="fill:#fff;opacity:0.30000000000000004"></path><path d="M109,343.63c0,.31,0,.62,0,.93a30.22,30.22,0,1,0,60.44-.75c0-.31,0-.62,0-.93Z" style="fill:#407BFF"></path><path d="M110.21,343.61c0,.29,0,.59,0,.88a29,29,0,1,0,58-.72c0-.29,0-.58,0-.88Z" style="fill:#fff;opacity:0.8"></path><path d="M134.79,345.27l-20.08.25a1.65,1.65,0,0,0-1.61,1.85,26.14,26.14,0,0,0,5.76,13.44,1.65,1.65,0,0,0,2.45.11l14-14.38A.74.74,0,0,0,134.79,345.27Z" style="fill:#407BFF"></path><path d="M136.88,348.06l-14,14.37a1.66,1.66,0,0,0,.17,2.45,26.22,26.22,0,0,0,13.58,5.43,1.66,1.66,0,0,0,1.81-1.66l-.25-20.08A.75.75,0,0,0,136.88,348.06Z" style="fill:#407BFF"></path><path d="M143.12,346.45l14.38,14a1.65,1.65,0,0,0,2.45-.17,26.12,26.12,0,0,0,5.42-13.58,1.64,1.64,0,0,0-1.65-1.81l-20.08.25A.76.76,0,0,0,143.12,346.45Z" style="fill:#407BFF"></path><path d="M140.34,348.54l.25,20.08a1.65,1.65,0,0,0,1.85,1.61,26.14,26.14,0,0,0,13.44-5.76A1.65,1.65,0,0,0,156,362l-14.38-14A.74.74,0,0,0,140.34,348.54Z" style="fill:#407BFF"></path><g style="opacity:0.30000000000000004"><path d="M134.79,345.27l-20.08.25a1.65,1.65,0,0,0-1.61,1.85,26.14,26.14,0,0,0,5.76,13.44,1.65,1.65,0,0,0,2.45.11l14-14.38A.74.74,0,0,0,134.79,345.27Z" style="fill:#fff"></path><path d="M136.88,348.06l-14,14.37a1.66,1.66,0,0,0,.17,2.45,26.22,26.22,0,0,0,13.58,5.43,1.66,1.66,0,0,0,1.81-1.66l-.25-20.08A.75.75,0,0,0,136.88,348.06Z" style="fill:#fff"></path><path d="M143.12,346.45l14.38,14a1.65,1.65,0,0,0,2.45-.17,26.12,26.12,0,0,0,5.42-13.58,1.64,1.64,0,0,0-1.65-1.81l-20.08.25A.76.76,0,0,0,143.12,346.45Z" style="fill:#fff"></path><path d="M140.34,348.54l.25,20.08a1.65,1.65,0,0,0,1.85,1.61,26.14,26.14,0,0,0,13.44-5.76A1.65,1.65,0,0,0,156,362l-14.38-14A.74.74,0,0,0,140.34,348.54Z" style="fill:#fff"></path></g><path d="M157.63,347.92c.8.23,1.36.73,1.25,1.12s-.85.5-1.66.26-1.35-.74-1.24-1.12S156.83,347.68,157.63,347.92Z" style="fill:#407BFF"></path><path d="M157.63,347.92c.8.23,1.36.73,1.25,1.12s-.85.5-1.66.26-1.35-.74-1.24-1.12S156.83,347.68,157.63,347.92Z" style="fill:#fff;opacity:0.6000000000000001"></path><path d="M151.29,349.48c.78.29,1.31.83,1.17,1.21s-.89.44-1.67.15-1.31-.83-1.17-1.2S150.51,349.19,151.29,349.48Z" style="fill:#407BFF"></path><path d="M151.29,349.48c.78.29,1.31.83,1.17,1.21s-.89.44-1.67.15-1.31-.83-1.17-1.2S150.51,349.19,151.29,349.48Z" style="fill:#fff;opacity:0.6000000000000001"></path><path d="M122.7,352.72c.78-.3,1.53-.25,1.67.12s-.36.92-1.14,1.23-1.52.25-1.67-.12S121.93,353,122.7,352.72Z" style="fill:#407BFF"></path><path d="M122.7,352.72c.78-.3,1.53-.25,1.67.12s-.36.92-1.14,1.23-1.52.25-1.67-.12S121.93,353,122.7,352.72Z" style="fill:#fff;opacity:0.6000000000000001"></path><path d="M144.6,359.15c-.22-.8-.08-1.54.31-1.64s.87.47,1.09,1.27.07,1.55-.31,1.65S144.81,360,144.6,359.15Z" style="fill:#407BFF"></path><path d="M144.6,359.15c-.22-.8-.08-1.54.31-1.64s.87.47,1.09,1.27.07,1.55-.31,1.65S144.81,360,144.6,359.15Z" style="fill:#fff;opacity:0.6000000000000001"></path></g><g id="freepik--Spices--inject-280"><polygon points="355.14 122.39 352.64 131.53 355.88 135.89 363.28 135.62 367.09 128.85 362.88 122.02 355.14 122.39" style="fill:#263238"></polygon><polygon points="355.14 122.39 352.64 131.53 355.88 135.89 363.28 135.62 367.09 128.85 362.88 122.02 355.14 122.39" style="fill:#fff;opacity:0.30000000000000004"></polygon><path d="M371.23,118.51c-3.39,5.76-8.23,9.19-10.81,7.67s-1.91-7.41,1.48-13.17,10.81-7.67,10.81-7.67S374.63,112.76,371.23,118.51Z" style="fill:#263238"></path><path d="M371.23,118.51c-3.39,5.76-8.23,9.19-10.81,7.67s-1.91-7.41,1.48-13.17,10.81-7.67,10.81-7.67S374.63,112.76,371.23,118.51Z" style="fill:#fff;opacity:0.30000000000000004"></path><path d="M369.45,117.46c-3.39,5.76-7,8.87-8.56,7.93s-.6-5.57,2.8-11.33,8.09-7.13,8.09-7.13S372.84,111.71,369.45,117.46Z" style="opacity:0.2"></path><path d="M368.29,119.18c-1.46,2.47-3.88,3.74-5.41,2.84s-1.59-3.64-.13-6.11,3.87-3.73,5.4-2.83S369.74,116.71,368.29,119.18Z" style="fill:#263238"></path><path d="M368.29,119.18c-1.46,2.47-3.88,3.74-5.41,2.84s-1.59-3.64-.13-6.11,3.87-3.73,5.4-2.83S369.74,116.71,368.29,119.18Z" style="fill:#fff;opacity:0.5"></path><path d="M369,113.94a8.88,8.88,0,0,1-1.19,3.24c-1.46,2.47-3.62,3.89-4.83,3.17-1-.57-1-2.33-.28-4.27-1.36,2.42-1.28,5,.22,5.94s3.95-.37,5.41-2.84C369.42,117.27,369.63,115.2,369,113.94Z" style="fill:#263238"></path><path d="M369,113.94a8.88,8.88,0,0,1-1.19,3.24c-1.46,2.47-3.62,3.89-4.83,3.17-1-.57-1-2.33-.28-4.27-1.36,2.42-1.28,5,.22,5.94s3.95-.37,5.41-2.84C369.42,117.27,369.63,115.2,369,113.94Z" style="fill:#fff;opacity:0.30000000000000004"></path><path d="M350.71,135.12c2.07-3.65,5.67-5.45,8-4s2.6,5.55.53,9.2-8,4-8,4S348.64,138.76,350.71,135.12Z" style="fill:#263238"></path><path d="M350.71,135.12c2.07-3.65,5.67-5.45,8-4s2.6,5.55.53,9.2-8,4-8,4S348.64,138.76,350.71,135.12Z" style="fill:#fff;opacity:0.30000000000000004"></path><path d="M352.35,136.11c2.07-3.65,4.65-5.39,6.11-4.5s1.25,4-.82,7.7a8.09,8.09,0,0,1-5.83,4A8.63,8.63,0,0,1,352.35,136.11Z" style="opacity:0.2"></path><path d="M353.09,135a3,3,0,0,1,4.15-1.3,3.22,3.22,0,0,1,.94,4.37,3,3,0,0,1-4.15,1.3A3.22,3.22,0,0,1,353.09,135Z" style="fill:#263238"></path><path d="M353.09,135a3,3,0,0,1,4.15-1.3,3.22,3.22,0,0,1,.94,4.37,3,3,0,0,1-4.15,1.3A3.22,3.22,0,0,1,353.09,135Z" style="fill:#fff;opacity:0.5"></path><path d="M353.24,138.68a4,4,0,0,1,.55-2.14c.89-1.57,2.52-2.29,3.63-1.62a2.67,2.67,0,0,1,.81,3.09,3.21,3.21,0,0,0-1-4.27,3,3,0,0,0-4.15,1.3A3.34,3.34,0,0,0,353.24,138.68Z" style="fill:#263238"></path><path d="M353.24,138.68a4,4,0,0,1,.55-2.14c.89-1.57,2.52-2.29,3.63-1.62a2.67,2.67,0,0,1,.81,3.09,3.21,3.21,0,0,0-1-4.27,3,3,0,0,0-4.15,1.3A3.34,3.34,0,0,0,353.24,138.68Z" style="fill:#fff;opacity:0.30000000000000004"></path><path d="M374.3,134.33c-6.68-.06-12.07-2.54-12.05-5.53s5.47-5.36,12.15-5.3S386.45,129,386.45,129,381,134.39,374.3,134.33Z" style="fill:#263238"></path><path d="M374.3,134.33c-6.68-.06-12.07-2.54-12.05-5.53s5.47-5.36,12.15-5.3S386.45,129,386.45,129,381,134.39,374.3,134.33Z" style="fill:#fff;opacity:0.30000000000000004"></path><path d="M374.32,132.26c-6.68-.06-11.16-1.6-11.14-3.45s4.52-3.3,11.2-3.24S384.6,129,384.6,129,381,132.32,374.32,132.26Z" style="opacity:0.2"></path><path d="M372.25,132.11c-2.86,0-5.17-1.49-5.16-3.26s2.36-3.2,5.22-3.17,5.17,1.49,5.16,3.26S375.12,132.14,372.25,132.11Z" style="fill:#263238"></path><path d="M372.25,132.11c-2.86,0-5.17-1.49-5.16-3.26s2.36-3.2,5.22-3.17,5.17,1.49,5.16,3.26S375.12,132.14,372.25,132.11Z" style="fill:#fff;opacity:0.5"></path><path d="M377.12,130.07a8.83,8.83,0,0,1-3.39.59c-2.87,0-5.18-1.19-5.17-2.6,0-1.12,1.51-2.06,3.56-2.38-2.77,0-5,1.43-5,3.17s2.3,3.23,5.16,3.26C374.47,132.13,376.37,131.28,377.12,130.07Z" style="fill:#263238"></path><path d="M377.12,130.07a8.83,8.83,0,0,1-3.39.59c-2.87,0-5.18-1.19-5.17-2.6,0-1.12,1.51-2.06,3.56-2.38-2.77,0-5,1.43-5,3.17s2.3,3.23,5.16,3.26C374.47,132.13,376.37,131.28,377.12,130.07Z" style="fill:#fff;opacity:0.30000000000000004"></path><path d="M346.51,123.69c5.61,1,10.47,3.44,10.85,5.57s-3.86,3.09-9.48,2.14S337,125.84,337,125.84A12.73,12.73,0,0,1,346.51,123.69Z" style="fill:#263238"></path><path d="M346.51,123.69c5.61,1,10.47,3.44,10.85,5.57s-3.86,3.09-9.48,2.14S337,125.84,337,125.84A12.73,12.73,0,0,1,346.51,123.69Z" style="fill:#fff;opacity:0.30000000000000004"></path><path d="M346.77,125.17c5.61.94,9.58,2.64,9.82,4s-3.36,1.74-9,.8a20.43,20.43,0,0,1-9-3.83S341.16,124.22,346.77,125.17Z" style="opacity:0.2"></path><path d="M348.53,125.55c2.4.41,4.54,1.76,4.76,3s-1.54,2-4,1.56-4.54-1.76-4.76-3S346.12,125.15,348.53,125.55Z" style="fill:#263238"></path><path d="M348.53,125.55c2.4.41,4.54,1.76,4.76,3s-1.54,2-4,1.56-4.54-1.76-4.76-3S346.12,125.15,348.53,125.55Z" style="fill:#fff;opacity:0.5"></path><path d="M344.72,126.35a7.77,7.77,0,0,1,2.76,0c2.41.41,4.51,1.55,4.69,2.55.14.8-1,1.27-2.67,1.22,2.33.35,4-.34,3.79-1.58s-2.36-2.61-4.76-3C346.66,125.24,345.18,125.59,344.72,126.35Z" style="fill:#263238"></path><path d="M344.72,126.35a7.77,7.77,0,0,1,2.76,0c2.41.41,4.51,1.55,4.69,2.55.14.8-1,1.27-2.67,1.22,2.33.35,4-.34,3.79-1.58s-2.36-2.61-4.76-3C346.66,125.24,345.18,125.59,344.72,126.35Z" style="fill:#fff;opacity:0.30000000000000004"></path><path d="M346.85,118.73c3.29,5.82,8.06,9.34,10.67,7.87s2.05-7.38-1.24-13.2-10.67-7.86-10.67-7.86S343.56,112.92,346.85,118.73Z" style="fill:#263238"></path><path d="M346.85,118.73c3.29,5.82,8.06,9.34,10.67,7.87s2.05-7.38-1.24-13.2-10.67-7.86-10.67-7.86S343.56,112.92,346.85,118.73Z" style="fill:#fff;opacity:0.30000000000000004"></path><path d="M348.65,117.71c3.29,5.82,6.8,9,8.41,8.09s.7-5.56-2.58-11.38-8-7.28-8-7.28S345.37,111.9,348.65,117.71Z" style="opacity:0.2"></path><path d="M349.78,119.45c1.41,2.5,3.81,3.81,5.36,2.94s1.65-3.61.24-6.1-3.8-3.81-5.35-2.93S348.37,117,349.78,119.45Z" style="fill:#263238"></path><path d="M349.78,119.45c1.41,2.5,3.81,3.81,5.36,2.94s1.65-3.61.24-6.1-3.8-3.81-5.35-2.93S348.37,117,349.78,119.45Z" style="fill:#fff;opacity:0.5"></path><path d="M349.21,114.21a8.79,8.79,0,0,0,1.13,3.25c1.41,2.49,3.54,4,4.77,3.26,1-.55,1.08-2.31.36-4.27,1.31,2.45,1.18,5.08-.33,5.94s-3.95-.44-5.36-2.94C348.69,117.52,348.52,115.45,349.21,114.21Z" style="fill:#263238"></path><path d="M349.21,114.21a8.79,8.79,0,0,0,1.13,3.25c1.41,2.49,3.54,4,4.77,3.26,1-.55,1.08-2.31.36-4.27,1.31,2.45,1.18,5.08-.33,5.94s-3.95-.44-5.36-2.94C348.69,117.52,348.52,115.45,349.21,114.21Z" style="fill:#fff;opacity:0.30000000000000004"></path><path d="M371.36,138.34c-3.54-4.6-8-7.75-10-7.05s-.72,5,2.82,9.57,10,7,10,7A13.75,13.75,0,0,0,371.36,138.34Z" style="fill:#263238"></path><path d="M371.36,138.34c-3.54-4.6-8-7.75-10-7.05s-.72,5,2.82,9.57,10,7,10,7A13.75,13.75,0,0,0,371.36,138.34Z" style="fill:#fff;opacity:0.30000000000000004"></path><path d="M370,138.82c-3.54-4.59-6.92-7.33-8.15-6.9s.16,3.87,3.7,8.46a20.82,20.82,0,0,0,7.66,6.27S373.53,143.41,370,138.82Z" style="opacity:0.2"></path><path d="M368.8,137.43c-1.51-2-3.7-3.23-4.88-2.82s-.91,2.35.61,4.32,3.71,3.23,4.89,2.81S370.32,139.4,368.8,137.43Z" style="fill:#263238"></path><path d="M368.8,137.43c-1.51-2-3.7-3.23-4.88-2.82s-.91,2.35.61,4.32,3.71,3.23,4.89,2.81S370.32,139.4,368.8,137.43Z" style="fill:#fff;opacity:0.5"></path><path d="M370,141.25a8.17,8.17,0,0,0-1.38-2.48c-1.52-2-3.51-3.3-4.44-3-.75.27-.6,1.51.27,3-1.43-1.92-1.68-3.78-.52-4.19s3.37.85,4.88,2.82C370,139,370.41,140.45,370,141.25Z" style="fill:#263238"></path><path d="M370,141.25a8.17,8.17,0,0,0-1.38-2.48c-1.52-2-3.51-3.3-4.44-3-.75.27-.6,1.51.27,3-1.43-1.92-1.68-3.78-.52-4.19s3.37.85,4.88,2.82C370,139,370.41,140.45,370,141.25Z" style="fill:#fff;opacity:0.30000000000000004"></path><polygon points="379.07 158.32 383.11 165.4 387.74 166.09 392.07 161.42 390.27 154.98 383.56 153.38 379.07 158.32" style="fill:#263238"></polygon><polygon points="379.07 158.32 383.11 165.4 387.74 166.09 392.07 161.42 390.27 154.98 383.56 153.38 379.07 158.32" style="fill:#fff;opacity:0.30000000000000004"></polygon><path d="M386.51,146.17c1.43,5.57.58,10.6-1.91,11.24s-5.68-3.34-7.12-8.91,1.92-11.24,1.92-11.24S385.07,140.61,386.51,146.17Z" style="fill:#263238"></path><path d="M386.51,146.17c1.43,5.57.58,10.6-1.91,11.24s-5.68-3.34-7.12-8.91,1.92-11.24,1.92-11.24S385.07,140.61,386.51,146.17Z" style="fill:#fff;opacity:0.30000000000000004"></path><path d="M384.78,146.62c1.44,5.56,1.16,9.63-.38,10s-3.75-3-5.19-8.59a13.42,13.42,0,0,1,.58-9.26A13.38,13.38,0,0,1,384.78,146.62Z" style="opacity:0.2"></path><path d="M385.12,148.37c.62,2.39-.08,4.63-1.56,5s-3.18-1.24-3.8-3.63.09-4.63,1.57-5S384.5,146,385.12,148.37Z" style="fill:#263238"></path><path d="M385.12,148.37c.62,2.39-.08,4.63-1.56,5s-3.18-1.24-3.8-3.63.09-4.63,1.57-5S384.5,146,385.12,148.37Z" style="fill:#fff;opacity:0.5"></path><path d="M382.34,144.78a7.55,7.55,0,0,1,1.25,2.69c.61,2.38.16,4.56-1,4.87-.94.24-2.05-.79-2.77-2.43.64,2.3,2.3,3.85,3.75,3.47s2.18-2.62,1.56-5A4.9,4.9,0,0,0,382.34,144.78Z" style="fill:#263238"></path><path d="M382.34,144.78a7.55,7.55,0,0,1,1.25,2.69c.61,2.38.16,4.56-1,4.87-.94.24-2.05-.79-2.77-2.43.64,2.3,2.3,3.85,3.75,3.47s2.18-2.62,1.56-5A4.9,4.9,0,0,0,382.34,144.78Z" style="fill:#fff;opacity:0.30000000000000004"></path><path d="M384.12,168.76c-1-3.48.14-6.76,2.45-7.33s5,1.79,5.91,5.27S390,174,390,174,385.08,172.24,384.12,168.76Z" style="fill:#263238"></path><path d="M384.12,168.76c-1-3.48.14-6.76,2.45-7.33s5,1.79,5.91,5.27S390,174,390,174,385.08,172.24,384.12,168.76Z" style="fill:#fff;opacity:0.30000000000000004"></path><path d="M385.72,168.36c-1-3.48-.45-6.1,1-6.45s3.23,1.7,4.19,5.18a7,7,0,0,1-1.12,6A7.44,7.44,0,0,1,385.72,168.36Z" style="opacity:0.2"></path><path d="M385.52,167.26a2.6,2.6,0,0,1,1.74-3.31,2.78,2.78,0,0,1,3.23,2.09,2.6,2.6,0,0,1-1.74,3.31A2.78,2.78,0,0,1,385.52,167.26Z" style="fill:#263238"></path><path d="M385.52,167.26a2.6,2.6,0,0,1,1.74-3.31,2.78,2.78,0,0,1,3.23,2.09,2.6,2.6,0,0,1-1.74,3.31A2.78,2.78,0,0,1,385.52,167.26Z" style="fill:#fff;opacity:0.5"></path><path d="M387.83,169.39a3.56,3.56,0,0,1-1-1.65c-.41-1.49.14-2.91,1.23-3.18a2.29,2.29,0,0,1,2.37,1.38,2.78,2.78,0,0,0-3.2-2,2.6,2.6,0,0,0-1.74,3.31A2.89,2.89,0,0,0,387.83,169.39Z" style="fill:#263238"></path><path d="M387.83,169.39a3.56,3.56,0,0,1-1-1.65c-.41-1.49.14-2.91,1.23-3.18a2.29,2.29,0,0,1,2.37,1.38,2.78,2.78,0,0,0-3.2-2,2.6,2.6,0,0,0-1.74,3.31A2.89,2.89,0,0,0,387.83,169.39Z" style="fill:#fff;opacity:0.30000000000000004"></path><path d="M398,153.93c-4.1,4-8.89,5.8-10.69,4s.06-6.58,4.17-10.61,10.69-4,10.69-4S402.09,149.9,398,153.93Z" style="fill:#263238"></path><path d="M398,153.93c-4.1,4-8.89,5.8-10.69,4s.06-6.58,4.17-10.61,10.69-4,10.69-4S402.09,149.9,398,153.93Z" style="fill:#fff;opacity:0.30000000000000004"></path><path d="M396.74,152.66c-4.1,4-7.76,5.81-8.87,4.68s.74-4.76,4.84-8.79a13.46,13.46,0,0,1,8.31-4.13A13.42,13.42,0,0,1,396.74,152.66Z" style="opacity:0.2"></path><path d="M395.4,153.83c-1.76,1.72-4.06,2.24-5.13,1.15s-.51-3.38,1.25-5.1,4.05-2.25,5.12-1.15S397.16,152.1,395.4,153.83Z" style="fill:#263238"></path><path d="M395.4,153.83c-1.76,1.72-4.06,2.24-5.13,1.15s-.51-3.38,1.25-5.1,4.05-2.25,5.12-1.15S397.16,152.1,395.4,153.83Z" style="fill:#fff;opacity:0.5"></path><path d="M397.12,149.62a7.58,7.58,0,0,1-1.71,2.43c-1.76,1.72-3.87,2.42-4.72,1.56-.68-.69-.34-2.17.72-3.62-1.67,1.71-2.18,3.92-1.14,5s3.37.57,5.13-1.15A4.92,4.92,0,0,0,397.12,149.62Z" style="fill:#263238"></path><path d="M397.12,149.62a7.58,7.58,0,0,1-1.71,2.43c-1.76,1.72-3.87,2.42-4.72,1.56-.68-.69-.34-2.17.72-3.62-1.67,1.71-2.18,3.92-1.14,5s3.37.57,5.13-1.15A4.92,4.92,0,0,0,397.12,149.62Z" style="fill:#fff;opacity:0.30000000000000004"></path><path d="M374.62,164.36c4-2.84,8.46-4.28,10-3.21s-.47,4.23-4.46,7.07-10,3.21-10,3.21A10.94,10.94,0,0,1,374.62,164.36Z" style="fill:#263238"></path><path d="M374.62,164.36c4-2.84,8.46-4.28,10-3.21s-.47,4.23-4.46,7.07-10,3.21-10,3.21A10.94,10.94,0,0,1,374.62,164.36Z" style="fill:#fff;opacity:0.30000000000000004"></path><path d="M375.67,165.1c4-2.84,7.44-4.22,8.38-3.56s-1,3.1-5,5.94a17.51,17.51,0,0,1-7.83,3.17S371.68,167.94,375.67,165.1Z" style="opacity:0.2"></path><path d="M377,164.27c1.71-1.22,3.84-1.7,4.74-1.06s.26,2.13-1.45,3.35-3.84,1.69-4.74,1.06S375.26,165.48,377,164.27Z" style="fill:#263238"></path><path d="M377,164.27c1.71-1.22,3.84-1.7,4.74-1.06s.26,2.13-1.45,3.35-3.84,1.69-4.74,1.06S375.26,165.48,377,164.27Z" style="fill:#fff;opacity:0.5"></path><path d="M375.14,167.07a6.79,6.79,0,0,1,1.71-1.66c1.71-1.22,3.68-1.8,4.4-1.3.57.4.17,1.37-.89,2.36,1.63-1.2,2.24-2.65,1.35-3.26s-3-.16-4.74,1.06C375.65,165.21,375,166.32,375.14,167.07Z" style="fill:#263238"></path><path d="M375.14,167.07a6.79,6.79,0,0,1,1.71-1.66c1.71-1.22,3.68-1.8,4.4-1.3.57.4.17,1.37-.89,2.36,1.63-1.2,2.24-2.65,1.35-3.26s-3-.16-4.74,1.06C375.65,165.21,375,166.32,375.14,167.07Z" style="fill:#fff;opacity:0.30000000000000004"></path><path d="M371.81,161.14c5.54,1.54,10.58.78,11.27-1.7s-3.24-5.74-8.78-7.28-11.27,1.7-11.27,1.7S366.27,159.6,371.81,161.14Z" style="fill:#263238"></path><path d="M371.81,161.14c5.54,1.54,10.58.78,11.27-1.7s-3.24-5.74-8.78-7.28-11.27,1.7-11.27,1.7S366.27,159.6,371.81,161.14Z" style="fill:#fff;opacity:0.30000000000000004"></path><path d="M372.28,159.42c5.54,1.54,9.61,1.34,10-.2s-3-3.8-8.49-5.34a13.44,13.44,0,0,0-9.27.41A13.46,13.46,0,0,0,372.28,159.42Z" style="opacity:0.2"></path><ellipse cx="374.77" cy="157.13" rx="2.77" ry="4.46" transform="translate(123.03 476.14) rotate(-74.47)" style="fill:#263238"></ellipse><ellipse cx="374.77" cy="157.13" rx="2.77" ry="4.46" transform="translate(123.03 476.14) rotate(-74.47)" style="fill:#fff;opacity:0.5"></ellipse><path d="M370.49,157a7.59,7.59,0,0,0,2.66,1.29c2.38.66,4.57.25,4.89-.91.26-.94-.75-2.07-2.37-2.82,2.28.69,3.8,2.37,3.4,3.81s-2.66,2.13-5,1.47A4.89,4.89,0,0,1,370.49,157Z" style="fill:#263238"></path><path d="M370.49,157a7.59,7.59,0,0,0,2.66,1.29c2.38.66,4.57.25,4.89-.91.26-.94-.75-2.07-2.37-2.82,2.28.69,3.8,2.37,3.4,3.81s-2.66,2.13-5,1.47A4.89,4.89,0,0,1,370.49,157Z" style="fill:#fff;opacity:0.30000000000000004"></path><path d="M398.64,158.15c-4.94-.64-9.59.17-10.37,1.8s2.59,3.48,7.54,4.12,10.37-1.8,10.37-1.8A11.81,11.81,0,0,0,398.64,158.15Z" style="fill:#263238"></path><path d="M398.64,158.15c-4.94-.64-9.59.17-10.37,1.8s2.59,3.48,7.54,4.12,10.37-1.8,10.37-1.8A11.81,11.81,0,0,0,398.64,158.15Z" style="fill:#fff;opacity:0.30000000000000004"></path><path d="M398.1,159.28c-5-.64-8.67-.25-9.15.76s2.45,2.26,7.4,2.9a17.89,17.89,0,0,0,8.47-.85S403.05,159.92,398.1,159.28Z" style="opacity:0.2"></path><path d="M396.53,159.16c-2.12-.28-4.21.29-4.68,1.26s.88,2,3,2.25,4.22-.29,4.68-1.26S398.65,159.43,396.53,159.16Z" style="fill:#263238"></path><path d="M396.53,159.16c-2.12-.28-4.21.29-4.68,1.26s.88,2,3,2.25,4.22-.29,4.68-1.26S398.65,159.43,396.53,159.16Z" style="fill:#fff;opacity:0.5"></path><path d="M399.58,160.76a7.34,7.34,0,0,0-2.35-.67c-2.12-.27-4.14.13-4.51.9-.29.61.56,1.28,2,1.66-2-.3-3.32-1.29-2.86-2.23s2.56-1.54,4.68-1.26C398.18,159.37,399.35,160,399.58,160.76Z" style="fill:#263238"></path><path d="M399.58,160.76a7.34,7.34,0,0,0-2.35-.67c-2.12-.27-4.14.13-4.51.9-.29.61.56,1.28,2,1.66-2-.3-3.32-1.29-2.86-2.23s2.56-1.54,4.68-1.26C398.18,159.37,399.35,160,399.58,160.76Z" style="fill:#fff;opacity:0.30000000000000004"></path></g><g id="freepik--Cranberries--inject-280"><ellipse cx="393.07" cy="342.14" rx="12.78" ry="12.35" style="fill:#407BFF"></ellipse><ellipse cx="393.07" cy="342.14" rx="12.78" ry="12.35" style="opacity:0.30000000000000004"></ellipse><path d="M399.11,333.31c-.14,1-1.3,1.32-2.64,1.12s-2.33-.88-2.19-1.84,1.3-1.31,2.64-1.11S399.25,332.35,399.11,333.31Z" style="fill:#fff;opacity:0.7000000000000001"></path><path d="M401.21,334.79a.85.85,0,0,1-1.67-.29.85.85,0,0,1,1.67.29Z" style="fill:#fff;opacity:0.7000000000000001"></path><path d="M399.91,331.41a10.4,10.4,0,0,1,3.67,8.4c0,7.17-5.21,11-11.64,11-6.08,0-11.07-3.41-11.6-9.84,0,.39,0,.77,0,1.18,0,8.07,5.72,12.35,12.78,12.35s12.79-4.28,12.79-12.35C405.86,337,403.48,333.33,399.91,331.41Z" style="opacity:0.2"></path><path d="M391.21,333.23c.11.64-.66.79-1.62.95s-1.73.28-1.84-.36.58-1.29,1.54-1.45S391.11,332.6,391.21,333.23Z" style="fill:#263238"></path><path d="M391.21,333.23c.11.64-.66.79-1.62.95s-1.73.28-1.84-.36.58-1.29,1.54-1.45S391.11,332.6,391.21,333.23Z" style="fill:#fff;opacity:0.30000000000000004"></path><ellipse cx="401.91" cy="374.83" rx="10.89" ry="10.52" style="fill:#407BFF"></ellipse><ellipse cx="401.91" cy="374.83" rx="10.89" ry="10.52" style="opacity:0.30000000000000004"></ellipse><path d="M407.05,367.31c-.12.82-1.11,1.12-2.24.95s-2-.75-1.87-1.57,1.11-1.12,2.24-.95S407.17,366.49,407.05,367.31Z" style="fill:#fff;opacity:0.7000000000000001"></path><path d="M408.84,368.57a.72.72,0,1,1-.59-.81A.67.67,0,0,1,408.84,368.57Z" style="fill:#fff;opacity:0.7000000000000001"></path><path d="M407.73,365.68a8.9,8.9,0,0,1,3.13,7.16c0,6.11-4.44,9.36-9.92,9.36-5.18,0-9.43-2.9-9.88-8.38,0,.33-.05.66-.05,1,0,6.87,4.88,10.52,10.9,10.52s10.89-3.65,10.89-10.52C412.8,370.4,410.77,367.32,407.73,365.68Z" style="opacity:0.2"></path><path d="M400.32,367.24c.09.54-.56.67-1.38.81s-1.47.23-1.57-.31.5-1.1,1.31-1.23S400.23,366.7,400.32,367.24Z" style="fill:#263238"></path><path d="M400.32,367.24c.09.54-.56.67-1.38.81s-1.47.23-1.57-.31.5-1.1,1.31-1.23S400.23,366.7,400.32,367.24Z" style="fill:#fff;opacity:0.30000000000000004"></path><ellipse cx="412.02" cy="347.03" rx="11.56" ry="11.97" transform="translate(-17.14 672.63) rotate(-77.29)" style="fill:#407BFF"></ellipse><ellipse cx="412.02" cy="347.03" rx="11.56" ry="11.97" transform="translate(-17.14 672.63) rotate(-77.29)" style="opacity:0.2"></ellipse><path d="M419.35,340.22c-.33.85-1.45.93-2.63.47s-2-1.28-1.63-2.13,1.46-.93,2.64-.47S419.68,339.36,419.35,340.22Z" style="fill:#fff;opacity:0.7000000000000001"></path><path d="M421,342a.79.79,0,0,1-1.46-.61.74.74,0,0,1,1-.4A.73.73,0,0,1,421,342Z" style="fill:#fff;opacity:0.7000000000000001"></path><path d="M420.47,338.64a9.72,9.72,0,0,1,1.63,8.43c-1.47,6.55-7,9-12.9,7.64-5.55-1.26-9.4-5.39-8.56-11.38-.11.35-.21.7-.29,1.07-1.67,7.37,2.68,12.46,9.13,13.91S422,357,423.7,349.67C424.77,344.92,423.34,341.13,420.47,338.64Z" style="opacity:0.2"></path><path d="M412.16,338.52c0,.6-.77.58-1.68.53s-1.64-.11-1.6-.71.79-1.06,1.7-1S412.19,337.91,412.16,338.52Z" style="fill:#263238"></path><path d="M412.16,338.52c0,.6-.77.58-1.68.53s-1.64-.11-1.6-.71.79-1.06,1.7-1S412.19,337.91,412.16,338.52Z" style="fill:#fff;opacity:0.30000000000000004"></path><path d="M386.59,353.66c1.36,7.43-3.19,12.34-9.69,13.53S364.4,365.41,363,358s3.18-12.34,9.69-13.53S385.22,346.23,386.59,353.66Z" style="fill:#407BFF"></path><path d="M386.59,353.66c1.36,7.43-3.19,12.34-9.69,13.53S364.4,365.41,363,358s3.18-12.34,9.69-13.53S385.22,346.23,386.59,353.66Z" style="opacity:0.1"></path><path d="M378.88,346.67c0,.91-1,1.43-2.24,1.47s-2.3-.41-2.33-1.32,1-1.43,2.24-1.47S378.85,345.76,378.88,346.67Z" style="fill:#fff;opacity:0.7000000000000001"></path><path d="M381.06,347.68a.79.79,0,1,1-.8-.76A.73.73,0,0,1,381.06,347.68Z" style="fill:#fff;opacity:0.7000000000000001"></path><path d="M379.29,344.78a9.74,9.74,0,0,1,4.81,7.11c1.21,6.61-3,11-8.87,12.09-5.6,1-10.76-1.27-12.34-7.1,0,.36.08.73.15,1.1,1.36,7.43,7.36,10.4,13.86,9.21s11.05-6.1,9.69-13.53C385.71,348.87,382.91,346,379.29,344.78Z" style="opacity:0.2"></path><path d="M371.59,347.93c.21.57-.47.84-1.33,1.15s-1.55.54-1.75,0,.31-1.28,1.17-1.59S371.39,347.36,371.59,347.93Z" style="fill:#263238"></path><path d="M371.59,347.93c.21.57-.47.84-1.33,1.15s-1.55.54-1.75,0,.31-1.28,1.17-1.59S371.39,347.36,371.59,347.93Z" style="fill:#fff;opacity:0.30000000000000004"></path><path d="M425.81,324.29c-4,5.85-10.34,6.1-15.47,2.56s-7.14-9.51-3.1-15.37,10.34-6.09,15.47-2.56S429.84,318.43,425.81,324.29Z" style="fill:#407BFF"></path><path d="M425.81,324.29c-4,5.85-10.34,6.1-15.47,2.56s-7.14-9.51-3.1-15.37,10.34-6.09,15.47-2.56S429.84,318.43,425.81,324.29Z" style="opacity:0.1"></path><path d="M425.33,314.5c-.59.63-1.61.3-2.47-.51s-1.26-1.8-.68-2.43,1.61-.3,2.47.51S425.91,313.87,425.33,314.5Z" style="fill:#fff;opacity:0.7000000000000001"></path><path d="M426.11,316.62a.69.69,0,0,1-1,0,.72.72,0,1,1,1-1A.69.69,0,0,1,426.11,316.62Z" style="fill:#fff;opacity:0.7000000000000001"></path><path d="M426.86,313.52a9.2,9.2,0,0,1-1.54,7.94c-3.59,5.21-9.28,5.36-13.95,2.14-4.42-3-6.33-8-3.5-13-.21.27-.42.54-.63.83-4,5.86-2,11.84,3.1,15.37s11.43,3.29,15.47-2.56C428.41,320.52,428.49,316.7,426.86,313.52Z" style="opacity:0.2"></path><path d="M419.63,310.49c-.24.52-.87.24-1.65-.12s-1.39-.67-1.15-1.19,1.06-.64,1.84-.28S419.88,310,419.63,310.49Z" style="fill:#263238"></path><path d="M419.63,310.49c-.24.52-.87.24-1.65-.12s-1.39-.67-1.15-1.19,1.06-.64,1.84-.28S419.88,310,419.63,310.49Z" style="fill:#fff;opacity:0.30000000000000004"></path></g></svg>