<svg width="441" height="444" viewBox="0 0 441 444" fill="none" xmlns="http://www.w3.org/2000/svg">
<g clip-path="url(#clip0_84_458)">
<mask id="mask0_84_458" style="mask-type:luminance" maskUnits="userSpaceOnUse" x="0" y="0" width="441" height="444">
<path d="M440.18 0H0V443.9H440.18V0Z" fill="white"/>
</mask>
<g mask="url(#mask0_84_458)">
<path d="M182.18 74.96L169.94 84.48C189.48 109.62 229.43 121.82 259.63 129.79L262.57 114.53C234.6 107.11 198.49 95.94 182.18 74.96Z" fill="#82318A"/>
<path d="M339.5 160.4C332.75 141.91 320.84 136.23 320.84 136.23C324.34 147.18 334.84 178.9 332.23 189.07C331.84 191.26 331.24 193.41 330.43 195.49V195.58C329.11 198.97 327.29 202.14 325.03 205C306.49 228.68 244.27 233.1 194.28 236.64C187.58 237.12 181.28 237.57 174.94 238.06L176.14 253.52C182.4 253.03 188.7 252.58 195.38 252.11C253.92 247.95 310.5 243.23 333.28 214.11C344.11 200.27 345.36 176.48 339.5 160.4Z" fill="#B840CD"/>
<path d="M290.68 138.38C298.76 141.38 325.56 152.38 330.87 169.96C332.84 176.13 333.3 182.68 332.23 189.07C333.72 183.4 334.92 177.65 335.82 171.85C338 157.01 331.11 142.31 318.3 134.5C311.23 130.24 303.77 126.66 296.02 123.82C290.17 121.68 282.02 119.58 272.57 117.14C269.4 116.32 266.05 115.45 262.57 114.53L259.63 129.79C262.77 130.62 265.8 131.4 268.7 132.15C277.74 134.49 285.56 136.5 290.68 138.38Z" fill="#82318A"/>
<path d="M316.43 219.09C316.04 218.13 315.78 217.12 315.63 216.09C315.32 215.09 315.13 214.06 315.06 213.02C315.63 213.93 316 214.95 316.14 216.02C316.44 217.01 316.54 218.06 316.43 219.09Z" fill="#263238"/>
<path d="M312.68 220.33C312.15 219.61 311.8 218.76 311.68 217.87C311.39 217.02 311.31 216.12 311.45 215.24C311.81 216.04 312.06 216.88 312.19 217.75C312.48 218.58 312.64 219.45 312.68 220.33Z" fill="#263238"/>
<path d="M309.43 226.4C308.8 225 308.34 223.54 308.05 222.04C307.59 220.58 307.3 219.07 307.18 217.54C308.27 220.4 309.02 223.37 309.43 226.4Z" fill="#263238"/>
<path d="M328.37 209.4C327.76 207.4 327.3 205.36 327 203.3C327.98 205.18 328.45 207.28 328.37 209.4Z" fill="#263238"/>
<path d="M324.9 211.62C324.01 210.08 323.59 208.31 323.68 206.53C324.27 208.18 324.68 209.88 324.9 211.62Z" fill="#263238"/>
<path d="M321.96 218.41C321.34 217.01 320.88 215.55 320.59 214.05C320.13 212.59 319.84 211.08 319.72 209.56C320.33 210.96 320.79 212.42 321.09 213.92C321.55 215.38 321.84 216.89 321.96 218.41Z" fill="#263238"/>
<path d="M304.72 224.21C304.26 223.5 303.96 222.7 303.82 221.86C303.52 221.07 303.39 220.22 303.43 219.38C303.89 220.09 304.19 220.89 304.33 221.73C304.63 222.52 304.76 223.37 304.72 224.21Z" fill="#263238"/>
<path d="M301 226.46C300.52 225.66 300.18 224.78 300 223.86C299.67 222.99 299.5 222.06 299.5 221.13C300.33 222.8 300.84 224.6 301 226.46Z" fill="#263238"/>
<path d="M298.71 231.33C297.51 228.5 296.63 225.53 296.09 222.5C296.77 223.88 297.29 225.34 297.65 226.84C298.16 228.29 298.52 229.8 298.71 231.33Z" fill="#263238"/>
<path d="M293.95 229.65C293.47 228.77 293.15 227.82 293 226.83C292.68 225.89 292.53 224.9 292.56 223.9C293.04 224.77 293.35 225.73 293.5 226.71C293.82 227.66 293.97 228.65 293.95 229.65Z" fill="#263238"/>
<path d="M290.03 231.08C289.48 230.3 289.09 229.42 288.91 228.48C288.57 227.59 288.42 226.63 288.47 225.68C289.2 227.41 289.73 229.22 290.03 231.08Z" fill="#263238"/>
<path d="M287.06 236.53C285.89 233.37 285.04 230.11 284.54 226.78C285.72 229.93 286.57 233.2 287.06 236.53Z" fill="#263238"/>
<path d="M331.75 208.88C331.05 207.09 330.52 205.24 330.16 203.36C329.63 201.52 329.28 199.63 329.09 197.72C329.78 199.51 330.31 201.36 330.67 203.24C331.2 205.08 331.56 206.97 331.75 208.88Z" fill="#263238"/>
<path d="M333.25 200.56C332.25 198.27 331.58 195.85 331.25 193.37C331.84 194.48 332.26 195.67 332.52 196.9C332.94 198.08 333.18 199.31 333.25 200.56Z" fill="#263238"/>
<path d="M335.78 195.54C335.16 194.18 334.66 192.77 334.29 191.32C333.76 189.92 333.34 188.49 333.05 187.02C333.83 188.31 334.41 189.7 334.78 191.16C335.32 192.56 335.66 194.04 335.78 195.54Z" fill="#263238"/>
<path d="M338.31 192.68C337.46 190.77 336.76 188.79 336.23 186.76C335.54 184.79 335.01 182.76 334.65 180.7C335.51 182.61 336.2 184.59 336.73 186.61C337.42 188.59 337.95 190.62 338.31 192.68Z" fill="#263238"/>
<path d="M340.25 170.08C340.13 170.08 339.25 167.81 338.07 165.01C337.25 163.35 336.68 161.58 336.37 159.75C336.5 159.75 337.37 162.02 338.55 164.81C339.37 166.48 339.94 168.25 340.25 170.08Z" fill="#263238"/>
<path d="M338.92 183.38C338.17 182.12 337.56 180.78 337.11 179.38C336.5 178.04 336.06 176.64 335.78 175.2C336.54 176.46 337.15 177.8 337.59 179.2C338.2 180.54 338.64 181.94 338.92 183.38Z" fill="#263238"/>
<path d="M339.5 176.36C338.71 175.05 338.08 173.66 337.62 172.2C336.99 170.81 336.52 169.36 336.23 167.86C337.01 169.17 337.63 170.57 338.1 172.02C338.72 173.41 339.19 174.87 339.5 176.36Z" fill="#263238"/>
<path d="M251.86 98.9001C252.16 99.4101 252.35 99.9701 252.42 100.56C252.56 101.19 252.65 101.82 252.68 102.46C252.73 102.86 252.68 103.27 252.56 103.66C252.39 104.15 251.92 104.47 251.4 104.47C250.92 104.45 250.47 104.23 250.17 103.86C249.92 103.56 249.73 103.22 249.59 102.86C249.36 102.24 249.26 101.59 249.29 100.93C249.26 100.33 249.42 99.7301 249.75 99.2201C249.84 99.2201 249.61 99.8801 249.66 100.93C249.68 101.53 249.81 102.12 250.04 102.68C250.28 103.3 250.72 103.99 251.4 103.99C252.08 103.99 252.25 103.18 252.2 102.52C252.2 101.9 252.14 101.28 252.06 100.66C251.93 100.08 251.87 99.4901 251.86 98.9001Z" fill="#FAFAFA"/>
<path d="M269.75 159.18V158.19C269.77 158.27 269.77 158.36 269.75 158.44L269.81 159.18" fill="#455A64"/>
<path d="M217.32 399.31C187.95 397.61 156.32 391.64 140.62 385.83C125.94 380.38 109.38 372.54 99.3204 352.01C96.4304 346.84 94.4104 341.23 93.3204 335.41C90.9904 324.79 87.0104 300.13 93.5404 276.64C88.5404 281.25 84.5404 290.13 81.7104 303.75C76.7904 327.61 79.8504 346.66 86.5804 360.75C96.1104 380.64 117.66 395.13 132.25 399.97C160.25 409.26 185.36 412.88 216.38 414.67C258.08 417.08 305.31 421.89 326.32 440.92L335.93 430.31C310.34 407.12 264.08 402.02 217.32 399.31Z" fill="#B840CD"/>
<path d="M93.29 335.41C90.72 322.8 91.69 309.54 96.55 300.36C102.64 288.87 115.89 281.36 118.99 281.07H118.89V263.63C111.64 263.63 101.79 269.02 93.51 276.63C86.98 300.13 90.96 324.79 93.29 335.41Z" fill="#82318A"/>
<path d="M95.5603 343.74C95.4403 343.53 95.3403 343.31 95.2803 343.08C95.1203 342.63 94.8503 341.98 94.5903 341.08C93.8103 338.66 93.1803 336.2 92.6803 333.71C92.0303 330.56 91.4503 326.77 91.0003 322.54C90.5503 318.31 90.2203 313.65 89.8403 308.77C89.4003 304.17 89.3203 299.54 89.6003 294.93C89.8303 291.16 90.5103 287.43 91.6003 283.81C92.3503 281.39 93.3303 279.05 94.5203 276.81C94.9303 276.01 95.3203 275.43 95.5203 275.02C95.6303 274.81 95.7604 274.6 95.9104 274.41C95.8304 274.64 95.7303 274.86 95.6103 275.07C95.4003 275.49 95.0403 276.07 94.6703 276.91C93.5503 279.17 92.6204 281.53 91.9104 283.96C90.8704 287.54 90.2303 291.23 90.0003 294.96C89.7403 299.55 89.8403 304.15 90.2803 308.73C90.6603 313.61 90.9703 318.27 91.4003 322.49C91.8303 326.71 92.4003 330.49 92.9603 333.64C93.5203 336.79 94.2003 339.3 94.7003 341.02C94.9403 341.89 95.1704 342.55 95.3004 343.02C95.4004 343.25 95.4903 343.49 95.5603 343.74Z" fill="#263238"/>
<path d="M128.27 387.26C128.05 386.22 128.05 385.15 128.27 384.11C128.31 383.05 128.57 382.01 129.03 381.05C129.07 382.1 128.99 383.14 128.78 384.17C128.73 385.22 128.56 386.25 128.27 387.26Z" fill="#263238"/>
<path d="M132.11 388.1C132.05 387.22 132.11 386.34 132.31 385.48C132.35 384.6 132.5 383.73 132.78 382.9C133.08 384.66 132.84 386.47 132.11 388.1Z" fill="#263238"/>
<path d="M135.95 393.79C135.9 392.26 136.03 390.74 136.34 389.24C136.47 387.71 136.78 386.21 137.25 384.75C137.16 387.79 136.73 390.81 135.95 393.75V393.79Z" fill="#263238"/>
<path d="M115.35 378.88C115.13 377.84 115.13 376.77 115.35 375.73C115.39 374.67 115.65 373.63 116.11 372.67C116.03 374.76 115.79 376.83 115.39 378.88H115.35Z" fill="#263238"/>
<path d="M119.03 380.73C118.97 379.85 119.04 378.97 119.24 378.11C119.26 377.23 119.42 376.36 119.71 375.53C119.92 376.4 119.92 377.31 119.71 378.18C119.69 379.07 119.46 379.95 119.03 380.73Z" fill="#263238"/>
<path d="M122.67 387.17C122.76 384.13 123.19 381.11 123.97 378.17C124.02 379.7 123.89 381.23 123.58 382.73C123.44 384.24 123.14 385.73 122.67 387.17Z" fill="#263238"/>
<path d="M140.43 391.12C140.29 390.28 140.34 389.43 140.56 388.61C140.61 387.76 140.83 386.94 141.21 386.18C141.29 387.86 141.02 389.54 140.43 391.12Z" fill="#263238"/>
<path d="M144.36 392.96C144.26 392.03 144.33 391.09 144.57 390.19C144.65 389.26 144.89 388.35 145.29 387.5C145.4 388.43 145.33 389.38 145.08 390.28C145.01 391.21 144.77 392.12 144.36 392.96Z" fill="#263238"/>
<path d="M147.16 397.56C147.18 396.02 147.38 394.49 147.74 392.99C147.93 391.46 148.3 389.96 148.83 388.51C148.61 391.58 148.05 394.62 147.16 397.56Z" fill="#263238"/>
<path d="M151.72 395.39C151.58 394.39 151.62 393.37 151.85 392.39C151.89 391.4 152.11 390.42 152.49 389.5C152.63 390.5 152.59 391.52 152.36 392.5C152.31 393.49 152.1 394.47 151.72 395.39Z" fill="#263238"/>
<path d="M155.76 396.4C155.73 395.46 155.84 394.51 156.09 393.6C156.17 392.66 156.39 391.74 156.74 390.86C156.9 391.8 156.85 392.77 156.6 393.69C156.51 394.64 156.23 395.57 155.76 396.4Z" fill="#263238"/>
<path d="M159.29 401.51C159.29 399.83 159.44 398.16 159.77 396.51C159.94 394.83 160.27 393.18 160.77 391.57C160.79 393.25 160.63 394.92 160.29 396.57C160.13 398.25 159.79 399.9 159.29 401.51Z" fill="#263238"/>
<path d="M165.14 398.83C165 397.85 165.04 396.86 165.26 395.9C165.3 394.92 165.52 393.95 165.9 393.05C166.03 394.02 165.99 395.01 165.78 395.97C165.73 396.95 165.52 397.92 165.14 398.83Z" fill="#263238"/>
<path d="M169.07 399.5C168.95 397.38 169.17 395.26 169.72 393.21C169.87 394.26 169.85 395.33 169.66 396.38C169.64 397.45 169.44 398.5 169.07 399.5Z" fill="#263238"/>
<path d="M173.64 403.35C173.67 400.41 174.05 397.49 174.78 394.65C174.83 396.12 174.71 397.58 174.43 399.02C174.33 400.49 174.07 401.94 173.64 403.35Z" fill="#263238"/>
<path d="M179.8 401.42C179.61 400.41 179.59 399.37 179.74 398.35C179.72 397.31 179.88 396.28 180.2 395.3C180.41 397.35 180.28 399.42 179.8 401.42Z" fill="#263238"/>
<path d="M184.18 402.02C184.08 400.01 184.33 398 184.91 396.07C185.04 397.07 185 398.08 184.8 399.07C184.77 400.08 184.56 401.08 184.18 402.02Z" fill="#263238"/>
<path d="M188.2 406.29C188.13 404.68 188.24 403.07 188.51 401.48C188.61 399.87 188.89 398.28 189.34 396.73C189.31 399.95 188.93 403.15 188.2 406.29Z" fill="#263238"/>
<path d="M194.23 403.85C194.04 402.75 194.02 401.63 194.18 400.53C194.16 399.41 194.32 398.3 194.64 397.23C194.86 399.44 194.72 401.68 194.23 403.85Z" fill="#263238"/>
<path d="M199.67 404.11C199.5 402.09 199.69 400.06 200.23 398.11C200.4 399.1 200.4 400.12 200.23 401.11C200.23 402.13 200.03 403.15 199.67 404.11Z" fill="#263238"/>
<path d="M204.43 408.8C204.39 407.06 204.48 405.32 204.7 403.59C204.74 401.85 204.92 400.11 205.22 398.4C205.44 400.14 205.44 401.89 205.22 403.63C205.17 405.38 204.9 407.11 204.43 408.8Z" fill="#263238"/>
<path d="M210.72 405.02C210.45 402.98 210.53 400.91 210.97 398.9C211.18 399.91 211.23 400.95 211.1 401.97C211.14 403 211.01 404.03 210.72 405.02Z" fill="#263238"/>
<path d="M216.68 405.7C216.46 404.68 216.41 403.63 216.53 402.59C216.48 401.54 216.6 400.5 216.9 399.49C217.12 400.52 217.17 401.57 217.05 402.61C217.1 403.65 216.98 404.7 216.68 405.7Z" fill="#263238"/>
<path d="M222.07 410.56C222.07 406.87 222.43 403.19 223.12 399.56C223.12 403.25 222.77 406.94 222.07 410.56Z" fill="#263238"/>
<path d="M228.97 406.62C228.72 405.58 228.65 404.5 228.74 403.43C228.67 402.36 228.77 401.29 229.03 400.25C229.28 401.29 229.35 402.37 229.26 403.44C229.33 404.51 229.23 405.58 228.97 406.62Z" fill="#263238"/>
<path d="M234.55 407.46C234.32 406.35 234.31 405.21 234.5 404.1C234.54 402.98 234.78 401.87 235.21 400.83C235.28 401.94 235.21 403.06 235.02 404.16C234.99 405.27 234.83 406.38 234.55 407.46Z" fill="#263238"/>
<path d="M238.65 411.02C238.58 409.35 238.68 407.67 238.94 406.02C239.03 404.33 239.3 402.65 239.75 401.02C239.82 402.69 239.72 404.37 239.46 406.02C239.36 407.71 239.09 409.38 238.65 411.02Z" fill="#263238"/>
<path d="M244.55 408.54C244.38 407.33 244.38 406.09 244.55 404.88C244.55 403.65 244.75 402.43 245.1 401.25C245.27 402.47 245.27 403.7 245.1 404.92C245.09 406.15 244.9 407.37 244.55 408.54Z" fill="#263238"/>
<path d="M250.19 408.3C250.06 407.25 250.1 406.19 250.31 405.16C250.36 404.11 250.57 403.07 250.94 402.09C251.08 403.14 251.04 404.2 250.83 405.23C250.78 406.28 250.57 407.32 250.19 408.3Z" fill="#263238"/>
<path d="M255.43 412.07C255.44 410.53 255.58 409 255.84 407.48C255.93 405.95 256.14 404.43 256.49 402.93C256.67 406.02 256.31 409.11 255.43 412.07Z" fill="#263238"/>
<path d="M261.12 409.47C261 408.4 261.05 407.31 261.27 406.25C261.33 405.17 261.55 404.11 261.94 403.1C262.07 404.17 262.02 405.26 261.79 406.32C261.73 407.4 261.51 408.46 261.12 409.47Z" fill="#263238"/>
<path d="M266.61 410.64C266.47 409.53 266.52 408.4 266.74 407.3C266.8 406.18 267.03 405.07 267.43 404.02C267.51 406.26 267.24 408.49 266.64 410.65H266.61V410.64Z" fill="#263238"/>
<path d="M270.67 414.67C270.83 411.36 271.33 408.07 272.16 404.86C272.17 406.52 272.01 408.18 271.67 409.8C271.51 411.45 271.17 413.09 270.67 414.67Z" fill="#263238"/>
<path d="M275.69 411.65C275.81 409.62 276.16 407.6 276.74 405.65C276.87 406.68 276.81 407.72 276.55 408.73C276.45 409.75 276.16 410.74 275.69 411.65Z" fill="#263238"/>
<path d="M280.7 412.57C280.63 410.5 280.9 408.43 281.51 406.45C281.64 407.48 281.59 408.53 281.36 409.54C281.31 410.58 281.09 411.6 280.7 412.57Z" fill="#263238"/>
<path d="M284.24 417.59C284.24 415.91 284.39 414.24 284.73 412.59C284.89 410.91 285.23 409.26 285.73 407.65C285.73 409.33 285.57 411 285.23 412.65C285.07 414.33 284.73 415.98 284.24 417.59Z" fill="#263238"/>
<path d="M288.91 414.33C288.81 413.32 288.91 412.31 289.17 411.33C289.26 410.33 289.53 409.35 289.95 408.43C290.03 409.44 289.95 410.45 289.68 411.43C289.59 412.43 289.33 413.41 288.91 414.33Z" fill="#263238"/>
<path d="M293.66 415.59C293.55 414.59 293.62 413.57 293.86 412.59C293.93 411.58 294.17 410.58 294.57 409.65C294.67 410.65 294.6 411.67 294.37 412.65C294.3 413.66 294.06 414.66 293.66 415.59Z" fill="#263238"/>
<path d="M298.09 419.11C298.06 417.74 298.2 416.37 298.51 415.04C298.65 413.67 298.97 412.33 299.45 411.04C299.48 412.41 299.34 413.78 299.03 415.11C298.89 416.48 298.57 417.82 298.09 419.11Z" fill="#263238"/>
<path d="M302.65 417.7C302.55 416.79 302.62 415.88 302.86 415C302.93 414.09 303.18 413.2 303.59 412.39C303.69 413.3 303.61 414.21 303.38 415.09C303.31 416 303.06 416.88 302.65 417.7Z" fill="#263238"/>
<path d="M307.2 419.61C307.13 418.66 307.23 417.7 307.51 416.79C307.62 415.84 307.89 414.92 308.32 414.07C308.4 415.02 308.3 415.98 308.02 416.9C307.91 417.84 307.63 418.76 307.2 419.61Z" fill="#263238"/>
<path d="M309.43 424.45C309.85 421.37 310.61 418.36 311.7 415.45C311.57 417 311.28 418.54 310.82 420.03C310.52 421.55 310.06 423.03 309.43 424.45Z" fill="#263238"/>
<path d="M314.54 423.02C314.62 422.05 314.82 421.1 315.14 420.19C315.3 419.23 315.58 418.3 315.97 417.41C316.08 418.39 315.97 419.38 315.64 420.31C315.48 421.28 315.11 422.21 314.54 423.02Z" fill="#263238"/>
<path d="M318.92 424.81C318.89 423.9 319.03 422.99 319.34 422.13C319.48 421.23 319.8 420.37 320.27 419.59C320.15 421.4 319.69 423.17 318.92 424.81Z" fill="#263238"/>
<path d="M321.56 428.9C321.84 427.71 322.25 426.56 322.78 425.46C323.16 424.3 323.66 423.18 324.27 422.12C323.85 424.54 322.93 426.85 321.56 428.9Z" fill="#263238"/>
<path d="M109.74 380.02C109.89 376.19 110.38 372.38 111.21 368.63C111.06 372.46 110.57 376.27 109.74 380.02Z" fill="#263238"/>
<path d="M106.66 372.22C106.62 370.97 106.74 369.71 107.04 368.49C107.17 367.24 107.47 366.02 107.93 364.86C107.85 367.36 107.42 369.84 106.66 372.22Z" fill="#263238"/>
<path d="M103.14 367.09C103.04 365.99 103.14 364.88 103.43 363.82C103.56 362.73 103.9 361.67 104.43 360.71C104.4 361.8 104.22 362.88 103.91 363.93C103.79 365.01 103.53 366.07 103.14 367.09Z" fill="#263238"/>
<path d="M99.2803 367.09C99.3903 365.18 99.6603 363.27 100.11 361.41C100.38 359.51 100.83 357.64 101.43 355.82C101.32 357.74 101.05 359.64 100.6 361.51C100.33 363.41 99.8803 365.27 99.2803 367.09Z" fill="#263238"/>
<path d="M96.4302 359.41C96.5502 357.95 96.8402 356.5 97.3102 355.11C97.6002 353.67 98.0702 352.28 98.6902 350.95C98.2702 353.85 97.5202 356.69 96.4302 359.41Z" fill="#263238"/>
<path d="M321.56 437.67L329.02 424.81L337.52 431.24L326.49 442.46L321.56 437.67Z" fill="#E0E0E0"/>
<path d="M325.15 328.79C316.45 318.21 311.49 305.07 311.02 291.38L300.36 282.85L312.28 276.52C319.27 242.74 352.32 221.02 386.1 228.02C419.88 235.01 441.6 268.06 434.6 301.84C427.6 335.62 394.56 357.34 360.78 350.34C346.79 347.44 334.21 339.84 325.15 328.79Z" fill="white"/>
<path d="M325.15 328.79C325.15 328.79 325.4 329.05 325.85 329.56C326.3 330.07 326.96 330.88 327.91 331.83C330.6 334.7 333.56 337.3 336.74 339.6C341.78 343.23 347.34 346.1 353.22 348.11C385.74 359.23 421.12 341.89 432.24 309.37C443.36 276.85 426.02 241.47 393.5 230.35C379.28 225.49 363.79 225.93 349.88 231.6C330.7 239.44 316.67 256.31 312.48 276.6V276.69H312.39L300.43 283.02V282.71L311.07 291.25H311.13V291.33C311.46 301.36 314.21 311.16 319.13 319.9C320.44 322.2 321.89 324.42 323.45 326.56L324.69 328.18C324.97 328.55 325.1 328.74 325.1 328.74C325.1 328.74 324.94 328.57 324.66 328.21C324.38 327.85 323.93 327.31 323.38 326.61C321.78 324.49 320.31 322.28 318.98 319.98C313.97 311.24 311.17 301.41 310.81 291.34L310.87 291.46L300.25 283.02L300.03 282.84L300.28 282.71L312.18 276.36L312.08 276.5C314.04 267.06 318.14 258.2 324.08 250.6C338.41 232.21 361.78 223.31 384.71 227.5C411.52 232.34 432.14 253.95 435.71 280.96C439 305.66 427.33 329.95 405.99 342.82C390.1 352.42 370.76 354.47 353.21 348.42C347.31 346.38 341.75 343.47 336.7 339.79C333.53 337.46 330.59 334.83 327.92 331.93C326.01 329.92 325.15 328.79 325.15 328.79Z" fill="#263238"/>
<path d="M330.82 239.93C327.09 258.86 320.71 291.87 317.26 309.8C315.9 316.84 320.17 323.75 327.07 325.69L399.13 345.94C406.25 347.94 413.68 343.97 415.97 336.94L438.58 268.02C440.96 260.79 437.03 253 429.81 250.62C429.53 250.53 429.25 250.44 428.96 250.37L347.84 229.22C340.47 227.3 332.94 231.71 331.01 239.08C330.94 239.36 330.87 239.65 330.82 239.93Z" fill="#BF0603"/>
<path d="M364.8 245.83C365.06 246.17 372.38 260.38 372.38 260.38C372.38 260.38 382.45 256.95 392.74 265.64L407.8 256.64C407.8 256.64 401.61 247.24 385.48 243.96C372.43 241.27 364.8 245.83 364.8 245.83Z" fill="white"/>
<path d="M392.68 266.28L392.43 266.02C382.49 257.61 372.68 260.82 372.58 260.86L372.15 261L371.95 260.6C369.07 255.01 364.68 246.54 364.4 246.1L364.11 245.65L364.56 245.36C364.88 245.17 372.48 240.72 385.56 243.36C401.72 246.64 407.96 255.87 408.21 256.27L408.51 256.72L392.68 266.28ZM377.43 259.21C383.07 259.28 388.51 261.34 392.79 265.02L407.03 256.47C405.57 254.59 399.09 247.24 385.37 244.47C374.37 242.24 367.31 245.2 365.52 246.08C366.7 248.27 370.97 256.53 372.65 259.8C374.21 259.4 375.82 259.2 377.43 259.21Z" fill="#263238"/>
<path d="M372.3 243.51C372.67 244.3 372.93 245.15 373.06 246.01C373.41 247.42 373.45 248.63 373.28 248.64C372.91 247.85 372.66 247 372.53 246.14C372.18 244.74 372.13 243.52 372.3 243.51Z" fill="#263238"/>
<path d="M374.87 246.02C374.73 246.07 374.4 245.48 374.26 244.67C374.12 243.86 374.26 243.18 374.38 243.18C374.5 243.18 374.66 243.81 374.8 244.57C374.94 245.33 375.02 246.02 374.87 246.02Z" fill="#263238"/>
<path d="M376.78 245.91C376.63 245.91 376.4 245.27 376.26 244.43C376.12 243.59 376.14 242.88 376.26 242.85C376.38 242.82 376.64 243.49 376.78 244.34C376.92 245.19 376.93 245.89 376.78 245.91Z" fill="#263238"/>
<path d="M378.43 245.94C378.28 245.94 378.11 245.27 378.04 244.42C377.97 243.57 378.04 242.87 378.18 242.85C378.32 242.83 378.51 243.52 378.58 244.38C378.65 245.24 378.59 245.93 378.43 245.94Z" fill="#263238"/>
<path d="M380.3 245.85C380.15 245.85 380.03 245.21 380.04 244.42C380.04 243.63 380.18 243 380.33 243.01C380.48 243.02 380.59 243.64 380.59 244.43C380.59 245.22 380.43 245.85 380.3 245.85Z" fill="#263238"/>
<path d="M382.19 246.2C382.04 246.2 382.01 245.5 382.05 244.66C382.09 243.82 382.18 243.15 382.33 243.14C382.48 243.14 382.63 243.83 382.59 244.69C382.55 245.55 382.34 246.22 382.19 246.2Z" fill="#263238"/>
<path d="M384.06 246.55C383.91 246.55 383.86 245.88 383.95 245.12C384.04 244.36 384.23 243.75 384.38 243.76C384.53 243.77 384.58 244.4 384.49 245.18C384.4 245.96 384.21 246.57 384.06 246.55Z" fill="#263238"/>
<path d="M386.49 249.66C386.63 247.86 387.13 246.11 387.98 244.52C388 245.43 387.83 246.33 387.49 247.17C387.32 248.06 386.98 248.9 386.49 249.66Z" fill="#263238"/>
<path d="M385.68 246.69C385.53 246.69 385.51 246.07 385.57 245.36C385.63 244.65 385.73 244.07 385.88 244.06C386.03 244.06 386.17 244.66 386.11 245.4C386.05 246.14 385.82 246.71 385.68 246.69Z" fill="#263238"/>
<path d="M398.82 255.28C398.7 255.19 399.26 254.21 400.18 253.17C401.1 252.13 402 251.45 402.1 251.56C402.2 251.67 401.49 252.56 400.59 253.56C399.69 254.56 398.94 255.37 398.82 255.28Z" fill="#263238"/>
<path d="M368.51 247.52C368.37 247.58 367.95 246.98 367.56 246.17C367.17 245.36 366.97 244.65 367.1 244.58C367.23 244.51 367.66 245.12 368.05 245.93C368.44 246.74 368.64 247.45 368.51 247.52Z" fill="#263238"/>
<path d="M370.78 246.8C370.65 246.86 370.24 246.33 369.97 245.57C369.7 244.81 369.65 244.14 369.8 244.1C369.95 244.06 370.21 244.65 370.48 245.38C370.75 246.11 370.92 246.73 370.78 246.8Z" fill="#263238"/>
<path d="M398.14 252.75C398.05 252.64 398.59 252.02 399.27 251.28C399.95 250.54 400.54 249.96 400.66 250.04C400.78 250.12 400.38 250.89 399.66 251.65C398.94 252.41 398.23 252.88 398.14 252.75Z" fill="#263238"/>
<path d="M396.61 251.61C396.49 251.51 396.87 250.92 397.44 250.28C398.01 249.64 398.57 249.21 398.69 249.28C398.81 249.35 398.42 249.98 397.85 250.62C397.28 251.26 396.72 251.72 396.61 251.61Z" fill="#263238"/>
<path d="M395.19 250.73C395.07 250.64 395.4 250.02 395.92 249.34C396.44 248.66 396.97 248.19 397.09 248.28C397.21 248.37 396.88 248.99 396.35 249.67C395.82 250.35 395.31 250.82 395.19 250.73Z" fill="#263238"/>
<path d="M393.69 249.64C393.56 249.56 393.8 248.96 394.22 248.3C394.64 247.64 395.08 247.16 395.22 247.24C395.36 247.32 395.11 247.93 394.69 248.59C394.27 249.25 393.81 249.72 393.69 249.64Z" fill="#263238"/>
<path d="M391.9 248.91C391.77 248.85 391.96 248.16 392.39 247.42C392.82 246.68 393.33 246.18 393.46 246.27C393.59 246.36 393.29 246.98 392.86 247.7C392.43 248.42 392.04 249.02 391.9 248.91Z" fill="#263238"/>
<path d="M390.16 248.18C390.02 248.13 390.16 247.51 390.53 246.8C390.9 246.09 391.27 245.59 391.4 245.67C391.53 245.75 391.4 246.36 391.02 247.05C390.64 247.74 390.29 248.24 390.16 248.18Z" fill="#263238"/>
<path d="M388.97 247.53C388.83 247.53 388.81 246.88 389.03 246.17C389.25 245.46 389.59 244.95 389.73 245C389.87 245.05 389.73 245.64 389.55 246.33C389.37 247.02 389.12 247.55 388.97 247.53Z" fill="#263238"/>
<path d="M401.66 254.78C401.58 254.65 402.07 254.23 402.66 253.78C403.25 253.33 403.82 252.97 403.93 253.08C404.04 253.19 403.64 253.73 402.99 254.22C402.34 254.71 401.73 254.91 401.66 254.78Z" fill="#263238"/>
<path d="M403.43 256.38C403.35 256.25 403.83 255.83 404.43 255.38C405.03 254.93 405.59 254.57 405.7 254.68C405.81 254.79 405.41 255.33 404.76 255.81C404.11 256.29 403.52 256.51 403.43 256.38Z" fill="#263238"/>
<path d="M385.43 253.74C385.2 253.94 380.6 259.95 380.6 259.95L386.94 261.88L385.43 253.74Z" fill="#BF0603"/>
<g opacity="0.3">
<path d="M354.96 235.26L378.06 277.59L422.92 252.86L430.29 254.8C435.17 256.08 438.09 261.08 436.8 265.96C436.74 266.2 436.66 266.45 436.58 266.69L413.5 331.79C411.2 339.04 403.56 343.16 396.24 341.08C377.92 335.88 345.12 326.65 328.79 322.61C323.1 321.2 319.2 313.71 320.35 307.96L333.19 243.52C334.17 236.74 340.46 232.03 347.24 233.01C347.9 233.11 348.55 233.25 349.19 233.45L354.96 235.26Z" fill="black"/>
</g>
<path d="M342.01 160.73C327.07 159.32 313.01 153.01 302.01 142.79L287.13 144.48L291.43 130.32C270.55 98.7502 279.21 56.2402 310.78 35.3602C342.35 14.4802 384.86 23.1402 405.74 54.7102C426.62 86.2802 417.96 128.79 386.39 149.67C373.31 158.32 357.66 162.23 342.05 160.73H342.01Z" fill="white"/>
<path d="M342.01 160.73H343.16C343.92 160.73 345.04 160.9 346.52 160.89C350.83 161.01 355.14 160.73 359.39 160.04C362.46 159.52 365.49 158.81 368.47 157.91C372 156.81 375.44 155.44 378.76 153.81C412.6 137.12 426.51 96.16 409.82 62.32C393.13 28.48 352.17 14.5701 318.33 31.2601C303.51 38.5701 291.84 50.99 285.48 66.24C276.74 87.23 279.01 111.19 291.54 130.16L291.59 130.24V130.32L287.29 144.48L287.1 144.26L301.98 142.58H302.05V142.63C310.11 150.13 319.86 155.58 330.48 158.5C333.29 159.26 336.13 159.86 339.01 160.29L341.23 160.58C341.73 160.64 341.98 160.69 341.98 160.69L341.23 160.62L338.99 160.38C336.11 159.98 333.25 159.41 330.44 158.67C319.77 155.8 309.95 150.37 301.84 142.86H301.96L287.09 144.58H286.82L286.9 144.32L291.17 130.15V130.31C285.33 121.5 281.6 111.47 280.27 100.99C277.06 75.6301 288.2 50.5901 309.18 35.9901C333.68 18.8901 366.42 19.58 390.18 37.6901C411.92 54.2301 421.79 82.09 415.31 108.63C410.48 128.41 397.13 145.04 378.86 154.02C372.73 157.07 366.18 159.19 359.42 160.29C355.15 160.96 350.83 161.22 346.51 161.05C345.03 161.05 343.91 160.88 343.15 160.84L342 160.73H342.01Z" fill="#263238"/>
<path d="M303.37 62.0202C303.37 62.0202 315.86 63.4402 322.74 71.4502C329.62 79.4602 331.44 85.3802 331.44 85.3802C331.44 85.3802 335.62 85.5402 341.26 82.0202C344.46 80.1302 347.1 77.4202 348.9 74.1702C348.9 74.1702 345.42 71.1102 339.62 61.8202C333.82 52.5302 339 39.7602 339 39.7602L332.69 38.9402C332.69 38.9402 329.97 48.9402 330.12 55.6602L322.43 43.3402L314.08 48.5502L322.17 61.4902C315.64 56.8102 306.47 55.9402 306.47 55.9402L303.37 62.0202Z" fill="#564F4C"/>
<path d="M303.73 70.6401C296.3 76.4901 287.56 73.8001 284.49 66.7301C281.62 68.0201 272.11 67.2201 269.23 58.7301C266.79 51.5401 272.35 44.7301 278.23 42.6201C274.44 37.7901 274.04 31.1101 277.23 25.8601C280.63 20.6701 286.83 18.0501 292.92 19.2101C293.05 11.6301 297.76 4.88007 304.83 2.13007C311.94 -0.409931 319.88 1.67007 324.83 7.37007C327.01 1.66007 334.35 -1.54993 339.98 0.750069C345.61 3.05007 348.4 10.4001 345.75 15.9201C350.95 15.6401 355.76 18.6601 357.75 23.4701C359.51 28.3801 358.03 33.8701 354.04 37.2301C350.04 40.4801 345.1 41.4901 340.82 38.8201C339.74 42.0601 335.53 43.9601 332.13 44.2901C328.67 44.5901 325.35 42.8301 323.66 39.7901C324.12 44.1201 321.37 48.1001 317.91 50.8701C314.45 53.6401 311.59 53.3301 306.29 52.0801C310.43 60.0201 310.09 65.6401 303.73 70.6401Z" fill="#8DB600"/>
<g opacity="0.3">
<path d="M326.96 21.8401C326.89 21.8401 326.53 21.4101 325.71 20.7401C324.54 19.8301 323.17 19.2001 321.71 18.9101C317.08 17.8401 312.45 20.7201 311.38 25.3601C311.3 25.7201 311.24 26.0901 311.2 26.4501C310.98 27.9701 311.19 29.5101 311.79 30.9201L312.36 32.2201L311.18 31.4301C309.39 30.2901 307.17 30.0501 305.18 30.7801C303.58 31.3701 302.27 32.5501 301.52 34.0801C300.87 35.4801 300.61 37.0301 300.77 38.5701C300.56 38.2001 300.45 37.7801 300.45 37.3501C300.34 36.1601 300.54 34.9501 301.04 33.8601C301.79 32.1401 303.19 30.7901 304.94 30.1201C307.15 29.2601 309.64 29.4901 311.65 30.7501L311.04 31.2701C310.36 29.7301 310.12 28.0301 310.36 26.3601C310.74 23.4201 312.43 20.8001 314.96 19.2501C317.06 18.0901 319.52 17.7601 321.85 18.3301C323.38 18.6801 324.8 19.4301 325.95 20.5001C326.38 20.8701 326.72 21.3301 326.96 21.8401Z" fill="black"/>
</g>
<g opacity="0.3">
<path d="M283.7 63.0202C283.62 63.0202 283.17 62.5602 282.94 61.5102C282.68 60.1202 282.91 58.6802 283.59 57.4402C284.24 56.1802 285.3 55.1702 286.59 54.5802C287.59 54.1702 288.29 54.2402 288.29 54.3302C288.29 54.4202 287.69 54.6102 286.86 55.1102C285.78 55.7702 284.9 56.7102 284.31 57.8202C283.72 58.9202 283.44 60.1702 283.51 61.4202C283.59 62.3302 283.82 62.9102 283.7 63.0202Z" fill="black"/>
</g>
<path d="M377.43 47.8401C378.87 45.1501 379.17 41.9901 378.26 39.0801C377.31 36.1401 375.25 33.7001 372.52 32.2601C372.28 32.1001 371.99 32.0301 371.7 32.0701C371.31 32.1701 371.14 32.6201 371.04 33.0101C370.34 35.8501 370.57 38.8401 371.68 41.5501C372.83 44.2801 374.79 46.5801 377.31 48.1401" fill="#455A64"/>
<path d="M354.96 62.31C355.75 68.89 358.4 74.08 363.28 76C364.28 76.38 365.22 76 366.19 76.29C366.7 76.6 367.16 76.99 367.56 77.43C367.78 77.63 368.04 77.79 368.32 77.9C373.52 79.43 379.12 77.44 384.14 72.59C391.14 65.78 393.02 56.48 388.34 51.8C387.72 51.18 387.05 50.61 386.34 50.11C385.51 49.55 384.61 49.1 383.65 48.8C381.4 48.16 379.07 47.88 376.74 47.96H376.43C372.56 44.36 368.9 43.06 364.76 43.49C358.19 44.21 353.8 52.63 354.96 62.31Z" fill="#8DB600"/>
<path d="M358.02 54.0201C357.93 53.4101 357.97 52.7901 358.14 52.2001C358.47 50.7201 359.16 49.3501 360.14 48.2001C361.11 47.0601 362.34 46.1601 363.72 45.5801C364.28 45.3101 364.9 45.1601 365.52 45.1301C365.52 45.2001 364.85 45.3601 363.84 45.8401C362.53 46.4701 361.37 47.3801 360.43 48.4901C359.51 49.5901 358.82 50.8601 358.43 52.2401C358.12 53.3001 358.09 54.0201 358.02 54.0201Z" fill="#FAFAFA"/>
<path d="M357.66 58.28C357.55 58.28 357.51 57.81 357.57 57.28C357.63 56.75 357.77 56.28 357.88 56.28C357.99 56.28 358.04 56.75 357.98 57.28C357.92 57.81 357.78 58.29 357.66 58.28Z" fill="#FAFAFA"/>
<path d="M393.85 38.4501C393.85 38.5301 392.63 38.5501 390.71 38.9201C389.59 39.1401 388.49 39.4501 387.42 39.8301C386.12 40.3201 384.86 40.9101 383.66 41.6101C382.47 42.3101 381.35 43.1201 380.3 44.0201C379.46 44.7701 378.67 45.5801 377.95 46.4501C376.73 48.0201 376.15 49.0201 376.08 49.0201C376.18 48.7501 376.3 48.5001 376.45 48.2601C376.6 47.9701 376.77 47.6801 376.96 47.4101C377.18 47.0901 377.41 46.7101 377.72 46.3301C378.42 45.4201 379.2 44.5701 380.05 43.8001C381.09 42.8501 382.22 42.0001 383.43 41.2601C384.66 40.5501 385.94 39.9501 387.28 39.4801C388.38 39.1001 389.5 38.8201 390.65 38.6401C391.13 38.5401 391.58 38.5201 391.97 38.4701C392.3 38.4501 392.64 38.4501 392.97 38.4701C393.26 38.4401 393.56 38.4301 393.85 38.4501Z" fill="#263238"/>
<path d="M354.15 105.82C357.15 102.61 358.79 96.6002 359.44 92.2302C360.08 87.8202 359.36 83.3102 357.37 79.3202C357.26 79.0302 357.05 78.7802 356.77 78.6402C356.45 78.5702 356.11 78.6402 355.83 78.8102C348.11 82.6302 344.94 91.9902 348.76 99.7102C349.98 102.18 351.84 104.29 354.15 105.81" fill="#455A64"/>
<path d="M363.74 94.4401C366.98 93.6301 370.44 90.4401 372.63 87.9201C374.83 85.3701 376.19 82.2101 376.55 78.8601C376.6 78.6301 376.55 78.3901 376.44 78.1801C376.26 78.0101 376.02 77.9101 375.77 77.9101C369.29 77.2301 363.49 81.9301 362.81 88.4001C362.59 90.4601 362.92 92.5401 363.77 94.4401" fill="#455A64"/>
<path d="M362.08 105.49C362.53 103.23 361.73 100.9 359.98 99.4001C358.23 97.9401 356 97.1601 353.72 97.2001C351.72 97.1501 349.75 97.6701 348.04 98.7101C344.67 100.69 343.55 105.02 345.53 108.39C345.93 109.07 346.44 109.68 347.04 110.19C348.93 111.86 351.37 112.76 353.89 112.7C356.01 112.77 358.07 112.02 359.64 110.6C361.14 109.14 362.28 107.14 362.11 105.49" fill="#8DB600"/>
<path d="M383.75 111.7C392.24 113.23 400.69 103.81 402.75 97.7C403.28 96.96 403.1 95.9301 402.35 95.4001C401.86 95.0501 401.21 95 400.67 95.27C392.03 96.45 385.17 103.13 383.76 111.73" fill="#455A64"/>
<path d="M393.31 107.02C393.77 104.76 392.97 102.42 391.21 100.92C389.45 99.4701 387.23 98.6901 384.95 98.7301C382.95 98.6801 380.98 99.2001 379.27 100.24C375.9 102.23 374.78 106.57 376.77 109.94C377.17 110.61 377.67 111.22 378.27 111.72C380.16 113.39 382.6 114.29 385.12 114.23C387.24 114.3 389.3 113.55 390.87 112.13C392.37 110.66 393.51 108.67 393.34 107.02" fill="#8DB600"/>
<path d="M331.12 93.7C331.58 91.44 330.78 89.1 329.02 87.6C327.26 86.15 325.04 85.37 322.76 85.41C320.76 85.36 318.79 85.88 317.08 86.92C313.71 88.91 312.59 93.25 314.58 96.62C314.98 97.29 315.48 97.9 316.08 98.4C317.97 100.07 320.41 100.97 322.93 100.91C325.05 100.98 327.11 100.23 328.68 98.81C330.18 97.34 331.32 95.35 331.15 93.7" fill="#8DB600"/>
<path d="M349.43 108.84C349.36 104.41 346.31 99 343.72 95.42C341.1 91.81 337.43 89.09 333.22 87.63C332.93 87.5 332.61 87.47 332.31 87.56C332.03 87.74 331.84 88.02 331.76 88.34C328.9 96.47 333.18 105.38 341.32 108.24C343.92 109.15 346.72 109.36 349.43 108.84Z" fill="#455A64"/>
<path d="M318.43 101.21C316.74 99.27 315.24 97.18 313.95 94.96C312.64 92.73 311.99 90.18 312.05 87.6C311.91 87.06 312.24 86.52 312.77 86.38C313.03 86.31 313.31 86.36 313.54 86.5C323.4 88.71 330.74 96.97 331.78 107.02L332.02 108.29C327.97 110.67 323.15 111.38 318.58 110.29C314.89 109.63 311.36 108.23 308.21 106.19C305.03 104.11 302.78 100.89 301.9 97.1901C307.73 96.0201 313.79 97.49 318.43 101.21Z" fill="#455A64"/>
<path d="M371.43 93.7701C375.43 89.6901 380.94 87.4602 386.49 86.1602C387.93 97.9002 379.57 108.58 367.84 110.01C367.72 110.01 367.61 110.04 367.49 110.05L367.16 109.44C365.27 104.07 367.43 97.8501 371.43 93.7701Z" fill="#455A64"/>
<path d="M400.79 105.64C400.79 105.64 396.62 124.24 383.71 140.09C364.84 163.27 322.36 156.77 310.81 138.61C306.37 131.61 294.63 105.76 294.63 105.76L400.79 105.64Z" fill="white"/>
<path d="M400.79 105.64H392.67L370.32 105.76L294.66 105.99L294.95 105.55C298.39 113.08 302.02 120.87 305.95 128.74C306.96 130.74 307.99 132.74 309.06 134.74C310.05 136.72 311.26 138.59 312.65 140.31C315.39 143.64 318.8 146.37 322.65 148.31C329.95 152.13 338.02 154.24 346.25 154.47C353.68 154.87 361.11 153.69 368.05 151.02C374.08 148.62 379.42 144.77 383.62 139.82C389.47 132.44 394.16 124.22 397.53 115.43C398.74 112.32 399.53 109.86 400.04 108.18L400.79 105.61C400.05 108.99 399.04 112.3 397.79 115.52C394.5 124.38 389.84 132.68 384 140.11C379.77 145.14 374.38 149.06 368.28 151.51C361.29 154.27 353.79 155.52 346.28 155.16C337.95 154.94 329.78 152.82 322.4 148.96C318.45 146.98 314.97 144.19 312.16 140.78C310.74 139.03 309.52 137.13 308.51 135.11C307.44 133.11 306.4 131.11 305.39 129.11C301.47 121.23 297.85 113.44 294.39 105.9L294.18 105.45H294.67L370.57 105.52L392.84 105.58H398.84L400.79 105.64Z" fill="#263238"/>
<path d="M393.81 122.96C393.81 123.14 373.43 123.26 348.29 123.23C323.15 123.2 302.77 123.04 302.77 122.86C302.77 122.68 323.15 122.56 348.29 122.59C373.43 122.62 393.81 122.78 393.81 122.96Z" fill="#8DB600"/>
<path d="M395.65 120.34C395.65 120.52 374.54 120.64 348.51 120.61C322.48 120.58 301.37 120.42 301.37 120.24C301.37 120.06 322.48 119.94 348.51 119.97C374.54 120 395.65 120.17 395.65 120.34Z" fill="#8DB600"/>
<path d="M118.89 139.93C118.91 152.03 114.93 163.81 107.58 173.42L110.08 185.19L98.3904 182.83C74.6804 202 39.9204 198.32 20.7504 174.61C1.58035 150.9 5.26035 116.14 28.9704 96.9701C52.6803 77.8001 87.4404 81.4801 106.61 105.19C114.55 115.01 118.88 127.26 118.89 139.89V139.93Z" fill="white"/>
<path d="M118.89 139.93C118.89 139.93 118.89 139.62 118.82 139.01C118.75 138.4 118.72 137.49 118.65 136.31C118.65 135.71 118.58 135.05 118.54 134.31C118.5 133.57 118.3 132.8 118.17 131.94C118.04 131.08 117.89 130.15 117.73 129.16C117.57 128.17 117.23 127.16 116.96 126.06L116.52 124.38L116.29 123.5C116.18 123.22 116.07 122.93 115.97 122.63C115.53 121.46 115.08 120.23 114.6 118.94C113.44 116.2 112.06 113.55 110.48 111.02C106.63 104.85 101.62 99.4802 95.7102 95.2402L94.4902 94.3302L93.1702 93.5302L90.5002 91.9102C90.0502 91.6302 89.5802 91.3802 89.0902 91.1602L87.6502 90.4702C86.6502 90.0202 85.7102 89.4702 84.6502 89.0902L81.5202 87.9502L79.9302 87.3802L78.2802 86.9602L74.9302 86.1002C73.7802 85.8802 72.6202 85.7402 71.4502 85.5502C61.4102 84.1102 51.1702 85.4702 41.8502 89.4702C36.8602 91.6802 32.2002 94.5902 28.0302 98.1102C27.0302 99.0402 25.9702 99.9902 24.9202 100.93C23.8702 101.87 23.0202 103.02 22.0602 104.06C21.1102 105.13 20.2202 106.25 19.4002 107.42L18.1802 109.19L17.0502 111.04L15.8802 112.86C15.6902 113.17 15.5002 113.48 15.3202 113.8L14.8402 114.8C14.2202 116.12 13.5502 117.43 12.9602 118.8L11.4302 122.96C11.1802 123.66 10.9802 124.38 10.8102 125.1L10.2502 127.19C8.87023 133.11 8.45023 139.21 8.99023 145.26C9.61023 150.87 11.0202 156.37 13.1802 161.59C15.4002 166.61 18.3102 171.29 21.8302 175.49L24.5402 178.49C25.4702 179.49 26.5402 180.31 27.4702 181.21C27.9702 181.65 28.4702 182.12 28.9502 182.53L30.5402 183.71L32.1102 184.89L32.8902 185.48C33.1602 185.66 33.4502 185.82 33.7302 185.99L37.0502 187.99C38.1602 188.64 39.3502 189.13 40.4902 189.71L42.2102 190.54C42.8002 190.77 43.4002 190.98 43.9902 191.2C45.1802 191.63 46.3502 192.09 47.5302 192.48L51.1402 193.41C51.7402 193.55 52.3302 193.75 52.9402 193.84L54.7502 194.12C55.9602 194.29 57.1502 194.51 58.3502 194.64L61.9402 194.82C66.5702 195.03 71.2202 194.62 75.7402 193.6C83.9902 191.75 91.7002 188.02 98.2802 182.72L98.3602 182.66H98.4402L110.13 185.03L109.93 185.24C109.04 181.02 108.21 177.1 107.44 173.44V173.31C112.84 166.27 116.46 158.04 118 149.31C118.39 146.99 118.65 144.66 118.78 142.31C118.78 141.52 118.78 140.92 118.84 140.5C118.9 140.08 118.84 139.89 118.84 139.89V142.31C118.75 144.66 118.51 146.99 118.13 149.31C116.66 158.1 113.06 166.39 107.66 173.48V173.35L110.18 185.15L110.24 185.41H109.97L98.2802 183.07H98.4402C91.8202 188.43 84.0602 192.19 75.7502 194.07C71.1902 195.11 66.5102 195.53 61.8402 195.33L58.2202 195.15C57.0102 195.02 55.8002 194.8 54.5802 194.63L52.7502 194.35C52.1402 194.26 51.5502 194.06 50.9402 193.92L47.3002 192.98C46.1102 192.59 44.9202 192.13 43.7202 191.7C43.1302 191.48 42.5202 191.27 41.9302 191.03L40.1902 190.2C39.0402 189.62 37.8402 189.12 36.7202 188.47L33.3602 186.47C33.0802 186.3 32.8002 186.14 32.5202 185.95L31.7302 185.36L30.1802 184.09L28.5802 182.9C28.0602 182.49 27.5802 182.01 27.0802 181.57C26.0802 180.66 25.0802 179.8 24.0802 178.83L21.3402 175.83C17.7902 171.6 14.8502 166.88 12.6102 161.83C10.4302 156.58 9.01023 151.04 8.39023 145.39C7.85023 139.28 8.28023 133.12 9.67023 127.15L10.2302 124.96C10.4002 124.23 10.6102 123.51 10.8602 122.8L12.4002 118.6C13.0002 117.24 13.6802 115.92 14.3102 114.6L14.7902 113.6C14.9702 113.28 15.1702 112.97 15.3602 112.66L16.5002 110.78L17.6402 108.91L18.9402 107.17C19.7702 105.99 20.6702 104.86 21.6302 103.78C22.6302 102.78 23.5402 101.65 24.5202 100.63L27.6602 97.7802C31.8902 94.2302 36.6002 91.3002 41.6602 89.0802C51.0602 85.0602 61.3902 83.7002 71.5102 85.1702C72.6902 85.3602 73.8602 85.5102 75.0102 85.7302L78.3902 86.6002L80.0602 87.0302L81.6602 87.6102L84.8102 88.7702C85.8102 89.1802 86.8102 89.7102 87.8102 90.1602L89.2702 90.8702C89.7602 91.0902 90.2302 91.3402 90.6802 91.6302L93.3802 93.1902L94.7002 94.0002L95.9202 94.9102C101.85 99.2002 106.88 104.61 110.73 110.84C112.3 113.4 113.67 116.07 114.83 118.84L116.18 122.56C116.29 122.86 116.39 123.15 116.5 123.44C116.61 123.73 116.65 124.03 116.73 124.32C116.87 124.9 117.02 125.46 117.15 126.01C117.42 127.11 117.73 128.14 117.91 129.13C118.09 130.12 118.19 131.05 118.32 131.91C118.45 132.77 118.56 133.57 118.67 134.3C118.78 135.03 118.73 135.7 118.76 136.3C118.76 137.48 118.84 138.38 118.87 139.01C118.9 139.64 118.89 139.93 118.89 139.93Z" fill="#263238"/>
<path d="M71.8103 87.6002L72.3103 81.9502C72.6403 78.6002 70.9603 75.3702 68.0203 73.7202C64.3303 71.8202 60.1103 71.1802 56.0203 71.8802C51.0403 72.5002 46.4603 74.9102 43.1203 78.6502C40.5603 81.5402 40.2203 85.7802 42.2903 89.0402L45.8803 94.6402C36.6703 104.81 37.4503 120.52 47.6203 129.73C57.7903 138.94 73.5003 138.16 82.7103 127.99C91.9203 117.82 91.1403 102.11 80.9703 92.9002C78.3303 90.5102 75.2103 88.7202 71.8203 87.6402V87.6002H71.8103ZM50.2503 90.8102L47.1203 85.9402C46.4203 84.8402 46.5503 83.4202 47.4203 82.4602C49.8403 79.7402 53.1803 78.0002 56.8003 77.5802C59.6703 77.0502 62.6403 77.4702 65.2503 78.7702C66.1803 79.3202 66.6903 80.3702 66.5803 81.4402L66.1803 86.5002C60.5503 86.0602 54.9303 87.5802 50.3003 90.8102H50.2503Z" fill="#E0E0E0"/>
<path d="M73.62 167.35L75.5 165.14C76.63 163.84 76.89 162 76.15 160.44C75.16 158.55 73.59 157.04 71.67 156.12C69.41 154.9 66.79 154.54 64.29 155.12C62.36 155.57 60.96 157.23 60.86 159.21L60.71 162.61C53.86 164.14 49.55 170.94 51.08 177.79C52.61 184.64 59.41 188.95 66.26 187.42C73.11 185.89 77.42 179.09 75.89 172.24C75.49 170.46 74.72 168.79 73.62 167.34V167.35ZM63.62 162.35L63.76 159.35C63.79 158.69 64.26 158.13 64.91 157.98C66.73 157.56 68.63 157.83 70.27 158.72C71.63 159.35 72.74 160.4 73.45 161.72C73.67 162.23 73.57 162.82 73.21 163.23L71.52 165.23C69.3 163.38 66.51 162.35 63.62 162.33V162.35Z" fill="#E0E0E0"/>
<path d="M113.73 133.66C115.73 145.5 110.33 156.27 101.73 157.72L88.8904 159.83C84.4804 156.55 83.6904 145.83 82.5204 138.9C81.4404 132.45 77.6304 121.84 80.2604 117.36C80.2604 117.36 90.6104 115.5 94.5404 114.84C103.18 113.39 111.74 121.82 113.73 133.66Z" fill="#FF712C"/>
<g opacity="0.3">
<path d="M113.73 133.66C115.73 145.5 110.33 156.27 101.73 157.72L88.8904 159.83C84.4804 156.55 83.6904 145.83 82.5204 138.9C81.4404 132.45 77.6304 121.84 80.2604 117.36C80.2604 117.36 90.6104 115.5 94.5404 114.84C103.18 113.39 111.74 121.82 113.73 133.66Z" fill="black"/>
</g>
<path d="M97.3101 136.38C99.3101 148.22 95.5102 158.72 88.8702 159.83C82.2302 160.94 75.2301 152.25 73.2401 140.41C71.2501 128.57 75.0301 118.07 81.6802 116.95C88.3302 115.83 95.3201 124.53 97.3101 136.38Z" fill="#FF712C"/>
<path d="M91.84 133.47L47.97 140.83C46.12 141.14 44.87 142.89 45.18 144.75L45.92 149.17C46.23 151.02 47.98 152.27 49.84 151.96L93.71 144.6C95.56 144.29 96.81 142.54 96.5 140.68L95.76 136.26C95.45 134.41 93.7 133.16 91.84 133.47Z" fill="#FF712C"/>
<path d="M55.1803 145.12C57.1803 156.96 51.7803 167.73 43.1803 169.18L30.3103 171.29C25.9003 168.01 25.1103 157.29 23.9403 150.36C22.8603 143.9 19.0503 133.3 21.6803 128.82C21.6803 128.82 32.0403 126.95 35.9603 126.3C44.5803 124.85 53.1803 133.28 55.1803 145.12Z" fill="#FF712C"/>
<g opacity="0.3">
<path d="M55.1803 145.54C57.1803 157.38 51.7803 168.15 43.1803 169.6L30.3103 171.71C25.9003 168.43 25.1103 157.71 23.9403 150.78C22.8603 144.32 19.0503 133.72 21.6803 129.24C21.6803 129.24 32.0403 127.37 35.9603 126.72C44.5803 125.27 53.1803 133.7 55.1803 145.54Z" fill="black"/>
</g>
<path d="M30.3104 171.28C36.9604 170.16 40.7304 159.66 38.7504 147.82C36.7604 135.98 29.7704 127.28 23.1204 128.4C16.4704 129.52 12.7004 140.02 14.6804 151.86C16.6704 163.7 23.6604 172.4 30.3104 171.28Z" fill="#FF712C"/>
<path d="M36.99 148.13C36.95 148.06 36.92 147.97 36.91 147.89C36.91 147.7 36.81 147.47 36.75 147.19C36.62 146.56 36.39 145.65 36.06 144.49C35.88 143.91 35.67 143.28 35.44 142.58C35.21 141.88 34.91 141.15 34.53 140.38C33.75 138.59 32.74 136.91 31.53 135.38C30.84 134.52 30.05 133.73 29.18 133.04C28.26 132.26 27.19 131.68 26.04 131.34C24.82 130.97 23.52 131 22.32 131.43C21.07 131.94 19.98 132.79 19.18 133.89C17.5 136.32 16.47 139.13 16.18 142.07C15.39 148.43 16.47 154.89 19.29 160.65C20.54 163.34 22.46 165.66 24.86 167.39C25.97 168.17 27.28 168.62 28.64 168.68C29.91 168.68 31.15 168.3 32.18 167.55C33.16 166.85 33.98 165.96 34.59 164.93C35.18 163.99 35.67 162.98 36.04 161.93C36.65 160.09 37.04 158.18 37.18 156.25C37.29 155.4 37.26 154.6 37.31 153.87C37.36 153.14 37.31 152.47 37.31 151.87C37.24 150.66 37.17 149.73 37.08 149.1L37 148.38C36.99 148.3 36.99 148.21 37 148.13C37.03 148.21 37.05 148.29 37.06 148.37C37.06 148.56 37.13 148.8 37.18 149.08C37.31 149.71 37.41 150.65 37.52 151.86C37.52 152.46 37.52 153.14 37.6 153.86C37.68 154.58 37.6 155.41 37.5 156.27C37.37 158.23 37 160.17 36.38 162.03C36.01 163.13 35.52 164.19 34.92 165.19C34.28 166.28 33.43 167.22 32.41 167.96C31.3 168.77 29.96 169.2 28.59 169.19C27.16 169.12 25.77 168.65 24.59 167.84C22.1 166.07 20.12 163.69 18.83 160.92C15.94 155.07 14.83 148.5 15.66 142.03C15.98 138.99 17.08 136.09 18.85 133.61C19.7 132.45 20.85 131.54 22.18 130.99C23.47 130.54 24.87 130.51 26.18 130.91C27.38 131.28 28.5 131.89 29.45 132.71C30.34 133.45 31.16 134.28 31.87 135.19C33.06 136.75 34.05 138.46 34.81 140.27C35.18 141.05 35.41 141.82 35.68 142.51C35.95 143.2 36.1 143.86 36.26 144.44C36.56 145.62 36.76 146.54 36.85 147.17L36.97 147.89C36.99 147.97 36.99 148.05 36.99 148.13Z" fill="#263238"/>
<path d="M26.7302 152.11L26.0102 152.28L26.3302 153.57L25.3302 153.81L25.0202 152.52L22.6602 153.1L22.4302 152.1L23.5602 147.72L24.6202 147.46L23.6202 151.61L24.7902 151.32L24.5002 150.19L25.5002 149.96L25.7702 151.11L26.4902 150.94L26.7302 152.11Z" fill="#263238"/>
<path d="M28.55 151.07L28.24 151.84L28.53 153.03L27.53 153.27L25.96 146.78L26.96 146.54L27.85 150.22L28.85 147.98L30.02 147.7L29.1 150.03L31.28 152.37L30.1 152.66L28.55 151.07Z" fill="#263238"/>
<path d="M33.7504 82.26L29.3804 91.14L59.8004 106.12L64.1704 97.24L33.7504 82.26Z" fill="#564F4C"/>
<path d="M28.87 71.1499L17.25 94.76C16.89 95.48 17.19 96.3599 17.92 96.7199L27.37 101.37C28.09 101.73 28.97 101.43 29.32 100.7L40.94 77.0999C41.3 76.3799 41 75.4999 40.27 75.1399L30.82 70.4899C30.1 70.1299 29.22 70.4299 28.87 71.1499Z" fill="#564F4C"/>
<path d="M27.3602 101.36C27.6202 101.46 27.9002 101.5 28.1802 101.47C28.5102 101.42 28.8202 101.26 29.0402 101.01C29.2902 100.63 29.5102 100.22 29.6802 99.8001C30.6102 97.9001 31.9302 95.1701 33.5602 91.8001C35.1902 88.4301 37.1602 84.4201 39.3402 79.9701L40.1802 78.2901L40.6002 77.4301L40.8102 77.0001C40.8702 76.8701 40.9102 76.7301 40.9202 76.5901C40.9902 75.9701 40.6202 75.3901 40.0302 75.1901L38.2302 74.3001L30.7402 70.6201C30.1502 70.3301 29.4402 70.5301 29.0802 71.0801C28.7702 71.6801 28.4602 72.3401 28.1502 72.9501C27.5402 74.2001 26.9302 75.4301 26.3302 76.6401L22.8902 83.6401L19.7702 89.9401C19.2802 90.9401 18.7702 91.8801 18.3502 92.8001L17.6802 94.1901C17.5702 94.4101 17.4602 94.6201 17.3602 94.8401C17.2602 95.0401 17.2102 95.2501 17.2102 95.4701C17.2102 95.9001 17.4302 96.2901 17.7802 96.5401C18.1302 96.7601 18.5602 96.9401 18.9202 97.1301L21.0602 98.1901L24.4702 99.9001L26.6202 100.99L27.1802 101.28L27.3602 101.39L27.1802 101.29L26.6102 101.02L24.4302 100.02L20.9902 98.3501L18.8502 97.3501C18.4702 97.1601 18.0802 97.0001 17.6702 96.7601C17.0202 96.3201 16.8002 95.4601 17.1602 94.7601L17.4802 94.1101C17.6902 93.6701 17.9102 93.2201 18.1402 92.7601C18.5902 91.8401 19.0502 90.8801 19.5402 89.8901L22.6302 83.5701C23.7202 81.3401 24.8702 79.0101 26.0602 76.5701L27.8702 72.8701C28.1902 72.2401 28.4702 71.6301 28.8702 70.9801C29.3102 70.2801 30.2202 70.0201 30.9602 70.3901L38.4502 74.0801L40.2402 74.9601C40.9402 75.2301 41.3702 75.9301 41.3002 76.6701C41.2802 76.8501 41.2402 77.0301 41.1602 77.1901L40.9402 77.6201L40.5202 78.4801C40.2402 79.0501 39.9602 79.6101 39.6902 80.1701L33.8402 91.9701L29.8402 99.9101C29.7202 100.14 29.6102 100.36 29.5102 100.57C29.4202 100.78 29.3002 100.96 29.1502 101.13C28.9102 101.39 28.5802 101.55 28.2302 101.59C28.0202 101.61 27.8002 101.59 27.6002 101.51C27.5102 101.48 27.4302 101.43 27.3602 101.36Z" fill="#263238"/>
<path d="M65.3304 89.0901L53.7104 112.69C53.3504 113.41 53.6504 114.29 54.3804 114.65L63.8304 119.3C64.5504 119.66 65.4304 119.36 65.7804 118.63L77.4004 95.0301C77.7604 94.3101 77.4604 93.4301 76.7304 93.0701L67.2804 88.4201C66.5604 88.0601 65.6804 88.3601 65.3304 89.0901Z" fill="#564F4C"/>
<path d="M63.8202 119.31C64.0802 119.41 64.3602 119.44 64.6302 119.41C64.9602 119.37 65.2702 119.21 65.4902 118.96C65.7502 118.58 65.9702 118.18 66.1402 117.75C67.0602 115.84 68.3802 113.11 70.0102 109.75L75.7902 97.92C76.0702 97.36 76.3402 96.8 76.6202 96.23L77.0402 95.37L77.2502 94.94C77.3102 94.81 77.3502 94.67 77.3702 94.52C77.4302 93.91 77.0702 93.34 76.4902 93.14L74.6902 92.26L67.1802 88.58C66.5902 88.3 65.8802 88.5 65.5302 89.05C65.2202 89.64 64.9102 90.3 64.6002 90.92L62.7802 94.61C61.5802 97.02 60.4302 99.36 59.3402 101.61L56.1802 107.89C55.6902 108.89 55.1802 109.83 54.7702 110.75L54.1802 112.09L53.8502 112.74C53.7602 112.94 53.7102 113.15 53.7102 113.37C53.7102 113.8 53.9302 114.2 54.2802 114.45C54.6302 114.66 55.0502 114.84 55.4202 115.03L57.5502 116.1L60.9702 117.81L63.1202 118.91L63.6802 119.2C63.7402 119.23 63.8002 119.27 63.8602 119.31L63.6602 119.23L63.0902 118.97L60.9102 117.97L57.4702 116.31L55.3302 115.31C54.9402 115.11 54.5602 114.96 54.1502 114.71C53.7402 114.43 53.4802 113.96 53.4702 113.46C53.4702 113.2 53.5302 112.95 53.6402 112.72L53.9502 112.06C54.1702 111.62 54.3902 111.17 54.6102 110.71L56.0102 107.84L59.1102 101.52C60.2002 99.3 61.3502 96.96 62.5302 94.52L64.3502 90.83C64.6602 90.2 64.9502 89.59 65.2902 88.93C65.7402 88.23 66.6302 87.98 67.3802 88.34L74.8702 92.03L76.6702 92.92C77.3702 93.18 77.8102 93.89 77.7302 94.63C77.7102 94.81 77.6602 94.98 77.5802 95.14L77.3702 95.58L76.9502 96.44C76.6602 97 76.3902 97.57 76.1102 98.12L70.2702 109.92C68.6002 113.26 67.2702 115.92 66.2702 117.86L65.9302 118.53C65.8402 118.73 65.7202 118.92 65.5802 119.09C65.3302 119.34 65.0002 119.5 64.6502 119.54C64.4402 119.56 64.2202 119.54 64.0202 119.46C63.9502 119.42 63.8802 119.37 63.8202 119.31Z" fill="#263238"/>
<path d="M74.18 101.03C72.16 100.22 70.18 99.3 68.25 98.29C66.27 97.39 64.34 96.39 62.46 95.29C64.49 96.1 66.47 97.01 68.4 98.02C70.38 98.93 72.3 99.93 74.18 101.03Z" fill="#263238"/>
<path d="M68.8203 112.01C66.7903 111.2 64.8103 110.28 62.8803 109.27C59.6503 107.68 57.0503 106.32 57.0903 106.27C59.1203 107.07 61.1003 107.98 63.0303 109C65.0103 109.9 66.9503 110.9 68.8203 112.01Z" fill="#263238"/>
<path d="M37.8101 83.1101C37.8101 83.1901 35.1101 81.9601 31.8701 80.3701C29.8901 79.4801 27.9501 78.4701 26.0801 77.3701C28.1101 78.1801 30.0901 79.1001 32.0201 80.1101C34.0001 81.0001 35.9401 82.0101 37.8101 83.1101Z" fill="#263238"/>
<path d="M32.4001 94.0801C30.3801 93.2801 28.4001 92.3601 26.4701 91.3501C23.2301 89.7501 20.6401 88.3501 20.6801 88.3501C22.7101 89.1601 24.6901 90.0801 26.6201 91.0901C28.6001 91.9901 30.5301 92.9901 32.4001 94.0801Z" fill="#263238"/>
<path d="M63.34 321.16C74.92 323.22 85.5 329.05 93.43 337.74L105.14 337.38L100.88 348.16C115.12 374.14 105.61 406.74 79.64 420.98C53.66 435.22 21.06 425.71 6.81995 399.74C-7.42005 373.76 2.08995 341.16 28.06 326.92C38.82 321.02 51.28 318.99 63.36 321.16H63.34Z" fill="white"/>
<path d="M63.3402 321.16C63.3402 321.16 63.0402 321.16 62.4502 321.07L59.8302 320.76L57.9102 320.52L55.5702 320.47L52.8502 320.41C51.8502 320.41 50.8502 320.55 49.7502 320.62L48.0702 320.74L47.1902 320.82L46.3002 320.97L42.5302 321.64C39.7102 322.28 36.9502 323.15 34.2602 324.22C27.6902 326.83 21.7002 330.7 16.6302 335.62L15.5502 336.62L14.5502 337.74L12.5502 340.02C12.1802 340.39 11.8502 340.8 11.5502 341.23L10.6402 342.49C10.0402 343.35 9.37017 344.18 8.81017 345.09L7.18017 347.88L6.43017 349.31L5.74017 350.82L4.34017 353.88C3.94017 354.93 3.60017 356.02 3.22017 357.11C0.110173 366.47 -0.359828 376.5 1.86017 386.11C3.12017 391.26 5.10017 396.2 7.74017 400.8L9.91017 404.26C10.7102 405.36 11.5702 406.44 12.4002 407.54C13.2602 408.63 14.1802 409.67 15.1602 410.65L16.5902 412.19L18.1602 413.59L19.7402 414.99C20.0102 415.22 20.2702 415.46 20.5402 415.68L21.4002 416.31C22.5602 417.13 23.6902 417.99 24.8702 418.8L28.5902 420.97C29.2202 421.34 29.8602 421.68 30.5302 421.97L32.5302 422.88C37.9302 425.21 43.6702 426.67 49.5302 427.2C54.9902 427.58 60.4702 427.18 65.8202 426.02C71.0002 424.77 75.9702 422.79 80.6002 420.15L83.9202 418.07C84.9902 417.35 85.9902 416.51 87.0202 415.74C87.5202 415.34 88.0202 414.98 88.5302 414.55L89.9402 413.24L91.3402 411.94L92.0302 411.29C92.2502 411.07 92.4602 410.82 92.6702 410.59L95.1702 407.76C95.9802 406.81 96.6602 405.76 97.4002 404.76L98.4902 403.25C98.8202 402.73 99.1202 402.19 99.4302 401.67C100.05 400.61 100.69 399.56 101.27 398.5C101.85 397.44 102.27 396.3 102.78 395.21C103.01 394.66 103.31 394.14 103.5 393.57C103.69 393 103.88 392.44 104.08 391.88C104.45 390.76 104.87 389.66 105.2 388.53C105.53 387.4 105.73 386.26 105.99 385.13C106.99 380.74 107.39 376.23 107.2 371.73C106.84 363.53 104.62 355.52 100.69 348.31V348.15C102.19 344.37 103.62 340.78 104.97 337.38L105.14 337.62L93.4202 337.96H93.3502V337.91C87.5502 331.54 80.3102 326.66 72.2302 323.68C70.0902 322.89 67.9102 322.22 65.6902 321.68L63.9802 321.31L63.4002 321.17C63.4002 321.17 63.6002 321.17 63.9902 321.26L65.7102 321.59C67.9402 322.09 70.1302 322.71 72.2802 323.47C75.7302 324.72 79.0502 326.32 82.1802 328.23C86.3902 330.84 90.2302 334 93.5802 337.65L93.4602 337.6L105.18 337.22H105.43L105.34 337.47C103.99 340.88 102.58 344.47 101.09 348.25V348.02C105.07 355.28 107.33 363.35 107.7 371.62C107.88 376.17 107.45 380.73 106.43 385.17C106.16 386.31 105.9 387.45 105.63 388.6C105.36 389.75 104.88 390.85 104.5 391.98C104.31 392.55 104.12 393.12 103.92 393.69C103.72 394.26 103.44 394.79 103.2 395.34C102.69 396.44 102.2 397.55 101.68 398.66C101.16 399.77 100.45 400.79 99.8302 401.86C99.5202 402.39 99.2102 402.94 98.8802 403.46L97.8102 405.02C97.0602 406.02 96.3702 407.08 95.5602 408.02L93.0302 410.88C92.8202 411.12 92.6102 411.36 92.3902 411.59L91.6902 412.25L90.2802 413.56L88.8602 414.89C88.3802 415.32 87.8602 415.69 87.3402 416.09C86.3402 416.87 85.3402 417.71 84.2102 418.44L80.8602 420.54C76.1902 423.21 71.1702 425.21 65.9402 426.47C60.5402 427.65 55.0002 428.05 49.4902 427.67C43.5602 427.14 37.7402 425.66 32.2702 423.31L30.2702 422.39C29.5802 422.1 28.9102 421.77 28.2702 421.39L24.5202 419.19C23.3202 418.38 22.1702 417.51 21.0102 416.67L20.1402 416.04C19.8702 415.82 19.6002 415.57 19.3402 415.34L17.7402 413.92L16.1502 412.51L14.7602 411.02C13.7702 410.03 12.8402 408.98 11.9802 407.87C11.1402 406.76 10.2702 405.68 9.46017 404.56L7.28017 401.02C4.62017 396.38 2.63017 391.39 1.37017 386.19C-0.839828 376.52 -0.359828 366.43 2.78017 357.02C3.16017 355.93 3.51017 354.83 3.92017 353.77C4.33017 352.71 4.87017 351.71 5.33017 350.69C5.57017 350.18 5.80017 349.69 6.03017 349.17C6.26017 348.65 6.59017 348.17 6.86017 347.74C7.42017 346.8 7.97017 345.86 8.51017 344.93C9.05017 344 9.75017 343.18 10.3602 342.32L11.2802 341.05C11.5802 340.62 11.9202 340.21 12.2802 339.83L14.2802 337.54L15.2802 336.42L16.3702 335.42C21.4902 330.49 27.5302 326.61 34.1502 324C36.8602 322.94 39.6402 322.09 42.4802 321.46L46.2702 320.81L47.1602 320.66L48.0402 320.59L49.7402 320.47C50.8302 320.41 51.8702 320.29 52.8402 320.29L55.5802 320.38L57.9202 320.45L59.8502 320.71L62.4302 321.02C63.0402 321.1 63.3402 321.16 63.3402 321.16Z" fill="#263238"/>
<path d="M69.4301 358.81C68.7201 356.66 66.7001 355.21 64.4301 355.23C66.3601 354.4 67.2401 352.16 66.4101 350.23C66.3701 350.13 66.3201 350.04 66.2701 349.95C64.6701 346.08 61.5601 345.86 61.5601 345.86C63.4301 344.69 64.1001 342.29 63.1201 340.32C61.5701 336.56 57.1201 337.4 57.1201 337.4C57.1201 337.4 60.8701 335.85 59.7601 332.29C58.6501 328.73 54.3001 329.29 54.3001 329.29L56.4301 324.18L51.1401 311.41C50.5701 310 49.4201 308.9 47.9801 308.41L32.8001 303.24L17.8601 309.42L15.7101 310.31L8.61014 324.69C7.93014 326.04 7.87014 327.62 8.43014 329.02L13.7201 341.8L18.7901 343.9C18.7901 343.9 15.3401 346.61 17.0701 349.9C18.8001 353.19 22.5401 351.65 22.5401 351.65C22.5401 351.65 18.8601 354.23 20.4301 358.02C21.1201 360.11 23.2901 361.33 25.4301 360.84C25.4301 360.84 23.4301 363.2 24.9801 367.06C25.5901 369.07 27.7101 370.2 29.7201 369.59C29.8101 369.56 29.8901 369.53 29.9801 369.5C28.3701 371.1 27.9701 373.54 28.9801 375.57C30.5801 379.43 33.7901 378.98 33.7901 378.98L31.6001 385.02L42.7801 412.02C42.7801 412.02 46.4401 417.02 53.0901 414.29C56.8201 412.98 58.9501 409.06 58.0101 405.22C58.0101 405.22 60.5601 411.08 66.0701 408.92L66.8001 408.62C72.2301 406.25 69.8901 400.31 69.8901 400.31C71.9401 403.69 76.2201 404.96 79.7801 403.25C86.4301 400.5 85.4801 394.36 85.4801 394.36L74.3001 367.36L68.4301 364.62C68.4301 364.62 71.0301 362.67 69.4301 358.81Z" fill="#4CC9F0"/>
<path d="M69.4301 358.81C69.6801 359.29 69.8601 359.81 69.9401 360.34C70.2901 361.95 69.7501 363.62 68.5301 364.73V364.49L74.4201 367.17H74.4901V367.24L85.8001 394.24C85.9901 396.07 85.6101 397.9 84.7001 399.5C83.7201 401.16 82.2401 402.48 80.4701 403.26C78.6601 404.21 76.5801 404.52 74.5701 404.13C72.4901 403.59 70.7001 402.27 69.5701 400.44L70.3101 400.08C70.9201 401.71 71.0001 403.49 70.5401 405.17C69.9701 406.92 68.6401 408.31 66.9301 408.98C66.1001 409.36 65.2201 409.61 64.3201 409.73C63.3701 409.82 62.4101 409.68 61.5301 409.32C59.7901 408.49 58.4101 407.08 57.6201 405.32L58.4801 405.02C59.4801 409.01 57.3301 413.11 53.4801 414.55C51.6501 415.41 49.6001 415.69 47.6101 415.36C45.5901 414.98 43.7601 413.91 42.4301 412.33V412.26C38.8601 403.63 35.1101 394.59 31.2301 385.26L31.1501 385.07L31.2201 384.88C31.9201 382.98 32.6801 380.88 33.4401 378.82L34.0001 379.51C32.8201 379.59 31.6401 379.23 30.7001 378.51C28.8601 377 27.9001 374.66 28.1401 372.29C28.2701 371.06 28.8101 369.91 29.6801 369.02L30.2201 369.9C29.1101 370.33 27.8601 370.29 26.7801 369.79C25.7201 369.23 24.9101 368.29 24.5001 367.17C23.4701 364.98 23.6701 362.41 25.0401 360.42L25.5701 361.27C25.3001 361.34 25.0301 361.37 24.7601 361.38C23.5501 361.47 22.3601 361.09 21.4301 360.31C20.5501 359.51 19.9401 358.47 19.6701 357.31C19.4001 356.15 19.5501 354.92 20.0901 353.86C20.6201 352.83 21.3801 351.95 22.3101 351.27L22.8001 352.19C21.6501 352.64 20.3901 352.71 19.2001 352.38C18.0001 351.98 17.0301 351.09 16.5501 349.92C16.0201 348.79 15.9901 347.5 16.4501 346.34C16.9001 345.25 17.6201 344.28 18.5301 343.53L18.6501 344.42L13.5801 342.32L13.3801 342.23L13.3001 342.04C12.1601 339.27 11.0301 336.54 9.91013 333.83L8.24013 329.83C7.53013 328.42 7.40013 326.78 7.89013 325.28C10.3801 319.97 12.8901 315.08 15.2901 310.17L15.3701 310.01L15.5401 309.94L32.6501 302.94L32.8101 302.87L32.9701 302.92C35.9701 303.92 38.8901 304.92 41.7501 305.92L45.9701 307.37L48.0501 308.09C48.7901 308.33 49.4701 308.72 50.0501 309.24C50.6201 309.74 51.0901 310.34 51.4301 311.02L52.2401 313.02C52.7701 314.31 53.2401 315.58 53.8101 316.83L56.8101 324.11L56.8701 324.25L56.8101 324.39L54.6901 329.46L54.3201 328.96C55.5501 328.85 56.7901 329.07 57.9101 329.6C59.0001 330.15 59.8201 331.13 60.1501 332.31C60.5101 333.43 60.3701 334.66 59.7701 335.67C59.1601 336.59 58.3101 337.31 57.3001 337.75L57.1301 337.17C58.4301 336.96 59.7701 337.13 60.9701 337.67C62.0801 338.19 62.9601 339.11 63.4301 340.24C63.8901 341.3 63.9701 342.49 63.6601 343.6C63.3201 344.63 62.6401 345.5 61.7201 346.07L61.6201 345.62C62.9901 345.85 64.2301 346.56 65.1201 347.62C65.8901 348.52 66.4501 349.57 66.7601 350.71C67.0501 351.72 66.9301 352.8 66.4201 353.71C65.9701 354.45 65.3101 355.03 64.5201 355.38L64.4601 355.12C66.1901 355.12 67.8001 355.97 68.7601 357.41C69.0701 357.84 69.3101 358.33 69.4701 358.84C69.4701 358.84 69.2701 358.36 68.6501 357.5C67.6801 356.13 66.1001 355.33 64.4301 355.36H63.8001L64.3701 355.09C65.0901 354.74 65.6901 354.19 66.0901 353.5C66.5201 352.66 66.6101 351.69 66.3401 350.79C65.7701 348.43 63.9101 346.61 61.5401 346.09L60.9101 345.99L61.4301 345.64C62.2301 345.13 62.8301 344.35 63.1201 343.44C63.3901 342.44 63.3001 341.38 62.8701 340.44C62.4601 339.41 61.6701 338.58 60.6701 338.12C59.5801 337.64 58.3701 337.49 57.1901 337.69L55.1101 338L57.0201 337.1C57.9001 336.7 58.6401 336.06 59.1701 335.25C59.6701 334.39 59.7801 333.36 59.4601 332.42C59.1701 331.42 58.4801 330.59 57.5401 330.14C56.5501 329.68 55.4501 329.49 54.3601 329.6L53.7601 329.65L53.9801 329.1L56.0801 324.02V324.3L53.0801 317.04C52.5601 315.79 52.0301 314.53 51.5001 313.24C50.9701 311.95 50.5601 310.6 49.5001 309.77C49.0001 309.32 48.4101 308.98 47.7701 308.77L45.7001 308.07L41.4301 306.67L32.6401 303.67H32.9601L15.8801 310.77L16.1301 310.53C13.7701 315.39 11.2001 320.47 8.81013 325.53C8.40013 326.81 8.53013 328.19 9.15013 329.38C9.70013 330.72 10.2601 332.06 10.8201 333.38L14.2201 341.59L13.9401 341.31L19.0201 343.41L19.8101 343.74L19.1401 344.3C17.6501 345.55 16.5501 347.66 17.4701 349.44C17.8301 350.33 18.5601 351.03 19.4701 351.33C20.4301 351.58 21.4401 351.52 22.3601 351.17L25.8101 349.92L22.8601 352.09C21.3301 353.21 20.1701 355.16 20.6601 357.02C20.9801 358.97 22.6901 360.39 24.6601 360.33C24.8601 360.33 25.0601 360.3 25.2601 360.26L26.7201 359.91L25.7901 361.11C25.2201 361.91 24.9001 362.86 24.8701 363.84C24.8501 364.84 25.0401 365.84 25.4301 366.77C25.7501 367.66 26.3801 368.39 27.2001 368.85C28.0201 369.21 28.9401 369.25 29.7801 368.94L32.2901 368.05L30.2901 369.82C27.2201 372.59 29.9401 378.82 33.6801 378.39L34.5201 378.29L34.2401 379.08L32.0101 385.15V384.78C35.8701 394.13 39.6101 403.18 43.1701 411.78L43.1101 411.68C44.2801 413.1 45.9101 414.07 47.7201 414.43C49.5201 414.72 51.3701 414.47 53.0301 413.71C54.6801 413.06 56.0601 411.85 56.9201 410.29C57.6801 408.74 57.8901 406.98 57.5101 405.29L56.7001 401.57L58.4301 405.02C59.1201 406.56 60.3301 407.81 61.8501 408.55C62.6001 408.85 63.4101 408.97 64.2101 408.91C65.0201 408.8 65.8101 408.57 66.5601 408.23C68.0301 407.68 69.1801 406.5 69.7001 405.02C70.1001 403.53 70.0401 401.94 69.5101 400.49L68.3701 397.12L70.2501 400.12C71.2801 401.76 72.8901 402.96 74.7701 403.45C76.6001 403.8 78.5001 403.53 80.1601 402.67C81.8001 401.96 83.1701 400.75 84.1001 399.23C84.9201 397.77 85.2701 396.09 85.1001 394.43V394.51C80.4901 383.19 76.7301 373.97 74.1001 367.43L74.2001 367.53L68.4301 364.75L68.2401 364.66L68.4101 364.51C69.5801 363.47 70.1201 361.9 69.8501 360.36C69.6401 359.32 69.4301 358.83 69.4301 358.81Z" fill="#263238"/>
<path d="M54.34 329.29C54.45 329.57 46.3401 333.18 36.2101 337.37C26.0801 341.56 17.7801 344.73 17.6701 344.46C17.5601 344.19 25.6701 340.57 35.8001 336.38C45.9301 332.19 54.23 329.02 54.34 329.29Z" fill="#263238"/>
<path d="M56.1404 324.32C56.2504 324.59 46.8704 328.74 35.1404 333.57C23.4104 338.4 13.8804 342.11 13.7604 341.84C13.6404 341.57 23.0404 337.42 34.7604 332.58C46.4804 327.74 56.0304 324.02 56.1404 324.32Z" fill="#263238"/>
<path d="M58.1501 337.32C58.2601 337.59 50.2101 341.18 40.1501 345.32C30.0901 349.46 21.8601 352.62 21.7501 352.32C21.6401 352.02 29.6901 348.46 39.7501 344.32C49.8101 340.18 58.0401 337.02 58.1501 337.32Z" fill="#263238"/>
<path d="M61.5603 345.56C61.6703 345.83 53.6103 349.42 43.5603 353.56C33.5103 357.7 25.2703 360.86 25.1603 360.56C25.0503 360.26 33.1003 356.7 43.1603 352.56C53.2203 348.42 61.4303 345.29 61.5603 345.56Z" fill="#263238"/>
<path d="M65.3201 354.65C65.4301 354.92 57.3201 358.51 47.3201 362.65C37.3201 366.79 29.0301 369.95 28.9201 369.65C28.8101 369.35 36.8601 365.79 46.9201 361.65C56.9801 357.51 65.2001 354.38 65.3201 354.65Z" fill="#263238"/>
<path d="M69.0803 363.74C69.1903 364.01 61.0803 367.6 51.0803 371.74C41.0803 375.88 32.7903 379.04 32.6803 378.74C32.5703 378.44 40.6203 374.88 50.6803 370.74C60.7403 366.6 68.9603 363.47 69.0803 363.74Z" fill="#263238"/>
<path d="M74.4302 367.53C74.5402 367.81 65.0702 371.98 53.2802 376.86C41.4902 381.74 31.8302 385.47 31.7202 385.2C31.6102 384.93 41.0802 380.75 52.8702 375.87C64.6602 370.99 74.2702 367.26 74.4302 367.53Z" fill="#263238"/>
<path d="M29.4599 293.7L11.2999 301.21C10.8499 301.4 10.6299 301.92 10.8199 302.37L13.9999 310.07C14.1899 310.52 14.7099 310.74 15.1599 310.55L33.3199 303.04C33.7699 302.85 33.9899 302.33 33.7999 301.88L30.6199 294.18C30.4299 293.73 29.9099 293.51 29.4599 293.7Z" fill="#455A64"/>
<path d="M17.4301 309.56C17.1601 309.68 16.0801 307.75 15.0201 305.26C13.9601 302.77 13.3201 300.66 13.5901 300.54C13.8601 300.42 14.9401 302.35 16.0001 304.84C17.0601 307.33 17.6601 309.45 17.4301 309.56Z" fill="#263238"/>
<path d="M20.6503 307.93C20.3803 308.05 19.3003 306.12 18.2403 303.63C17.1803 301.14 16.5403 299.02 16.8103 298.91C17.0803 298.8 18.1603 300.72 19.2203 303.21C20.2803 305.7 20.9203 307.82 20.6503 307.93Z" fill="#263238"/>
<path d="M24.1103 306.7C23.8403 306.81 22.7603 304.89 21.7003 302.39C20.6403 299.89 20.0003 297.79 20.2703 297.67C20.5403 297.55 21.6203 299.48 22.6803 301.98C23.7403 304.48 24.4303 306.58 24.1103 306.7Z" fill="#263238"/>
<path d="M27.7001 305.02C27.4301 305.14 26.3501 303.21 25.2901 300.72C24.2301 298.23 23.5901 296.12 23.8601 296C24.1301 295.88 25.2101 297.81 26.2801 300.3C27.3501 302.79 27.9801 304.95 27.7001 305.02Z" fill="#263238"/>
<path d="M31.0502 303.61C30.7802 303.73 29.7002 301.8 28.6402 299.31C27.5802 296.82 26.9402 294.7 27.2102 294.59C27.4802 294.48 28.5602 296.4 29.6202 298.89C30.6802 301.38 31.3302 303.5 31.0502 303.61Z" fill="#263238"/>
</g>
<path d="M281.35 179.21H118.89V341.67H281.35V179.21Z" fill="#EAEAEA"/>
<path d="M256.08 211.15C255.78 211.26 255.48 211.28 255.15 211.25C246.71 210.05 239.96 210.65 232.56 213.27C225.18 215.88 218.85 220.12 213.72 225.89C213.36 226.25 212.88 226.45 212.37 226.47C211.86 226.48 211.37 226.3 210.99 225.96C210.61 225.62 210.38 225.14 210.34 224.64C210.3 224.13 210.45 223.63 210.76 223.23C216.35 216.97 223.23 212.36 231.23 209.53C239.15 206.73 246.69 206.05 255.68 207.32C256.76 207.47 257.52 208.49 257.38 209.57C257.27 210.33 256.75 210.93 256.08 211.17V211.15ZM209.83 249.68C209.46 249.81 209.05 249.83 208.63 249.72C208.38 249.65 208.15 249.53 207.94 249.37C207.74 249.21 207.57 249.01 207.44 248.78C207.31 248.55 207.23 248.3 207.2 248.04C207.17 247.78 207.19 247.52 207.26 247.27C209.08 240.71 212.33 234.92 216.88 230.04C226.42 219.8 241.36 214.5 255.23 216.44C261.81 217.36 267.94 219.8 273.49 223.71C274.38 224.34 274.61 225.57 273.99 226.47C273.37 227.37 272.13 227.59 271.23 226.96C266.21 223.41 260.66 221.2 254.72 220.38C242.09 218.62 228.47 223.46 219.78 232.78C215.67 237.19 212.73 242.43 211.09 248.37C210.9 249.01 210.41 249.47 209.84 249.68H209.83ZM249.11 286.74C248.63 286.91 248.09 286.89 247.59 286.64C243.21 284.49 240.73 283.03 236.62 279.39C232.42 275.68 229.07 270.51 226.93 264.47C222.99 253.32 229.22 240.9 240.84 236.79C252.46 232.68 265.11 238.4 269.06 249.57C269.42 250.6 268.89 251.74 267.86 252.1C266.84 252.46 265.7 251.91 265.34 250.88C262.13 241.8 251.74 237.15 242.16 240.54C232.6 243.92 227.43 254.07 230.64 263.15C232.55 268.55 235.51 273.13 239.2 276.4C243.13 279.87 245.38 281.16 249.27 283.06C250.25 283.54 250.68 284.74 250.19 285.71C249.99 286.22 249.57 286.56 249.11 286.73V286.74ZM273.3 270.37C268.88 271.94 264.59 272.18 260.6 271.13C253.74 269.29 248.25 264.31 245.94 257.78C245.57 256.75 246.11 255.61 247.13 255.25C248.15 254.89 249.29 255.44 249.65 256.47C251.51 261.74 255.98 265.78 261.59 267.28C264.85 268.15 268.25 267.94 271.97 266.63C272.86 266.31 274.34 265.69 275.73 264.9C276.67 264.36 277.88 264.71 278.42 265.66C278.97 266.61 278.62 267.83 277.68 268.37C275.64 269.53 273.81 270.2 273.29 270.39L273.3 270.37ZM268.55 280.77C268.38 280.83 268.21 280.87 268.04 280.87C261.53 281.34 256.88 280.49 251.44 277.87C247.97 276.21 244.86 273.88 242.29 271C239.72 268.13 237.74 264.77 236.46 261.12C234.3 255.02 237.68 248.25 244 246.02C250.32 243.78 257.21 246.92 259.36 253.02C260.78 257.04 265.42 259.09 269.68 257.58C273.94 256.07 276.26 251.58 274.83 247.54C269.82 233.39 253.67 226.16 238.81 231.41C228.23 235.15 220.68 244.5 219.58 255.23C219.21 258.78 219.73 262.59 221.13 266.53C222.17 269.46 224.06 273.98 228.39 279.19C229.09 280.04 228.98 281.28 228.15 282C227.31 282.7 226.08 282.58 225.36 281.74C221.79 277.45 219.19 272.92 217.39 267.86C215.8 263.36 215.21 258.96 215.64 254.82C216.9 242.59 225.48 231.94 237.47 227.7C254.37 221.72 272.8 230.05 278.53 246.26C280.69 252.36 277.29 259.14 270.99 261.36C264.69 263.59 257.78 260.46 255.63 254.36C254.21 250.34 249.57 248.29 245.31 249.8C241.05 251.31 238.73 255.8 240.16 259.84C242.42 266.24 247.03 271.39 253.1 274.31C257.86 276.6 261.97 277.34 267.73 276.93C268.82 276.86 269.78 277.68 269.85 278.78C269.92 279.68 269.37 280.49 268.55 280.78V280.77Z" fill="#9F9B98"/>
<path d="M133.98 230.26C131.37 231.18 127.08 232.56 124.47 232.56C123.7 232.56 121.33 232.48 121.33 231.33C121.41 230.03 120.49 228.65 121.64 227.8C121.64 227.49 123.48 226.57 123.63 226.73C124.17 226.73 123.09 227.57 123.63 227.57C124.17 227.72 139.12 224.27 141.49 223.74C146.7 222.82 151.84 222.05 157.21 222.05C162.27 222.43 168.17 223.12 171.39 227.72C172 228.49 172.46 229.41 172.46 230.48C172.15 234.47 169.85 233.55 168.78 234.62H168.01C168.47 233.85 169.7 231.94 169.77 231.17C169.85 227.64 159.73 226.95 157.5 226.88C151.98 226.88 146.77 227.65 141.4 229.1L141.02 229.48C140.94 233.31 135.96 247.42 135.96 249.03C140.1 248.03 143.93 247.8 148.23 247.8C150.53 247.8 153.6 248.64 154.13 251.48L153.67 252.02C153.21 252.02 153.06 251.48 152.6 251.48H152.29C147.61 251.48 138.41 252.86 134.58 254.55C133.58 255.01 130.36 271.34 130.29 273.56C130.29 274.4 130.21 277.32 130.6 278.08C130.22 278.23 129.22 278.54 129.3 279C129.22 279 129.22 279.15 128.92 279.31C128.92 279.69 129.23 279.77 129.23 280.15C125.4 279.31 124.09 272.71 124.17 269.88C124.32 265.82 125.93 260.14 126.55 256.31C126.4 256.46 126.17 256.46 125.94 256.46H125.48C124.25 256.31 123.49 255.62 123.56 254.31C123.56 253.77 123.18 252.55 123.64 252.32C125.1 251.48 126.94 251.25 128.24 250.79L128.55 250.64C130.7 243.82 132.84 237.3 134.38 230.32H134V230.24L133.98 230.26Z" fill="#5E5F54"/>
<path d="M171.08 259.01C171.08 259.01 171 259.55 170.77 259.85H170.92C170.54 260.69 170.15 261.77 170 262.61C170 262.61 169.85 262.76 170 262.76C166.24 268.59 163.18 272.73 158.88 276.33C157.5 276.87 156.66 277.63 155.05 277.63C152.29 276.86 148.61 274.72 148.92 269.81C149.23 263.68 153.37 253.56 154.06 251.72L154.44 251.41H157.35C157.96 251.41 158.35 251.79 158.65 252.25C158.8 252.79 159.03 253.55 158.96 254.09C157.43 261.14 153.98 269.73 154.82 273.95C154.82 274.26 154.97 274.33 155.28 274.33C158.12 274.48 164.48 264.98 170.61 257.23L171.07 256.85V259.07V258.99L171.08 259.01ZM157.51 249.27L156.97 248.89H156.82C156.82 248.89 155.9 247.97 155.9 247.82C155.98 246.36 156.82 245.21 158.12 244.29C158.66 244.14 159.12 243.98 159.58 243.98C160.35 243.98 161.27 244.52 161.5 244.98L161.81 245.98L161.89 246.13C161.89 247.13 159.9 248.05 159.05 248.74L157.59 249.28H157.51V249.27Z" fill="#5E5F54"/>
<path d="M177.37 231.34C178.21 231.34 181.05 231.88 181.05 232.87C181.05 233.25 181.2 233.41 181.36 233.64C181.67 234.94 181.67 236.32 181.44 237.86C183.89 238.01 188.34 238.63 188.34 240.7C188.34 240.78 188.49 241.54 188.42 241.7C186.5 241.16 184.66 241.09 182.82 241.09H180.9C179.98 245.77 177.6 251.75 174.08 259.26C172.62 264.32 169.63 272.52 171.32 277.66C173.54 277.66 182.82 264.4 186.42 257.65H186.88C186.96 257.8 187.19 258.88 187.19 259.03V259.18C187.19 259.18 187.34 259.56 187.27 259.79C187.35 259.79 186.35 261.71 186.35 261.94C186.27 262.48 186.04 263.17 185.89 263.4V264.17C185.05 267.7 178.07 276.28 174.7 279.35C173.4 280.65 172.55 280.73 170.94 280.73C167.11 279.81 165.8 275.29 165.5 272.83C164.89 264.7 169.79 253.51 174.09 241.78C171.33 242.16 168.65 242.39 165.89 242.39C164.05 242.39 163.13 241.85 162.67 241.55C162.36 241.17 162.06 240.17 162.06 239.86V239.09L164.44 239.4C167.97 239.4 171.49 238.56 175.33 238.17C175.94 236.18 176.63 234.11 177.17 232.19C177.17 231.96 177.17 231.5 177.4 231.35L177.37 231.34Z" fill="#5E5F54"/>
<path d="M191.17 270.59C191.17 260.09 200.45 231.87 199.76 228.5C200.07 228.35 200.37 228.12 200.53 227.73C195.55 227.88 190.49 229.72 189.95 229.72C188.57 229.72 187.65 229.57 187.65 228.26C187.65 227.42 188.19 225.88 188.95 225.5C192.94 223.28 203.82 222.59 208.65 222.59C210.95 222.59 220.46 222.9 220.46 226.27C220.46 226.81 218.47 227.34 217.78 227.34C216.55 227.34 215.1 226.96 213.79 226.96C212.72 226.96 211.11 226.88 209.57 226.88C208.03 226.88 206.5 226.96 205.43 227.26C205.89 227.87 206.2 228.56 206.2 229.48C206.2 234.46 202.06 250.33 200.37 256.39C199.6 259.46 198.91 262.75 198.15 265.9C197.69 267.59 196.69 271.96 196.69 273.57C196.69 273.72 197.15 273.72 197.69 273.72C199.99 273.72 208.27 274.33 208.27 277.48C208.27 277.94 206.81 278.71 205.89 278.71C204.43 278.71 203.21 278.25 201.83 278.25C196.69 278.25 193.55 278.79 188.34 279.09C186.96 279.09 185.27 279.86 184.05 279.86C182.21 279.86 180.52 279.25 180.52 277.18C180.52 276.72 180.6 276.11 180.9 275.49C182.59 274.26 191.17 273.8 191.63 273.57C191.71 272.57 191.17 271.65 191.17 270.58V270.59ZM204.74 219.68C202.82 219.68 201.67 218.68 201.67 217.07C201.67 216.76 201.67 216.46 201.82 216.3C201.97 214.46 203.58 213 205.5 213C207.03 213 208.57 214.07 208.57 216.3C208.03 218.22 206.42 219.67 204.74 219.67V219.68Z" fill="#5E5F54"/>
<path d="M229.43 271.97L229.12 272.28V272.43C229.12 272.43 228.51 273.35 228.35 273.5C227.74 273.65 226.82 274.57 226.05 274.8C225.9 275.26 224.98 275.57 224.52 275.8C221.3 277.64 218.08 279.17 214.09 279.17C212.86 279.17 209.64 276.79 209.8 274.42C210.11 268.82 217.54 262.08 221.3 258.09C222.3 256.79 225.06 253.95 225.75 252.88H224.98C222.6 252.88 219.15 254.64 217.54 254.64H217.39C215.93 254.64 214.94 254.26 215.09 252.8C215.09 251.88 215.24 250.81 215.4 249.96L215.78 249.65C217.93 249.11 219.92 248.27 222.99 248.27C223.76 248.27 224.45 248.27 225.37 248.42C227.98 248.8 230.97 250.18 230.89 253.1C230.81 257.78 221.54 266.06 218.47 270.04C217.09 271.73 215.86 273.34 214.87 275.25V275.4H215.25C216.63 275.09 229.51 270.34 229.89 270.42V270.73C229.89 270.73 229.51 271.34 229.28 271.65V271.8L229.43 271.95V271.97Z" fill="#5E5F54"/>
</g>
<defs>
<clipPath id="clip0_84_458">
<rect width="440.18" height="443.9" fill="white"/>
</clipPath>
</defs>
</svg>
