<svg width="21" height="12" viewBox="0 0 21 12" fill="none" xmlns="http://www.w3.org/2000/svg">
<path d="M17.6123 0.757109C17.5735 0.770833 17.5336 0.77391 17.4912 0.769641C16.3908 0.613495 15.5096 0.691069 14.5443 1.03247C13.5814 1.37302 12.7566 1.92638 12.0866 2.67836C12.0399 2.72514 11.9771 2.75204 11.9111 2.75356C11.8451 2.75507 11.7808 2.73107 11.7315 2.6865C11.6823 2.64192 11.6517 2.58013 11.6461 2.51382C11.6405 2.44751 11.6602 2.38169 11.7014 2.32988C12.4303 1.513 13.3282 0.911746 14.3712 0.542894C15.4044 0.177474 16.388 0.0884764 17.5602 0.255C17.7007 0.274165 17.7996 0.407188 17.7814 0.548579C17.7672 0.647247 17.6996 0.726228 17.6123 0.757109ZM11.5799 5.7824C11.5314 5.79955 11.4777 5.80202 11.4236 5.78809C11.3911 5.77883 11.3607 5.76321 11.3341 5.74212C11.3075 5.72103 11.2853 5.69489 11.2687 5.66519C11.2521 5.63549 11.2415 5.60283 11.2374 5.56906C11.2334 5.5353 11.236 5.5011 11.2451 5.46842C11.4829 4.61317 11.906 3.85761 12.4995 3.22085C13.7437 1.88573 15.6928 1.19362 17.5013 1.44633C18.3598 1.56682 19.1597 1.88429 19.8831 2.39411C19.9996 2.47681 20.0291 2.63716 19.9476 2.75409C19.8662 2.87102 19.7047 2.90059 19.5882 2.81788C18.9334 2.35542 18.209 2.06631 17.4347 1.96011C15.7871 1.73036 14.0102 2.36157 12.8767 3.57766C12.3406 4.15282 11.9575 4.83639 11.7433 5.6117C11.7181 5.69494 11.6551 5.75581 11.5799 5.7824ZM16.7031 10.616C16.64 10.6383 16.5707 10.6353 16.5049 10.6035C15.9338 10.3235 15.6097 10.1324 15.0737 9.65831C14.526 9.17451 14.0884 8.50031 13.8096 7.71209C13.2953 6.25805 14.1084 4.63751 15.6242 4.10139C17.1401 3.56527 18.7904 4.31184 19.3055 5.76833C19.3531 5.90297 19.2829 6.05172 19.1495 6.0989C19.0161 6.14608 18.868 6.07452 18.8204 5.93989C18.4014 4.75511 17.0465 4.1492 15.7974 4.59097C14.5508 5.03187 13.8756 6.35576 14.2947 7.54053C14.544 8.24553 14.9295 8.84176 15.4108 9.26916C15.9228 9.72152 16.2171 9.89009 16.7248 10.1374C16.8532 10.1994 16.9086 10.3561 16.8445 10.4834C16.819 10.5502 16.7637 10.5946 16.7031 10.616ZM19.8583 8.48111C19.2811 8.68527 18.7222 8.71767 18.2014 8.57967C17.3061 8.33996 16.5905 7.68974 16.2892 6.83787C16.2416 6.70324 16.3117 6.55449 16.4451 6.50731C16.5785 6.46013 16.7266 6.53168 16.7743 6.66632C17.0175 7.35417 17.5995 7.88093 18.3317 8.07639C18.7568 8.19043 19.2001 8.16309 19.6852 7.99153C19.8016 7.95036 19.9937 7.86864 20.1756 7.76574C20.298 7.69494 20.4561 7.74091 20.5271 7.86452C20.5981 7.98813 20.5534 8.14715 20.4311 8.21795C20.1655 8.36972 19.9262 8.45709 19.8583 8.48111ZM19.2385 9.83778C19.2166 9.8455 19.1939 9.85077 19.1719 9.85029C18.3229 9.91096 17.7163 9.80053 17.0063 9.45952C16.5539 9.24318 16.1482 8.93868 15.8127 8.56372C15.4773 8.18876 15.2188 7.75082 15.0522 7.27535C14.7709 6.47979 15.2117 5.59679 16.0363 5.30514C16.861 5.01349 17.7589 5.42298 18.0403 6.21855C18.2256 6.7424 18.8306 7.01037 19.386 6.81393C19.9414 6.6175 20.2443 6.03116 20.0582 5.50486C19.4054 3.65916 17.2982 2.71617 15.3604 3.40155C13.9803 3.88963 12.9951 5.10836 12.8518 6.50855C12.8029 6.97201 12.8719 7.46812 13.0537 7.98217C13.1888 8.36404 13.4357 8.95421 14.0005 9.63301C14.0916 9.744 14.0779 9.90584 13.9691 9.9994C13.8594 10.0905 13.6987 10.0757 13.6051 9.96563C13.1398 9.4059 12.8 8.81552 12.5662 8.15459C12.3584 7.5671 12.2813 6.994 12.3384 6.45329C12.5028 4.85834 13.6213 3.46855 15.1856 2.91527C17.3903 2.13554 19.7937 3.22164 20.5417 5.33661C20.8231 6.13217 20.3798 7.01602 19.5576 7.30682C18.7354 7.59761 17.835 7.18897 17.5537 6.39341C17.3684 5.86956 16.7633 5.60159 16.2079 5.79803C15.6525 5.99446 15.3496 6.5808 15.5358 7.1071C15.831 7.94183 16.4315 8.61351 17.2238 8.99428C17.8449 9.29235 18.3812 9.3891 19.1318 9.33569C19.2734 9.32694 19.3986 9.43413 19.4081 9.57673C19.4171 9.69473 19.3452 9.80004 19.2385 9.83778Z" fill="#9F9B98"/>
<path d="M1.68603 3.24993C1.34603 3.36993 0.786027 3.54993 0.446027 3.54993C0.346027 3.54993 0.036027 3.53993 0.036027 3.38993C0.046027 3.21993 -0.073973 3.03993 0.076027 2.92993C0.076027 2.88993 0.316027 2.76993 0.336027 2.78993C0.406027 2.78993 0.266027 2.89993 0.336027 2.89993C0.406027 2.91993 2.35603 2.46993 2.66603 2.39993C3.34603 2.27993 4.01603 2.17993 4.71603 2.17993C5.37603 2.22993 6.14603 2.31993 6.56603 2.91993C6.64603 3.01993 6.70603 3.13993 6.70603 3.27993C6.66603 3.79993 6.36603 3.67993 6.22603 3.81993H6.12603C6.18603 3.71993 6.34603 3.46993 6.35603 3.36993C6.36603 2.90993 5.04603 2.81993 4.75603 2.80993C4.03603 2.80993 3.35603 2.90993 2.65603 3.09993L2.60603 3.14993C2.59603 3.64993 1.94603 5.48993 1.94603 5.69993C2.48603 5.56993 2.98603 5.53993 3.54603 5.53993C3.84603 5.53993 4.24603 5.64993 4.31603 6.01993L4.25603 6.08993C4.19603 6.08993 4.17603 6.01993 4.11603 6.01993H4.07603C3.46603 6.01993 2.26603 6.19993 1.76603 6.41993C1.63603 6.47993 1.21603 8.60993 1.20603 8.89993C1.20603 9.00993 1.19603 9.38993 1.24603 9.48993C1.19603 9.50993 1.06603 9.54993 1.07603 9.60993C1.06603 9.60993 1.06603 9.62993 1.02603 9.64993C1.02603 9.69993 1.06603 9.70993 1.06603 9.75993C0.566027 9.64993 0.396027 8.78993 0.406027 8.41993C0.426027 7.88993 0.636027 7.14993 0.716027 6.64993C0.696027 6.66993 0.666027 6.66993 0.636027 6.66993H0.576027C0.416027 6.64993 0.316027 6.55993 0.326027 6.38993C0.326027 6.31993 0.276027 6.15993 0.336027 6.12993C0.526027 6.01993 0.766027 5.98993 0.936027 5.92993L0.976027 5.90993C1.25603 5.01993 1.53603 4.16993 1.73603 3.25993H1.68603V3.24993Z" fill="#5E5F54"/>
<path d="M6.52589 7.00004C6.52589 7.00004 6.51589 7.07004 6.48589 7.11004H6.50589C6.45589 7.22004 6.40589 7.36004 6.38589 7.47004C6.38589 7.47004 6.36589 7.49004 6.38589 7.49004C5.89589 8.25004 5.49589 8.79004 4.93589 9.26004C4.75589 9.33004 4.64589 9.43004 4.43589 9.43004C4.07589 9.33004 3.59589 9.05004 3.63589 8.41004C3.67589 7.61004 4.21589 6.29004 4.30589 6.05004L4.35589 6.01004C4.43589 6.01004 4.65589 6.01004 4.73589 6.01004C4.81589 6.01004 4.86589 6.06004 4.90589 6.12004C4.92589 6.19004 4.95589 6.29004 4.94589 6.36004C4.74589 7.28004 4.29589 8.40004 4.40589 8.95004C4.40589 8.99004 4.42589 9.00004 4.46589 9.00004C4.83589 9.02004 5.66589 7.78004 6.46589 6.77004L6.52589 6.72004C6.52589 6.83004 6.52589 6.92004 6.52589 7.01004V7.00004ZM4.75589 5.73004L4.68589 5.68004H4.66589C4.66589 5.68004 4.54589 5.56004 4.54589 5.54004C4.55589 5.35004 4.66589 5.20004 4.83589 5.08004C4.90589 5.06004 4.96589 5.04004 5.02589 5.04004C5.12589 5.04004 5.24589 5.11004 5.27589 5.17004L5.31589 5.30004L5.32589 5.32004C5.32589 5.45004 5.06589 5.57004 4.95589 5.66004L4.76589 5.73004H4.75589Z" fill="#5E5F54"/>
<path d="M7.34619 3.38989C7.45619 3.38989 7.82619 3.45989 7.82619 3.58989C7.82619 3.63989 7.84619 3.65989 7.86619 3.68989C7.90619 3.85989 7.90619 4.03989 7.87619 4.23989C8.19619 4.25989 8.77619 4.33989 8.77619 4.60989C8.77619 4.61989 8.79619 4.71989 8.78619 4.73989C8.53619 4.66989 8.29619 4.65989 8.05619 4.65989H7.80619C7.68619 5.26989 7.37619 6.04989 6.91619 7.02989C6.72619 7.68989 6.33619 8.75989 6.55619 9.42989C6.84619 9.42989 8.05619 7.69989 8.52619 6.81989H8.56619H8.58619C8.59619 6.83989 8.62619 6.97989 8.62619 6.99989V7.01989C8.62619 7.01989 8.64619 7.06989 8.63619 7.09989C8.64619 7.09989 8.51619 7.34989 8.51619 7.37989C8.50619 7.44989 8.47619 7.53989 8.45619 7.56989V7.66989C8.34619 8.12989 7.43619 9.24989 6.99619 9.64989C6.82619 9.81989 6.71619 9.82989 6.50619 9.82989C6.00619 9.70989 5.83619 9.11989 5.79619 8.79989C5.71619 7.73989 6.35619 6.27989 6.91619 4.74989C6.55619 4.79989 6.20619 4.82989 5.84619 4.82989C5.60619 4.82989 5.48619 4.75989 5.42619 4.71989C5.38619 4.66989 5.34619 4.53989 5.34619 4.49989V4.39989L5.65619 4.43989C6.11619 4.43989 6.57619 4.32989 7.07619 4.27989C7.15619 4.01989 7.24619 3.74989 7.31619 3.49989C7.31619 3.46989 7.31619 3.40989 7.34619 3.38989Z" fill="#5E5F54"/>
<path d="M9.14586 8.51C9.14586 7.14 10.3559 3.46 10.2659 3.02C10.3059 3 10.3459 2.97 10.3659 2.92C9.71586 2.94 9.05586 3.18 8.98586 3.18C8.80586 3.18 8.68586 3.16 8.68586 2.99C8.68586 2.88 8.75586 2.68 8.85586 2.63C9.37586 2.34 10.7959 2.25 11.4259 2.25C11.7259 2.25 12.9659 2.29 12.9659 2.73C12.9659 2.8 12.7059 2.87 12.6159 2.87C12.4559 2.87 12.2659 2.82 12.0959 2.82C11.9559 2.82 11.7459 2.81 11.5459 2.81C11.3459 2.81 11.1459 2.82 11.0059 2.86C11.0659 2.94 11.1059 3.03 11.1059 3.15C11.1059 3.8 10.5659 5.87 10.3459 6.66C10.2459 7.06 10.1559 7.49 10.0559 7.9C9.99586 8.12 9.86586 8.69 9.86586 8.9C9.86586 8.92 9.92586 8.92 9.99586 8.92C10.2959 8.92 11.3759 9 11.3759 9.41C11.3759 9.47 11.1859 9.57 11.0659 9.57C10.8759 9.57 10.7159 9.51 10.5359 9.51C9.86586 9.51 9.45586 9.58 8.77586 9.62C8.59586 9.62 8.37586 9.72 8.21586 9.72C7.97586 9.72 7.75586 9.64 7.75586 9.37C7.75586 9.31 7.76586 9.23 7.80586 9.15C8.02586 8.99 9.14586 8.93 9.20586 8.9C9.21586 8.77 9.14586 8.65 9.14586 8.51ZM10.9159 1.87C10.6659 1.87 10.5159 1.74 10.5159 1.53C10.5159 1.49 10.5159 1.45 10.5359 1.43C10.5559 1.19 10.7659 1 11.0159 1C11.2159 1 11.4159 1.14 11.4159 1.43C11.3459 1.68 11.1359 1.87 10.9159 1.87Z" fill="#5E5F54"/>
<path d="M14.1359 8.6901L14.0959 8.7301V8.7501C14.0959 8.7501 14.0159 8.8701 13.9959 8.8901C13.9159 8.9101 13.7959 9.0301 13.6959 9.0601C13.6759 9.1201 13.5559 9.1601 13.4959 9.1901C13.0759 9.4301 12.6559 9.6301 12.1359 9.6301C11.9759 9.6301 11.5559 9.3201 11.5759 9.0101C11.6159 8.2801 12.5859 7.4001 13.0759 6.8801C13.2059 6.7101 13.5659 6.3401 13.6559 6.2001H13.5559C13.2459 6.2001 12.7959 6.4301 12.5859 6.4301H12.5659C12.3759 6.4301 12.2459 6.3801 12.2659 6.1901C12.2659 6.0701 12.2859 5.9301 12.3059 5.8201L12.3559 5.7801C12.6359 5.7101 12.8959 5.6001 13.2959 5.6001C13.3959 5.6001 13.4859 5.6001 13.6059 5.6201C13.9459 5.6701 14.3359 5.8501 14.3259 6.2301C14.3159 6.8401 13.1059 7.9201 12.7059 8.4401C12.5259 8.6601 12.3659 8.8701 12.2359 9.1201V9.1401H12.2859C12.4659 9.1001 14.1459 8.4801 14.1959 8.4901V8.5301C14.1959 8.5301 14.1459 8.6101 14.1159 8.6501V8.6701L14.1359 8.6901Z" fill="#5E5F54"/>
</svg>
