<svg width="163" height="167" viewBox="0 0 163 167" fill="none" xmlns="http://www.w3.org/2000/svg">
<path d="M97.955 100.38C98.06 100.255 98.175 100.145 98.305 100.045L99.045 99.3451C104.52 94.2051 108.555 90.4151 107.775 81.1751C107.75 80.7151 107.86 80.2401 108.13 79.8301C108.441 79.3588 108.926 79.03 109.479 78.9157C110.032 78.8014 110.608 78.9108 111.08 79.2201C111.46 79.4701 111.845 79.6701 112.235 79.8101C112.555 79.9301 112.865 80.0001 113.15 80.0151C113.705 80.0451 113.99 80.0451 114.065 80.0251C114.14 79.9651 114.28 79.5951 114.48 79.0251L117.2 71.3251C117.54 70.0201 117.57 69.0901 117.37 68.4701C117.285 68.2001 117.14 68.0001 116.955 67.8801L116.875 67.8351C116.545 67.6601 116.075 67.6001 115.535 67.6451C114.34 67.7351 112.945 68.3101 111.705 69.2501C111.255 69.5901 110.665 69.7551 110.06 69.6501C109.502 69.5542 109.004 69.241 108.676 68.779C108.348 68.317 108.217 67.7439 108.31 67.1851C110.325 55.4351 109.405 47.7851 106.9 42.5651C104.71 37.9901 101.21 35.2151 97.42 33.1451C89.005 39.5951 83.08 40.3301 77.175 41.0601C72.285 41.6601 67.405 42.2701 60.945 46.7351C57.8701 48.8651 55.8301 51.4351 54.7851 54.4301C53.7351 57.4451 53.6551 60.9451 54.5051 64.9051C54.6351 65.3351 54.6301 65.8051 54.4651 66.2551C54.0601 67.3651 52.8301 67.9301 51.7201 67.5251C51.0801 67.2901 50.4151 67.0201 49.7701 66.8151C47.2451 65.9351 45.4551 65.5251 44.7651 67.1151C44.7101 67.6201 44.6751 68.4051 44.6501 69.2151V69.2301C44.6201 70.3801 44.6201 71.5851 44.6501 72.2101V72.2401C44.7251 73.7201 45.0501 75.6801 45.7601 77.3251C46.2051 78.3651 46.7951 79.2401 47.5301 79.6601C47.8951 79.8651 48.3101 79.9601 48.7401 79.9651C49.2701 79.9751 49.8601 79.8651 50.4801 79.6801C50.7974 79.5711 51.1359 79.5383 51.4683 79.5845C51.8006 79.6306 52.1173 79.7544 52.3929 79.9457C52.6685 80.1371 52.8951 80.3906 53.0545 80.6859C53.2138 80.9811 53.3014 81.3097 53.3101 81.6451C53.5401 91.3201 57.8351 95.0201 63.055 99.5151L65.23 101.405C68.66 104.455 72.21 106.545 75.77 107.62C78.51 108.19 81.375 108.25 84.125 107.895C86.04 107.645 87.885 107.195 89.595 106.58C92.065 105.415 94.49 103.71 96.835 101.445L97.955 100.38ZM102 102.43C106.495 117.43 118.535 119.77 130.355 122.05C146.39 125.15 162.095 140.295 162.095 157.45V164.445C162.095 165.625 161.13 166.59 159.955 166.59H2.16508C0.985085 166.59 0.0250854 165.625 0.0250854 164.445V158.12C0.0250854 137.5 16.7001 125.32 33.5501 123.065C45.8451 121.425 58.2501 119.755 62.63 104.815L62.39 104.6L60.26 102.74C54.7101 97.9601 50.0651 93.9601 49.1801 84.2251L48.6901 84.2301C47.5551 84.2151 46.4551 83.9551 45.4251 83.3701C43.7701 82.4301 42.6101 80.8251 41.8301 79.0151C40.9001 76.8601 40.4851 74.3501 40.3851 72.4551V72.4151C40.3551 71.7201 40.3551 70.3901 40.3851 69.1151V69.0951C40.4201 67.9901 40.4751 66.9151 40.5601 66.3051C40.5851 66.1201 40.6351 65.9501 40.7001 65.7851C41.8651 62.5451 43.6451 61.4951 45.9951 61.5601L44.4501 60.5351C43.6101 50.0501 46.0651 31.86 34.6801 28.42C56.2201 1.80001 81.045 -12.675 99.69 11C122.15 12.18 131.155 47.8701 113.245 62.8951L113.14 63.7751C113.845 63.5651 114.545 63.4301 115.215 63.3801C116.545 63.2751 117.81 63.4901 118.88 64.0551L119.085 64.1801C120.165 64.8151 120.995 65.8051 121.435 67.1651C121.88 68.5501 121.895 70.3251 121.31 72.4951L118.51 80.4451C118.06 81.7301 117.645 82.6351 116.735 83.3601L116.56 83.4851C115.66 84.1251 114.565 84.3651 112.935 84.2801L112.155 84.1951C111.975 93.0351 107.655 97.1151 102 102.43ZM98.79 105.805C92.245 114.845 73.145 115.04 66.01 107.865C64.23 115.28 59.6101 120.405 52.7751 123.74C72.375 135.69 91.69 135.335 110.7 121.235C103.39 117.92 99.695 112.625 98.79 105.805Z" fill="black"/>
</svg>
