<svg width="112" height="101" viewBox="0 0 112 101" fill="none" xmlns="http://www.w3.org/2000/svg">
<path d="M0.0300486 14.91C1.25005 34.17 3.49005 67.71 4.72005 85.93C5.20005 93.09 11.08 98.68 18.25 98.8L93.09 100.02C100.48 100.14 106.66 94.41 107.08 87.03L111.39 14.62C111.85 7.02 106.07 0.49 98.47 0.03C98.18 0.01 97.88 0 97.59 0L13.76 0.21C6.14005 0.23 -0.0199514 6.42 4.85637e-05 14.03C4.85637e-05 14.32 0.0100486 14.61 0.0300486 14.9V14.91Z" fill="#BF0603"/>
<path d="M34.39 11.95C34.73 12.21 45.43 24.09 45.43 24.09C45.43 24.09 54.29 18.21 66.46 23.99L78.73 11.45C78.73 11.45 70.35 3.94001 53.92 4.87001C40.62 5.59001 34.4 11.95 34.4 11.95H34.39Z" fill="white"/>
<path d="M66.56 24.63L66.25 24.44C54.5 18.84 45.83 24.44 45.74 24.51L45.36 24.75L45.06 24.41C40.85 19.74 34.45 12.67 34.07 12.31L33.67 11.95L34.03 11.55C34.29 11.28 40.51 5.05 53.83 4.27C70.29 3.32 78.68 10.66 79.02 10.98L79.42 11.34L66.55 24.62L66.56 24.63ZM50.01 21.68C55.49 20.31 61.27 20.91 66.34 23.39L77.93 11.49C76.04 10.04 67.9 4.59 53.93 5.4C42.72 6.05 36.65 10.71 35.15 12.01C36.85 13.83 43.08 20.73 45.54 23.46C46.95 22.68 48.45 22.08 50.01 21.67V21.68Z" fill="#263238"/>
<path d="M41.05 7.79999C41.61 8.46999 42.07 9.21999 42.42 10.02C43.12 11.29 43.46 12.45 43.3 12.51C42.74 11.84 42.29 11.09 41.94 10.28C41.24 9.01999 40.89 7.84999 41.05 7.79999Z" fill="#263238"/>
<path d="M44.18 9.56998C44.06 9.64998 43.59 9.16999 43.25 8.41999C42.91 7.66999 42.87 6.97998 42.99 6.94998C43.11 6.91998 43.42 7.48998 43.75 8.18998C44.08 8.88998 44.33 9.53998 44.19 9.56998H44.18Z" fill="#263238"/>
<path d="M46 8.97998C45.85 9.01998 45.47 8.45999 45.12 7.67999C44.77 6.89999 44.61 6.20999 44.72 6.14999C44.83 6.08999 45.25 6.66999 45.6 7.45999C45.95 8.24999 46.14 8.91999 46 8.97998Z" fill="#263238"/>
<path d="M47.6 8.59001C47.45 8.63001 47.12 8.02001 46.84 7.22001C46.56 6.42001 46.45 5.72001 46.58 5.67001C46.71 5.62001 47.07 6.23001 47.36 7.05001C47.65 7.87001 47.76 8.55001 47.61 8.60001L47.6 8.59001Z" fill="#263238"/>
<path d="M49.39 8.02999C49.24 8.06999 48.97 7.47999 48.77 6.70999C48.57 5.93999 48.54 5.29999 48.69 5.26999C48.84 5.23999 49.1 5.80999 49.3 6.57999C49.5 7.34999 49.51 7.98999 49.38 8.02999H49.39Z" fill="#263238"/>
<path d="M51.3 7.88001C51.15 7.92001 50.95 7.25001 50.77 6.43001C50.59 5.61001 50.51 4.94001 50.65 4.89001C50.79 4.84001 51.12 5.48001 51.3 6.32001C51.48 7.16001 51.45 7.86001 51.3 7.88001Z" fill="#263238"/>
<path d="M53.2 7.74001C53.05 7.78001 52.84 7.14001 52.73 6.39001C52.62 5.64001 52.65 4.99001 52.8 4.97001C52.95 4.95001 53.16 5.54001 53.27 6.32001C53.38 7.10001 53.35 7.74001 53.2 7.75001V7.74001Z" fill="#263238"/>
<path d="M56.34 10.13C56.01 8.36 56.06 6.54 56.47 4.78C56.72 5.65 56.78 6.57 56.67 7.47C56.73 8.37 56.62 9.27 56.34 10.13Z" fill="#263238"/>
<path d="M54.8 7.46999C54.65 7.50999 54.48 6.90999 54.35 6.20999C54.22 5.50999 54.18 4.91999 54.32 4.86999C54.46 4.81999 54.75 5.37999 54.88 6.10999C55.01 6.83999 54.93 7.44999 54.79 7.46999H54.8Z" fill="#263238"/>
<path d="M69.7 12.43C69.56 12.37 69.85 11.28 70.48 10.04C71.11 8.80001 71.8 7.91001 71.93 7.99001C72.06 8.07001 71.59 9.11001 70.98 10.31C70.37 11.51 69.85 12.48 69.71 12.42L69.7 12.43Z" fill="#263238"/>
<path d="M38.41 12.64C38.29 12.73 37.73 12.26 37.15 11.58C36.57 10.9 36.19 10.26 36.3 10.16C36.41 10.06 36.98 10.54 37.56 11.22C38.14 11.9 38.52 12.54 38.41 12.64Z" fill="#263238"/>
<path d="M40.42 11.37C40.31 11.46 39.78 11.05 39.32 10.39C38.86 9.73 38.65 9.09 38.78 9.01C38.91 8.93 39.32 9.44 39.76 10.07C40.2 10.7 40.53 11.26 40.41 11.37H40.42Z" fill="#263238"/>
<path d="M68.39 10.15C68.27 10.07 68.64 9.33 69.11 8.44C69.58 7.55 70 6.84 70.14 6.89C70.28 6.94 70.09 7.78 69.58 8.7C69.07 9.62 68.51 10.25 68.39 10.15Z" fill="#263238"/>
<path d="M66.62 9.44C66.48 9.37 66.7 8.71 67.08 7.94C67.46 7.17 67.9 6.62 68.03 6.65C68.16 6.68 67.95 7.4 67.56 8.16C67.17 8.92 66.75 9.51 66.61 9.43L66.62 9.44Z" fill="#263238"/>
<path d="M65.03 8.94999C64.89 8.88999 65.05 8.20999 65.38 7.41999C65.71 6.62999 66.1 6.03999 66.24 6.09999C66.38 6.15999 66.22 6.83999 65.88 7.62999C65.54 8.41999 65.17 9.00999 65.03 8.94999Z" fill="#263238"/>
<path d="M63.3 8.28C63.15 8.24 63.23 7.59001 63.47 6.85001C63.71 6.11001 64.01 5.53001 64.17 5.57001C64.33 5.61001 64.24 6.27001 64 7.01001C63.76 7.75001 63.44 8.33 63.3 8.28Z" fill="#263238"/>
<path d="M61.38 8.03C61.24 8.01 61.25 7.29 61.47 6.46C61.69 5.63 62.06 5.02 62.21 5.08C62.36 5.14 62.23 5.81 61.99 6.62C61.75 7.43 61.53 8.11 61.37 8.03H61.38Z" fill="#263238"/>
<path d="M59.51 7.77001C59.36 7.76001 59.34 7.12001 59.51 6.34001C59.68 5.56001 59.92 4.98001 60.06 5.03001C60.2 5.08001 60.24 5.70001 60.04 6.46001C59.84 7.22001 59.64 7.80001 59.5 7.77001H59.51Z" fill="#263238"/>
<path d="M58.2 7.43999C58.06 7.47999 57.88 6.84999 57.91 6.10999C57.94 5.36999 58.14 4.78999 58.29 4.79999C58.44 4.80999 58.45 5.41999 58.45 6.12999C58.45 6.83999 58.34 7.41999 58.19 7.43999H58.2Z" fill="#263238"/>
<path d="M72.32 11.22C72.21 11.11 72.58 10.58 73.03 9.99999C73.48 9.41999 73.95 8.91999 74.08 8.99999C74.21 9.07999 73.97 9.69999 73.46 10.34C72.95 10.98 72.42 11.33 72.32 11.22Z" fill="#263238"/>
<path d="M74.43 12.32C74.32 12.21 74.68 11.69 75.14 11.1C75.6 10.51 76.06 10.02 76.19 10.1C76.32 10.18 76.08 10.8 75.57 11.43C75.06 12.06 74.55 12.42 74.43 12.32Z" fill="#263238"/>
<path d="M56 15C55.83 15.25 53 21.24 53 21.24L59.62 21.49L56 15Z" fill="#BF0603"/>
<g opacity="0.3">
<path d="M22.18 4.24001L55.3 39.29L92.38 3.95001H100C105.05 3.95001 109.14 8.04001 109.14 13.09C109.14 13.34 109.13 13.6 109.11 13.85L103.38 82.68C103.01 90.28 96.66 96.21 89.06 96.06C70.02 95.7 35.95 95.13 19.13 95.38C13.27 95.47 7.58999 89.22 7.23999 83.36L3.23999 17.77C2.45999 10.96 7.33999 4.81001 14.15 4.02001C14.81 3.94001 15.48 3.92001 16.15 3.95001L22.19 4.23001L22.18 4.24001Z" fill="black"/>
</g>
</svg>
