<svg width="164" height="157" viewBox="0 0 164 157" fill="none" xmlns="http://www.w3.org/2000/svg">
<path fill-rule="evenodd" clip-rule="evenodd" d="M20.2342 96.1427C26.8702 95.6037 31.4182 91.8691 34.5112 86.4816C37.6542 81.0086 39.3192 73.822 40.1562 66.499L40.1577 66.4845C40.5967 62.6269 40.8552 58.6019 41.1182 54.5164C42.4172 34.3268 43.8218 12.5396 66.7557 3.27106C70.2279 1.86846 73.8836 0.971968 77.6107 0.609038C85.5322 -0.165467 93.6227 1.46954 100.606 5.46507C107.59 9.4651 113.473 15.8291 116.982 24.5062C118.595 28.4932 119.708 32.9772 120.193 37.9388L120.195 38.0278C120.125 50.2094 122.073 67.3085 127.365 79.8505C131.173 88.8746 136.707 95.5176 144.443 96.1441C144.76 96.1686 144.998 96.4477 144.973 96.7642L144.943 96.9112C143.504 100.964 136.88 104.086 128.956 105.606C140.742 108.473 148.921 111.929 154.46 118.032C161.273 125.539 163.814 136.712 163.814 155.28C163.814 156.505 162.819 157.5 161.594 157.5H3.07524C2.48653 157.5 1.92204 157.266 1.50572 156.849C1.0894 156.433 0.855266 155.869 0.854736 155.28C0.854736 137.201 3.26524 126.017 9.68274 118.456C14.9212 112.284 22.6393 108.727 33.7237 105.976C26.8252 104.269 21.1657 100.965 19.7257 96.9112C19.6752 96.7665 19.684 96.6078 19.7502 96.4696C19.8165 96.3315 19.9348 96.2252 20.0792 96.1742L20.2342 96.1427ZM110.906 106.101C109.858 105.944 108.818 105.741 107.788 105.493C104.664 104.733 101.913 103.569 99.8472 101.949C96.7027 99.4857 95.1352 96.0087 96.1872 91.3506C86.7587 97.2352 76.8612 97.2102 67.4907 91.1471L66.8982 90.8161C66.8457 93.5806 65.0977 101.754 62.4227 103.378C58.0902 106.013 51.1172 107.15 46.0202 107.98C44.7997 108.179 43.6927 108.358 42.7092 108.55C41.1437 108.855 39.5821 109.179 38.0247 109.523C52.4742 123.563 67.0172 131.409 81.6542 131.848C96.3292 132.291 111.329 125.282 126.686 109.609C124.322 109.06 121.95 108.548 119.57 108.073L119.209 108C117.059 107.574 114.031 106.97 110.906 106.101ZM99.9487 82.9396C109.981 71.843 112.656 64.36 111.327 49.4044C111.107 46.9596 110.754 44.5287 110.269 42.1223C102.085 38.3283 96.7317 29.9897 93.9887 17.4606C90.7122 41.3128 61.4187 40.2898 54.0537 44.6298C54.0537 46.6378 54.0042 48.5343 53.9552 50.3549C53.6222 62.6354 54.5317 69.162 60.7127 78.967C61.7472 80.6086 62.7557 82.1941 63.9747 83.5091C73.8172 94.1211 90.6452 92.7916 99.9487 82.9396Z" fill="black"/>
</svg>
